<svg width="68" height="69" viewBox="0 0 68 69" fill="none" xmlns="http://www.w3.org/2000/svg">
<ellipse cx="34" cy="37" rx="34" ry="32" fill="#D76060"/>
<path d="M30.9228 43.845L30.1528 17.5H37.6878L36.8628 43.845H30.9228ZM34.0578 56.385C32.7378 56.385 31.6561 55.9817 30.8128 55.175C30.0061 54.3683 29.6028 53.3967 29.6028 52.26C29.6028 51.0867 30.0061 50.0967 30.8128 49.29C31.6561 48.4833 32.7378 48.08 34.0578 48.08C35.3045 48.08 36.3311 48.4833 37.1378 49.29C37.9811 50.0967 38.4028 51.0867 38.4028 52.26C38.4028 53.3967 37.9811 54.3683 37.1378 55.175C36.3311 55.9817 35.3045 56.385 34.0578 56.385Z" fill="white"/>
</svg>
