<svg width="26" height="26" viewBox="0 0 52 52" fill="none" xmlns="http://www.w3.org/2000/svg">
<path d="M0 27C0 40.8071 11.1929 52 25 52H27C40.8071 52 52 40.8071 52 27V25C52 11.1929 40.8071 0 27 0H25C11.1929 0 0 11.1929 0 25V27Z" fill="#FDE100"/>
<path fill-rule="evenodd" clip-rule="evenodd" d="M6.76001 19.2401L14.8774 24.6568L24.6274 18.1568L20.5687 15.4408L25.848 11.9314L37.2154 19.5147L18.5394 31.9654L22.598 34.6814L45.76 19.2401L26.26 6.23999L6.76001 19.2401ZM45.76 32.2401L37.6275 26.8234L27.8774 33.3234L31.9361 36.024L26.6567 39.5488L15.2894 31.9654L33.9654 19.5147L29.9067 16.7988L6.76001 32.2401L26.26 45.2401L45.76 32.2401ZM45.76 11.6567L41.6861 14.3727L37.6275 11.6567L45.76 6.23999V11.6567ZM6.76001 39.8234L10.8187 37.1075L14.8774 39.8234L6.76001 45.2401V39.8234Z" fill="#003882"/>
</svg>
