<svg width="259" height="77" viewBox="0 0 259 77" fill="none" xmlns="http://www.w3.org/2000/svg">
<path d="M17.737 59.306C12.229 59.306 6.721 59.102 1.213 58.694L0.8305 51.197L6.415 49.667L6.415 20.5205C6.415 19.1945 6.313 18.3275 6.109 17.9195C5.905 17.4605 5.3695 17.0525 4.5025 16.6955L0.5245 14.477L0.9835 8.1275C9.2455 7.0565 16.3345 6.521 22.2505 6.521C29.4925 6.521 34.7965 7.592 38.1625 9.734C41.5285 11.876 43.2115 15.2675 43.2115 19.9085C43.2115 22.2035 42.8545 24.2435 42.1405 26.0285C41.4265 27.7625 40.33 29.3435 38.851 30.7715C43.951 33.0665 46.501 36.7895 46.501 41.9405C46.501 46.5305 45.226 50.228 42.676 53.033C40.126 55.838 36.3775 57.674 31.4305 58.541C29.5945 59.051 25.03 59.306 17.737 59.306ZM28.9825 28.3235C29.4925 26.9975 29.7475 24.779 29.7475 21.668C29.7475 19.526 29.2375 17.945 28.2175 16.925C27.2485 15.905 25.744 15.344 23.704 15.242C22.378 15.242 21.052 15.293 19.726 15.395V28.1705C20.593 28.1195 21.715 28.094 23.092 28.094C25.183 28.094 27.1465 28.1705 28.9825 28.3235ZM25.7695 49.82C28.6765 49.82 30.742 49.565 31.966 49.055C32.476 47.015 32.731 45.2045 32.731 43.6235C32.731 41.0735 32.068 39.263 30.742 38.192C29.416 37.121 27.172 36.5855 24.01 36.5855C23.347 36.5855 22.5055 36.6365 21.4855 36.7385L19.726 36.815V49.2845C21.511 49.6415 23.5255 49.82 25.7695 49.82ZM66.0539 60.071C61.9739 60.071 58.9394 58.8725 56.9504 56.4755C54.9614 54.0275 53.9669 50.3555 53.9669 45.4595V31.766C53.9669 30.644 53.8649 29.93 53.6609 29.624C53.5079 29.267 53.0744 28.8845 52.3604 28.4765L48.9179 26.6405L49.3004 20.903C50.0144 20.801 50.5244 20.699 50.8304 20.597C51.3914 20.495 53.3804 20.138 56.7974 19.526C60.2654 18.914 63.1469 18.557 65.4419 18.455C66.0029 19.73 66.4364 21.209 66.7424 22.892V42.17C66.7424 44.414 66.7934 45.995 66.8954 46.913C67.0484 47.831 67.4564 48.545 68.1194 49.055C68.8334 49.514 70.0319 49.7435 71.7149 49.7435C74.1629 49.7435 76.5344 49.31 78.8294 48.443V31.766C78.8294 30.644 78.7529 29.93 78.5999 29.624C78.4469 29.267 78.0389 28.8845 77.3759 28.4765L74.0099 26.6405L74.3159 20.903C78.4469 20.138 81.6599 19.5515 83.9549 19.1435C86.3009 18.7355 88.4429 18.506 90.3809 18.455C90.9419 19.73 91.3754 21.209 91.6814 22.892V47.984C91.6814 48.902 91.7579 49.5395 91.9109 49.8965C92.0639 50.2535 92.4209 50.6105 92.9819 50.9675L96.0419 52.727L95.8124 57.47C93.6194 58.031 91.0949 58.541 88.2389 59C85.3829 59.408 82.7309 59.663 80.2829 59.765C80.0789 59.153 79.8494 58.388 79.5944 57.47C79.5434 57.062 79.4159 56.5775 79.2119 56.0165H78.9824C76.8914 57.2405 74.6729 58.235 72.3269 59C70.0319 59.714 67.9409 60.071 66.0539 60.071ZM114.263 59.9945C109.367 59.9945 105.542 58.1585 102.788 54.4865C100.034 50.8145 98.6573 45.893 98.6573 39.722C98.6573 32.633 100.519 27.278 104.242 23.657C108.016 20.036 113.371 18.2255 120.307 18.2255C120.715 18.2255 122.041 18.2765 124.285 18.3785V13.7885C124.285 12.6665 124.208 11.927 124.055 11.57C123.902 11.213 123.469 10.8305 122.755 10.4225L119.312 8.663L119.695 2.849C124.591 1.982 128.212 1.3955 130.558 1.0895C132.904 0.732496 134.765 0.528496 136.142 0.477497C136.601 1.6505 136.933 2.9765 137.137 4.4555V47.984C137.137 48.902 137.213 49.5395 137.366 49.8965C137.57 50.2535 138.004 50.6105 138.667 50.9675L141.574 52.727L141.268 57.47C136.27 58.745 131.374 59.51 126.58 59.765C126.223 58.796 125.866 57.623 125.509 56.246C122.041 58.745 118.292 59.9945 114.263 59.9945ZM118.7 50.2025C120.383 50.2025 122.27 49.6415 124.361 48.5195V28.706C122.831 28.043 120.868 27.7115 118.471 27.7115C116.533 27.7115 114.671 27.9665 112.886 28.4765C112.478 29.4455 112.147 30.7715 111.892 32.4545C111.688 34.1375 111.586 35.999 111.586 38.039C111.586 42.221 112.147 45.3065 113.269 47.2955C114.442 49.2335 116.252 50.2025 118.7 50.2025ZM160.68 76.442C154.815 76.442 150.378 75.524 147.369 73.688C144.411 71.852 142.932 69.149 142.932 65.579C142.932 61.805 144.666 58.49 148.134 55.634C147.063 54.563 146.527 53.39 146.527 52.115C146.527 50.279 147.726 47.678 150.123 44.312C145.941 42.119 143.85 38.345 143.85 32.99C143.85 28.298 145.431 24.677 148.593 22.127C151.806 19.526 156.421 18.2255 162.439 18.2255C166.672 18.2255 170.14 18.863 172.843 20.138L182.023 17.3075H185.619V28.4H179.652C179.907 29.675 180.034 30.9245 180.034 32.1485C180.034 36.8405 178.453 40.4105 175.291 42.8585C172.129 45.3065 167.488 46.5305 161.368 46.5305C159.277 46.5305 157.39 46.3775 155.707 46.0715V47.1425C155.707 47.9585 156.039 48.545 156.702 48.902C157.416 49.208 158.92 49.514 161.215 49.82L168.1 50.8145C173.506 51.5795 177.229 52.9055 179.269 54.7925C181.36 56.6795 182.406 59.102 182.406 62.06C182.406 66.65 180.519 70.1945 176.745 72.6935C172.971 75.1925 167.616 76.442 160.68 76.442ZM162.516 39.0335C163.587 39.0335 164.811 38.8805 166.188 38.5745C166.392 37.9625 166.57 37.0445 166.723 35.8205C166.927 34.5965 167.029 33.4745 167.029 32.4545C167.029 30.1595 166.519 28.451 165.499 27.329C164.53 26.207 163 25.646 160.909 25.646C159.889 25.646 158.767 25.799 157.543 26.105C157.288 26.717 157.059 27.6095 156.855 28.7825C156.702 29.9555 156.625 31.0775 156.625 32.1485C156.625 34.4945 157.11 36.2285 158.079 37.3505C159.048 38.4725 160.527 39.0335 162.516 39.0335ZM164.199 67.7975C166.545 67.7975 168.33 67.5935 169.554 67.1855C169.86 66.5735 170.013 65.7575 170.013 64.7375C170.013 63.5135 169.579 62.57 168.712 61.907C167.845 61.295 166.29 60.836 164.046 60.53L161.598 60.1475C159.354 59.8925 157.084 59.5355 154.789 59.0765C154.483 60.4535 154.33 61.55 154.33 62.366C154.33 64.202 155.146 65.5535 156.778 66.4205C158.41 67.3385 160.884 67.7975 164.199 67.7975ZM206.523 59.918C200.556 59.918 195.941 58.1075 192.677 54.4865C189.464 50.8655 187.857 45.8675 187.857 39.4925C187.857 35.0555 188.648 31.256 190.229 28.094C191.81 24.881 194.054 22.433 196.961 20.75C199.868 19.067 203.259 18.2255 207.135 18.2255C212.898 18.2255 217.31 20.0615 220.37 23.7335C223.481 27.4055 224.96 32.633 224.807 39.416L201.551 43.7C202.265 45.842 203.259 47.423 204.534 48.443C205.86 49.412 207.594 49.8965 209.736 49.8965C211.215 49.8965 212.975 49.6925 215.015 49.2845C217.055 48.8255 219.12 48.2135 221.211 47.4485L222.971 55.022C221.084 56.45 218.636 57.623 215.627 58.541C212.618 59.459 209.583 59.918 206.523 59.918ZM212.261 32.99C212.159 31.052 211.598 29.6495 210.578 28.7825C209.609 27.8645 208.232 27.4055 206.447 27.4055C204.968 27.4055 203.565 27.6095 202.239 28.0175C201.168 30.5165 200.684 33.2195 200.786 36.1265L212.261 32.99ZM245.902 59.9945C241.414 59.9945 238.099 58.898 235.957 56.705C233.815 54.461 232.744 51.0695 232.744 46.5305V27.941H227.389V22.3565L241.159 9.8105L245.596 10.346V18.9905H258.448V28.0175H245.596V43.7765C245.596 46.2245 245.928 47.8565 246.591 48.6725C247.305 49.4885 248.656 49.8965 250.645 49.8965C252.328 49.8965 254.674 49.667 257.683 49.208L258.601 57.011C256.765 57.878 254.7 58.592 252.405 59.153C250.161 59.714 247.993 59.9945 245.902 59.9945Z" fill="#56AB91"/>
</svg>
