<svg width="200" height="65" viewBox="0 0 364 100" fill="none" xmlns="http://www.w3.org/2000/svg">
<path d="M4.22168 49.9986C4.22168 22.3836 25.8864 3.25195e-05 52.6108 3.25195e-05C79.3353 3.25195e-05 101 22.3836 101 49.9986C101 77.6136 79.3353 100 52.6108 100C25.8864 100 4.22168 77.6136 4.22168 49.9986Z" fill="#ADB5BD"/>
<path d="M0 49.9985C0 22.3836 21.6644 2.00197e-06 48.3892 2.00197e-06C75.1128 2.00197e-06 96.7778 22.3836 96.7778 49.9985C96.7778 77.6135 75.1128 100 48.3892 100C21.6644 100 0 77.6135 0 49.9985Z" fill="#CED4DA"/>
<path d="M48.3891 7.75175C25.5294 7.75175 6.9316 26.9686 6.9316 50.591C6.9316 74.2105 25.5294 93.4274 48.3891 93.4274C71.2489 93.4274 89.8464 74.2105 89.8464 50.591C89.8464 26.9686 71.2489 7.75175 48.3891 7.75175ZM48.3891 96.147C36.613 96.147 25.5416 91.4083 17.2143 82.8023C8.88727 74.1991 4.30127 62.7596 4.30127 50.591C4.30127 38.4224 8.88727 26.9829 17.2143 18.3769C25.5416 9.77369 36.613 5.03498 48.3891 5.03498C60.1656 5.03498 71.2367 9.77369 79.5638 18.3769C87.8897 26.9829 92.4757 38.4224 92.4757 50.591C92.4757 62.7596 87.8897 74.1991 79.5638 82.8023C71.2367 91.4083 60.1656 96.147 48.3891 96.147Z" fill="#ADB5BD"/>
<rect x="1" width="363" height="100" fill="#56AB91"/>
<path d="M120.737 76.306C115.229 76.306 109.721 76.102 104.213 75.694L103.831 68.197L109.415 66.667V37.5205C109.415 36.1945 109.313 35.3275 109.109 34.9195C108.905 34.4605 108.37 34.0525 107.503 33.6955L103.524 31.477L103.984 25.1275C112.246 24.0565 119.335 23.521 125.251 23.521C132.493 23.521 137.797 24.592 141.163 26.734C144.529 28.876 146.212 32.2675 146.212 36.9085C146.212 39.2035 145.855 41.2435 145.141 43.0285C144.427 44.7625 143.33 46.3435 141.851 47.7715C146.951 50.0665 149.501 53.7895 149.501 58.9405C149.501 63.5305 148.226 67.228 145.676 70.033C143.126 72.838 139.378 74.674 134.431 75.541C132.595 76.051 128.03 76.306 120.737 76.306ZM131.983 45.3235C132.493 43.9975 132.748 41.779 132.748 38.668C132.748 36.526 132.238 34.945 131.218 33.925C130.249 32.905 128.744 32.344 126.704 32.242C125.378 32.242 124.052 32.293 122.726 32.395V45.1705C123.593 45.1195 124.715 45.094 126.092 45.094C128.183 45.094 130.147 45.1705 131.983 45.3235ZM128.77 66.82C131.677 66.82 133.742 66.565 134.966 66.055C135.476 64.015 135.731 62.2045 135.731 60.6235C135.731 58.0735 135.068 56.263 133.742 55.192C132.416 54.121 130.172 53.5855 127.01 53.5855C126.347 53.5855 125.506 53.6365 124.486 53.7385L122.726 53.815V66.2845C124.511 66.6415 126.526 66.82 128.77 66.82ZM169.054 77.071C164.974 77.071 161.939 75.8725 159.95 73.4755C157.961 71.0275 156.967 67.3555 156.967 62.4595V48.766C156.967 47.644 156.865 46.93 156.661 46.624C156.508 46.267 156.074 45.8845 155.36 45.4765L151.918 43.6405L152.3 37.903C153.014 37.801 153.524 37.699 153.83 37.597C154.391 37.495 156.38 37.138 159.797 36.526C163.265 35.914 166.147 35.557 168.442 35.455C169.003 36.73 169.436 38.209 169.742 39.892V59.17C169.742 61.414 169.793 62.995 169.895 63.913C170.048 64.831 170.456 65.545 171.119 66.055C171.833 66.514 173.032 66.7435 174.715 66.7435C177.163 66.7435 179.534 66.31 181.829 65.443V48.766C181.829 47.644 181.753 46.93 181.6 46.624C181.447 46.267 181.039 45.8845 180.376 45.4765L177.01 43.6405L177.316 37.903C181.447 37.138 184.66 36.5515 186.955 36.1435C189.301 35.7355 191.443 35.506 193.381 35.455C193.942 36.73 194.375 38.209 194.681 39.892V64.984C194.681 65.902 194.758 66.5395 194.911 66.8965C195.064 67.2535 195.421 67.6105 195.982 67.9675L199.042 69.727L198.812 74.47C196.619 75.031 194.095 75.541 191.239 76C188.383 76.408 185.731 76.663 183.283 76.765C183.079 76.153 182.849 75.388 182.594 74.47C182.543 74.062 182.416 73.5775 182.212 73.0165H181.982C179.891 74.2405 177.673 75.235 175.327 76C173.032 76.714 170.941 77.071 169.054 77.071ZM217.263 76.9945C212.367 76.9945 208.542 75.1585 205.788 71.4865C203.034 67.8145 201.657 62.893 201.657 56.722C201.657 49.633 203.519 44.278 207.242 40.657C211.016 37.036 216.371 35.2255 223.307 35.2255C223.715 35.2255 225.041 35.2765 227.285 35.3785V30.7885C227.285 29.6665 227.208 28.927 227.055 28.57C226.902 28.213 226.469 27.8305 225.755 27.4225L222.312 25.663L222.695 19.849C227.591 18.982 231.212 18.3955 233.558 18.0895C235.904 17.7325 237.765 17.5285 239.142 17.4775C239.601 18.6505 239.933 19.9765 240.137 21.4555V64.984C240.137 65.902 240.213 66.5395 240.366 66.8965C240.57 67.2535 241.004 67.6105 241.667 67.9675L244.574 69.727L244.268 74.47C239.27 75.745 234.374 76.51 229.58 76.765C229.223 75.796 228.866 74.623 228.509 73.246C225.041 75.745 221.292 76.9945 217.263 76.9945ZM221.7 67.2025C223.383 67.2025 225.27 66.6415 227.361 65.5195V45.706C225.831 45.043 223.868 44.7115 221.471 44.7115C219.533 44.7115 217.671 44.9665 215.886 45.4765C215.478 46.4455 215.147 47.7715 214.892 49.4545C214.688 51.1375 214.586 52.999 214.586 55.039C214.586 59.221 215.147 62.3065 216.269 64.2955C217.442 66.2335 219.252 67.2025 221.7 67.2025ZM263.68 93.442C257.815 93.442 253.378 92.524 250.369 90.688C247.411 88.852 245.932 86.149 245.932 82.579C245.932 78.805 247.666 75.49 251.134 72.634C250.063 71.563 249.527 70.39 249.527 69.115C249.527 67.279 250.726 64.678 253.123 61.312C248.941 59.119 246.85 55.345 246.85 49.99C246.85 45.298 248.431 41.677 251.593 39.127C254.806 36.526 259.421 35.2255 265.439 35.2255C269.672 35.2255 273.14 35.863 275.843 37.138L285.023 34.3075H288.619V45.4H282.652C282.907 46.675 283.034 47.9245 283.034 49.1485C283.034 53.8405 281.453 57.4105 278.291 59.8585C275.129 62.3065 270.488 63.5305 264.368 63.5305C262.277 63.5305 260.39 63.3775 258.707 63.0715V64.1425C258.707 64.9585 259.039 65.545 259.702 65.902C260.416 66.208 261.92 66.514 264.215 66.82L271.1 67.8145C276.506 68.5795 280.229 69.9055 282.269 71.7925C284.36 73.6795 285.406 76.102 285.406 79.06C285.406 83.65 283.519 87.1945 279.745 89.6935C275.971 92.1925 270.616 93.442 263.68 93.442ZM265.516 56.0335C266.587 56.0335 267.811 55.8805 269.188 55.5745C269.392 54.9625 269.57 54.0445 269.723 52.8205C269.927 51.5965 270.029 50.4745 270.029 49.4545C270.029 47.1595 269.519 45.451 268.499 44.329C267.53 43.207 266 42.646 263.909 42.646C262.889 42.646 261.767 42.799 260.543 43.105C260.288 43.717 260.059 44.6095 259.855 45.7825C259.702 46.9555 259.625 48.0775 259.625 49.1485C259.625 51.4945 260.11 53.2285 261.079 54.3505C262.048 55.4725 263.527 56.0335 265.516 56.0335ZM267.199 84.7975C269.545 84.7975 271.33 84.5935 272.554 84.1855C272.86 83.5735 273.013 82.7575 273.013 81.7375C273.013 80.5135 272.579 79.57 271.712 78.907C270.845 78.295 269.29 77.836 267.046 77.53L264.598 77.1475C262.354 76.8925 260.084 76.5355 257.789 76.0765C257.483 77.4535 257.33 78.55 257.33 79.366C257.33 81.202 258.146 82.5535 259.778 83.4205C261.41 84.3385 263.884 84.7975 267.199 84.7975ZM309.523 76.918C303.556 76.918 298.941 75.1075 295.677 71.4865C292.464 67.8655 290.857 62.8675 290.857 56.4925C290.857 52.0555 291.648 48.256 293.229 45.094C294.81 41.881 297.054 39.433 299.961 37.75C302.868 36.067 306.259 35.2255 310.135 35.2255C315.898 35.2255 320.31 37.0615 323.37 40.7335C326.481 44.4055 327.96 49.633 327.807 56.416L304.551 60.7C305.265 62.842 306.259 64.423 307.534 65.443C308.86 66.412 310.594 66.8965 312.736 66.8965C314.215 66.8965 315.975 66.6925 318.015 66.2845C320.055 65.8255 322.12 65.2135 324.211 64.4485L325.971 72.022C324.084 73.45 321.636 74.623 318.627 75.541C315.618 76.459 312.583 76.918 309.523 76.918ZM315.261 49.99C315.159 48.052 314.598 46.6495 313.578 45.7825C312.609 44.8645 311.232 44.4055 309.447 44.4055C307.968 44.4055 306.565 44.6095 305.239 45.0175C304.168 47.5165 303.684 50.2195 303.786 53.1265L315.261 49.99ZM348.902 76.9945C344.414 76.9945 341.099 75.898 338.957 73.705C336.815 71.461 335.744 68.0695 335.744 63.5305V44.941H330.389V39.3565L344.159 26.8105L348.596 27.346V35.9905L361.448 35.9905V45.0175L348.596 45.0175V60.7765C348.596 63.2245 348.928 64.8565 349.591 65.6725C350.305 66.4885 351.656 66.8965 353.645 66.8965C355.328 66.8965 357.674 66.667 360.683 66.208L361.601 74.011C359.765 74.878 357.7 75.592 355.405 76.153C353.161 76.714 350.993 76.9945 348.902 76.9945Z" fill="white"/>
<path d="M9.17969 50.9986C9.17969 23.3836 30.6299 1.00006 57.0898 1.00006C83.5496 1.00006 105 23.3836 105 50.9986C105 78.6136 83.5496 101 57.0898 101C30.6299 101 9.17969 78.6136 9.17969 50.9986Z" fill="#56AB91"/>
<path d="M5 50.9985C5 23.3836 26.4499 1 52.9101 1C79.3691 1 100.82 23.3836 100.82 50.9985C100.82 78.6135 79.3691 101 52.9101 101C26.4499 101 5 78.6135 5 50.9985Z" fill="#88C4B2"/>
<path d="M52.9101 8.75178C30.2768 8.75178 11.8631 27.9687 11.8631 51.591C11.8631 75.2106 30.2768 94.4274 52.9101 94.4274C75.5435 94.4274 93.9569 75.2106 93.9569 51.591C93.9569 27.9687 75.5435 8.75178 52.9101 8.75178ZM52.9101 97.1471C41.2506 97.1471 30.2888 92.4083 22.0439 83.8023C13.7994 75.1992 9.25879 63.7596 9.25879 51.591C9.25879 39.4225 13.7994 27.9829 22.0439 19.3769C30.2888 10.7737 41.2506 6.03501 52.9101 6.03501C64.57 6.03501 75.5315 10.7737 83.7761 19.3769C92.0196 27.9829 96.5602 39.4225 96.5602 51.591C96.5602 63.7596 92.0196 75.1992 83.7761 83.8023C75.5315 92.4083 64.57 97.1471 52.9101 97.1471Z" fill="#66B39C"/>
<path fill-rule="evenodd" clip-rule="evenodd" d="M70.6417 29.7872C67.611 27.8586 62.9776 26.8156 56.7417 26.6582V19H49.7417V26.768C45.1411 26.9834 39.9578 27.4648 34.1917 28.2122L33.7417 34.4372L37.6417 36.6122C38.4917 36.9622 39.0167 37.3622 39.2167 37.8122C39.4167 38.2122 39.5167 39.0622 39.5167 40.3622V68.9372L34.0417 70.4372L34.4167 77.7872C39.525 78.1656 44.6334 78.365 49.7417 78.3855V86H56.7417V78.308C60.3935 78.1983 62.8269 77.9747 64.0417 77.6372C68.8917 76.7872 72.5667 74.9872 75.0667 72.2372C77.5667 69.4872 78.8167 65.8622 78.8167 61.3622C78.8167 56.3122 76.3167 52.6622 71.3167 50.4122C72.7667 49.0122 73.8417 47.4622 74.5417 45.7622C75.2417 44.0122 75.5917 42.0122 75.5917 39.7622C75.5917 35.2122 73.9417 31.8872 70.6417 29.7872ZM61.6417 48.0122C62.1417 46.7122 62.3917 44.5372 62.3917 41.4872C62.3917 39.3872 61.8917 37.8372 60.8917 36.8372C59.9417 35.8372 58.4667 35.2872 56.4667 35.1872C55.1667 35.1872 53.8667 35.2372 52.5667 35.3372V47.8622C53.4167 47.8122 54.5167 47.7872 55.8667 47.7872C57.9167 47.7872 59.8417 47.8622 61.6417 48.0122ZM58.4917 69.0872C61.3417 69.0872 63.3667 68.8372 64.5667 68.3372C65.0667 66.3372 65.3167 64.5622 65.3167 63.0122C65.3167 60.5122 64.6667 58.7372 63.3667 57.6872C62.0667 56.6372 59.8667 56.1122 56.7667 56.1122C56.1167 56.1122 55.2917 56.1622 54.2917 56.2622L52.5667 56.3372V68.5622C54.3167 68.9122 56.2917 69.0872 58.4917 69.0872Z" fill="white"/>
</svg>
