<svg width="9" height="10" viewBox="0 0 18 20" fill="none" xmlns="http://www.w3.org/2000/svg">
<path d="M5.28125 0.691406L5 1.25H1.25C0.558594 1.25 0 1.80859 0 2.5C0 3.19141 0.558594 3.75 1.25 3.75H16.25C16.9414 3.75 17.5 3.19141 17.5 2.5C17.5 1.80859 16.9414 1.25 16.25 1.25H12.5L12.2188 0.691406C12.0078 0.265625 11.5742 0 11.1016 0H6.39844C5.92578 0 5.49219 0.265625 5.28125 0.691406ZM16.25 5H1.25L2.07812 18.2422C2.14062 19.2305 2.96094 20 3.94922 20H13.5508C14.5391 20 15.3594 19.2305 15.4219 18.2422L16.25 5Z" fill="#ADB5BD"/>
</svg>
