<svg width="125" height="126" viewBox="0 0 125 126" fill="none" xmlns="http://www.w3.org/2000/svg">
<g filter="url(#filter0_ddd_316_668)">
<rect x="20" y="36" width="66.0075" height="50" rx="25" fill="#D76060"/>
<path d="M59.0066 66.9997C57.9002 66.9997 57.0064 67.8935 57.0064 68.9998C57.0064 70.1062 57.9002 71 59.0066 71H69.0073C70.1137 71 71.0075 70.1062 71.0075 68.9998V58.9991C71.0075 57.8927 70.1137 56.9989 69.0073 56.9989C67.901 56.9989 67.0072 57.8927 67.0072 58.9991V64.1682L56.4189 53.5861C55.6376 52.8048 54.3687 52.8048 53.5874 53.5861L47.0056 60.1679L38.4175 51.586C37.6361 50.8047 36.3673 50.8047 35.586 51.586C34.8047 52.3673 34.8047 53.6361 35.586 54.4175L45.5868 64.4182C46.3681 65.1995 47.6369 65.1995 48.4182 64.4182L55.0063 57.8302L64.1757 66.9997H59.0066Z" fill="white"/>
</g>
<defs>
<filter id="filter0_ddd_316_668" x="-18" y="-20" width="142.007" height="146" filterUnits="userSpaceOnUse" color-interpolation-filters="sRGB">
<feFlood flood-opacity="0" result="BackgroundImageFix"/>
<feColorMatrix in="SourceAlpha" type="matrix" values="0 0 0 0 0 0 0 0 0 0 0 0 0 0 0 0 0 0 127 0" result="hardAlpha"/>
<feOffset dy="10"/>
<feGaussianBlur stdDeviation="15"/>
<feComposite in2="hardAlpha" operator="out"/>
<feColorMatrix type="matrix" values="0 0 0 0 0.333333 0 0 0 0 0.670588 0 0 0 0 0.568627 0 0 0 0.1 0"/>
<feBlend mode="normal" in2="BackgroundImageFix" result="effect1_dropShadow_316_668"/>
<feColorMatrix in="SourceAlpha" type="matrix" values="0 0 0 0 0 0 0 0 0 0 0 0 0 0 0 0 0 0 127 0" result="hardAlpha"/>
<feOffset dy="4"/>
<feGaussianBlur stdDeviation="5"/>
<feComposite in2="hardAlpha" operator="out"/>
<feColorMatrix type="matrix" values="0 0 0 0 0.129412 0 0 0 0 0.145098 0 0 0 0 0.160784 0 0 0 0.02 0"/>
<feBlend mode="normal" in2="effect1_dropShadow_316_668" result="effect2_dropShadow_316_668"/>
<feColorMatrix in="SourceAlpha" type="matrix" values="0 0 0 0 0 0 0 0 0 0 0 0 0 0 0 0 0 0 127 0" result="hardAlpha"/>
<feOffset dy="-18"/>
<feGaussianBlur stdDeviation="19"/>
<feComposite in2="hardAlpha" operator="out"/>
<feColorMatrix type="matrix" values="0 0 0 0 0.333333 0 0 0 0 0.670588 0 0 0 0 0.568627 0 0 0 0.04 0"/>
<feBlend mode="normal" in2="effect2_dropShadow_316_668" result="effect3_dropShadow_316_668"/>
<feBlend mode="normal" in="SourceGraphic" in2="effect3_dropShadow_316_668" result="shape"/>
</filter>
</defs>
</svg>
