<svg width="900" height="1200" viewBox="0 0 1020 1072" fill="none" xmlns="http://www.w3.org/2000/svg">
<path d="M867.65 907.306C700 1130.98 458.5 1081.48 396.5 896.977C334.5 712.477 186.5 849.477 118.919 767.948C51.338 686.418 26.9363 500.816 117.539 350.355C208.142 199.889 290.394 333.245 315.313 217.016C316.159 213.085 316.494 209.096 317.04 205.244C317.166 204.326 317.307 203.427 317.47 202.529C329.586 135.372 367.37 97.5276 412.618 80.1237C414.079 79.5559 415.546 79.0205 417.02 78.5C488.823 53.2069 577.599 77.633 612.797 117.374C672.682 184.992 662.861 251.179 805.745 255.27C948.629 259.364 949.366 447.088 899.771 533.45C829.399 656.004 1035.3 683.636 867.65 907.306Z" fill="#EBF3FA"/>
<path d="M643.107 461.755L626.38 443.168L609.966 424.929C609.17 423.857 609.006 422.773 609.276 421.692C610.122 418.293 615.227 414.913 618.209 412.079L618.508 411.79C622.437 408.05 628.362 408.618 631.672 413.053L651.738 439.902H651.741L657.692 447.866C661.005 452.301 660.502 458.989 656.573 462.726L656.274 463.015C652.345 466.755 646.421 466.187 643.107 461.755Z" fill="#FFB27D"/>
<path d="M647.973 342.144C647.78 344.511 645.413 348.323 641.157 348.894C619.649 351.787 606.255 344.125 605.631 344.134C589.281 344.222 577.702 337.498 574.198 340.979C574.069 341.105 574.104 341.381 574.288 341.771C577.494 348.793 627.113 395.493 627.835 400.674C628.597 406.145 535.538 431.884 535.538 431.884C535.538 431.884 521.79 422.209 506.395 409.512C498.586 403.08 490.361 395.873 483.288 388.75C476.156 381.584 470.191 374.494 467.004 368.383L466.987 368.345C466.506 367.429 466.092 366.536 465.75 365.663C465.695 365.526 465.644 365.403 465.603 365.286C463.113 358.686 458.87 352.874 454.047 347.927C441.551 335.106 425.16 328.06 425.16 328.06L493.493 286.9C493.493 286.9 556.234 295.221 566.272 302.097C580.9 312.126 611.536 319.476 617.429 323.363C621.803 326.242 644.858 335.586 646.544 336.424C647.265 336.791 648.226 339.187 647.973 342.144Z" fill="#FFB27D"/>
<path d="M471.877 275.096C471.877 275.096 471.859 275.252 471.822 275.548V275.551C471.543 277.872 470.131 288.765 466.959 301.186V301.189C466.838 301.647 466.72 302.112 466.596 302.573V302.579C466.542 302.784 466.484 302.995 466.429 303.199V303.206C462.483 317.945 456.064 334.282 446.159 340.87H446.153C445.586 341.246 445.008 341.59 444.416 341.905C443.044 342.626 441.609 343.162 440.107 343.486C439 343.733 437.864 343.857 436.685 343.857C436.685 343.857 427.996 342.678 414.996 340.892C414.286 340.795 413.561 340.691 412.822 340.587C389.322 337.35 353.405 332.334 328.357 328.555C328.353 327.873 328.365 327.205 328.397 326.533C330.717 276.311 359.748 243.851 398.059 225.18C418.405 238.913 437.467 251.805 451.126 261.048L451.137 261.051L451.169 261.074C452.04 261.665 452.895 262.243 453.72 262.798L453.772 262.834C464.951 270.402 471.877 275.096 471.877 275.096Z" fill="#F99746"/>
<path d="M477.206 333.373C477.234 333.441 477.275 333.503 477.286 333.574C483.708 379.403 507.281 371.842 507.281 371.842L506.395 409.513C498.586 403.081 490.361 395.874 483.289 388.75C476.156 381.585 470.191 374.495 467.004 368.384L466.987 368.345C466.432 367.209 466.015 366.3 465.75 365.664C465.696 365.527 465.644 365.404 465.603 365.287C463.113 358.687 458.871 352.875 454.047 347.928C456.555 343.087 459.486 337.587 462.382 332.204C465.911 325.656 474.568 326.308 477.206 333.373Z" fill="#EFA26F"/>
<path d="M451.168 261.006C451.168 261.006 429.12 282.531 420.04 297.657L426.621 310.54L415.427 309.348C415.427 309.348 409.727 332.701 412.824 340.59L443.348 343.834L478.531 280.275L451.168 261.006Z" fill="#ED7D2B"/>
<path d="M414.832 345.886C413.929 336.519 421.976 317.397 421.976 317.397L449.04 323.494L428.203 298.702C432.905 287.713 444.188 270.941 451.168 261.006C454.645 256.058 457.053 252.808 457.053 252.808C477.096 270.002 495.756 287.141 495.756 287.141C487.574 290.719 479.918 300.436 473.547 311.173C462.957 329.013 455.92 349.674 455.92 349.674C439.675 347.941 414.832 345.886 414.832 345.886Z" fill="#DCEAFF"/>
<path d="M414.832 345.886C413.929 336.519 421.976 317.397 421.976 317.397L449.04 323.494L428.203 298.702C432.905 287.713 444.188 270.941 451.168 261.006C451.525 288.404 473.547 311.173 473.547 311.173C462.957 329.013 455.92 349.674 455.92 349.674C439.675 347.941 414.832 345.886 414.832 345.886Z" fill="#CBE1FD"/>
<path d="M444.916 285.471C446.736 285.682 448.059 287.519 447.872 289.578C447.682 291.633 446.055 293.126 444.234 292.912C442.413 292.701 441.09 290.86 441.277 288.805C441.467 286.75 443.095 285.256 444.916 285.471Z" fill="#F99746"/>
<path d="M484.114 372.324L509.63 473.303L704.364 410.598L678.848 309.618L484.114 372.324Z" fill="#82B378"/>
<path d="M710.706 427.851L511.563 469.307L494.692 366.041L693.835 324.582L710.706 427.851Z" fill="#A8D29F"/>
<path d="M689.003 420.127L648.778 428.5H648.77L643.967 429.5H643.961L618.798 434.74L616.463 435.227L598.709 438.922L593.092 440.091L589.488 440.844L586.908 441.38L578.51 443.126L575.036 443.847L572.924 444.292L570.92 444.707L569.315 445.039L562.205 446.522L560.189 446.941L529.395 453.35C524.583 454.353 519.964 450.762 519.075 445.331L514.264 415.864L509.288 385.418C508.399 379.986 511.583 374.769 516.395 373.765L589.074 358.636L623.103 351.552L632.79 349.533H632.799L644.985 347L645.382 346.913H645.387L676.003 340.543C680.815 339.54 685.434 343.13 686.323 348.562L696.11 408.475C696.383 410.157 696.268 411.826 695.834 413.345C694.868 416.738 692.325 419.432 689.003 420.127ZM700.068 411.985L691.572 359.977L691.566 359.958L687.384 334.348L685.213 334.799L647.918 342.565H647.913L647.49 342.656L619.552 348.468L615.979 349.211H615.974L586.022 355.448L507.281 371.84L507.266 371.843L507.215 371.856L505.877 372.136L505.837 372.139L505.805 372.149L503.803 372.564L506.829 391.089L510.367 412.751L518.011 459.544L561.043 450.587L562.959 450.188L570.094 448.701L571.682 448.37L573.776 447.934L575.688 447.538L579.338 446.775L588.242 444.922L590.768 444.399L594.271 443.668L597.328 443.032L615.2 439.311H615.206L618.835 438.555L621.694 437.958L646.437 432.809L668.669 428.182L676.794 426.491L701.595 421.325L700.068 411.985Z" fill="#82B378"/>
<path d="M606.446 422.535C593.739 424.911 581.734 415.207 579.629 400.863C577.526 386.52 586.123 372.968 598.827 370.595C611.533 368.219 623.538 377.923 625.643 392.266C627.746 406.61 619.152 420.161 606.446 422.535Z" fill="#82B378"/>
<path d="M557.854 416.457C553.163 417.333 548.731 413.752 547.955 408.457C547.178 403.162 550.35 398.159 555.041 397.282C559.732 396.406 564.164 399.987 564.941 405.285C565.717 410.577 562.545 415.58 557.854 416.457Z" fill="#82B378"/>
<path d="M650.45 397.182C645.759 398.059 641.327 394.478 640.55 389.183C639.774 383.887 642.946 378.884 647.637 378.008C652.328 377.131 656.76 380.712 657.537 386.007C658.313 391.303 655.141 396.306 650.45 397.182Z" fill="#82B378"/>
<path d="M581.265 464.489L580.529 462.255L575.594 447.239C575.479 446.889 575.381 446.532 575.303 446.178C574.196 441.21 576.575 435.957 580.92 434.136L581.429 433.922C586.089 431.971 591.314 434.675 593.043 439.931L597.645 453.931L597.978 454.947L598.712 457.181C600.44 462.44 598.045 468.336 593.388 470.287L592.876 470.502C588.22 472.453 582.994 469.748 581.265 464.489Z" fill="#FFB27D"/>
<path d="M581.044 452.331C580.221 449.824 578.766 445.289 578.473 442.867C578.392 442.182 578.729 440.922 579.879 439.756C580.569 439.055 581.547 438.386 582.902 437.899C583.538 437.669 584.173 437.481 584.826 437.403C585.588 437.318 586.353 437.351 587.107 437.506C587.788 437.649 588.404 438.179 588.726 438.948L588.732 438.961C589.802 441.542 591.105 445.019 591.824 448.068C592.321 450.175 591.487 452.292 589.854 452.944L589.088 453.253L585.18 454.824C583.555 455.473 581.711 454.376 581.044 452.331Z" fill="#FFD3B6"/>
<path d="M581.044 452.331C580.221 449.824 578.766 445.289 578.473 442.867C578.392 442.182 578.729 440.922 579.879 439.756C580.141 439.633 580.414 439.519 580.708 439.412C581.346 439.182 581.979 438.993 582.632 438.919C583.397 438.831 584.159 438.864 584.915 439.019C585.597 439.162 586.212 439.691 586.535 440.461L586.54 440.474C587.61 443.055 588.913 446.535 589.632 449.581C589.951 450.931 589.724 452.282 589.088 453.253L585.18 454.824C583.555 455.473 581.711 454.376 581.044 452.331Z" fill="#FFC197"/>
<path d="M562.666 457.531L559.962 445.964C559.14 442.448 561.015 438.811 564.13 437.883L565.289 437.539C568.404 436.61 571.625 438.727 572.445 442.243L575.151 453.814C575.974 457.327 574.096 460.963 570.984 461.892L569.822 462.236C566.71 463.164 563.488 461.047 562.666 457.531Z" fill="#FFB27D"/>
<path d="M563.21 451.295C562.723 449.168 561.866 445.327 561.783 443.318C561.751 442.587 562.309 441.126 564.018 440.188C564.432 439.958 564.909 439.76 565.464 439.61C565.968 439.474 566.465 439.373 566.969 439.367C567.561 439.357 568.145 439.448 568.717 439.636C569.232 439.808 569.675 440.298 569.876 440.954L569.882 440.964C570.555 443.172 571.355 446.133 571.734 448.691C571.996 450.46 571.231 452.129 569.94 452.529L569.016 452.821L566.244 453.684C564.961 454.084 563.606 453.028 563.21 451.295Z" fill="#FFD3B6"/>
<path d="M563.21 451.295C562.723 449.168 561.866 445.327 561.783 443.318C561.751 442.587 562.309 441.126 564.018 440.188C564.486 440.065 564.955 439.974 565.43 439.967C566.022 439.958 566.606 440.048 567.179 440.24C567.69 440.412 568.136 440.899 568.338 441.555L568.343 441.568C569.016 443.772 569.816 446.737 570.193 449.295C570.411 450.759 569.922 452.155 569.016 452.821L566.244 453.684C564.961 454.084 563.606 453.028 563.21 451.295Z" fill="#FFC197"/>
<path d="M600.869 464.297C600.84 464.216 600.817 464.132 600.794 464.047L597.455 448.882C595.988 442.214 599.224 435.36 604.651 433.649L607.429 432.773C612.638 431.13 618.048 434.808 619.768 441.006L620.872 446.016L623.107 456.174C624.577 462.843 621.338 469.696 615.914 471.404L613.133 472.281C607.996 473.901 602.664 470.346 600.869 464.297Z" fill="#FFB27D"/>
<path d="M604.66 457.395L601.775 450.016L601.763 449.97C601.697 449.671 601.646 449.373 601.608 449.077C601.591 448.954 601.579 448.831 601.571 448.707C601.565 448.652 601.565 448.6 601.568 448.548C601.597 447.74 602.362 447.191 603.04 447.548C604.375 448.253 605.925 448.457 607.452 448.003L608.022 447.831L608.039 447.827L609.891 447.272C611.37 446.834 612.609 445.886 613.509 444.639C613.622 444.49 613.722 444.334 613.82 444.178C614.723 442.733 616.739 443.12 617.148 444.824L617.159 444.873L618.186 452.951C618.652 454.95 617.277 456.859 615.508 457.389L613.397 458.018L608.896 459.359C607.122 459.885 605.126 459.392 604.66 457.395Z" fill="#FFD3B6"/>
<path d="M604.66 457.395L601.775 450.016L601.763 449.97C601.738 449.795 601.66 449.256 601.568 448.548C601.597 447.74 602.362 447.191 603.04 447.548C604.375 448.253 605.925 448.457 607.452 448.003L608.022 447.831L608.039 447.827L609.891 447.272C611.37 446.834 612.609 445.886 613.509 444.639C613.846 444.902 614.11 445.295 614.231 445.805L614.243 445.85L615.269 453.931C615.664 455.613 614.749 457.23 613.397 458.018L608.896 459.359C607.122 459.885 605.126 459.392 604.66 457.395Z" fill="#FFC197"/>
<path d="M559.528 324.234C559.528 324.234 556.235 295.219 566.273 302.102C580.9 312.131 611.534 319.478 617.43 323.361C621.804 326.24 644.862 335.587 646.541 336.428C647.266 336.792 648.664 339.987 647.315 343.107C646.392 345.246 644.091 349.184 640.096 350.937C625.77 357.226 606.256 344.129 605.632 344.133C589.279 344.223 573.388 342.159 568.769 342.905C567.161 343.165 559.528 324.234 559.528 324.234Z" fill="#FFB27D"/>
<path d="M648.255 336.906L632.069 330.26C632.069 330.26 630.49 333.89 631.266 336.175C632.04 338.461 647.033 342.483 648.255 336.906Z" fill="#FFC197"/>
<path d="M354.276 562.699L357.498 565.65C357.498 565.65 366.31 562.082 368.299 573.903C368.299 573.903 368.828 578.942 366.002 578.951C363.174 578.961 364.341 578.4 360.338 578.533C356.334 578.666 353.016 576.283 352.43 572.617L350.515 569.51L354.276 562.699Z" fill="#EA8E50"/>
<path d="M353.911 569.036C356.482 566.007 356.275 563.767 356.275 563.767C356.275 563.767 326.514 536.262 323.496 534.021C321.439 532.496 299.522 510.561 289.276 497.189C284.194 490.556 277.899 493.13 270.697 495.461L264.766 497.383C257.605 499.701 255.742 511.009 261.619 516.503C278.168 531.976 305.698 549.381 310.849 553.04C323.637 562.121 348.668 572.909 348.668 572.909C348.668 572.909 351.704 571.637 353.911 569.036Z" fill="#1E3D70"/>
<path d="M387.874 738.021C387.874 738.021 395.096 744.131 406.163 740.904C406.163 740.904 415.085 738.608 417.044 743.631C417.044 743.631 403.359 751.478 399.896 753.624C397.285 755.241 394.561 757.796 392.637 759.77C391.113 761.331 388.74 761.12 387.44 759.315C386.839 758.481 386.149 757.487 385.395 756.332C383.284 753.104 378.369 742.676 378.369 742.676L387.874 738.021Z" fill="#204272"/>
<path d="M305.474 514.856C305.474 483.374 328.082 457.856 355.971 457.856C383.86 457.856 406.469 483.374 406.469 514.856C406.469 546.339 383.86 571.861 355.971 571.861C328.082 571.861 305.474 546.339 305.474 514.856Z" fill="#E2810E"/>
<path d="M301.068 514.856C301.068 483.374 323.677 457.856 351.566 457.856C379.454 457.856 402.063 483.374 402.063 514.856C402.063 546.339 379.454 571.861 351.566 571.861C323.677 571.861 301.068 546.339 301.068 514.856Z" fill="#FFC76C"/>
<path d="M351.566 466.693C327.71 466.693 308.302 488.601 308.302 515.532C308.302 542.459 327.71 564.368 351.566 564.368C375.422 564.368 394.829 542.459 394.829 515.532C394.829 488.601 375.422 466.693 351.566 466.693ZM351.566 567.468C339.277 567.468 327.723 562.066 319.033 552.254C310.343 542.446 305.557 529.405 305.557 515.532C305.557 501.659 310.343 488.617 319.033 478.806C327.723 468.998 339.277 463.596 351.566 463.596C363.855 463.596 375.409 468.998 384.099 478.806C392.787 488.617 397.573 501.659 397.573 515.532C397.573 529.405 392.787 542.446 384.099 552.254C375.409 562.066 363.855 567.468 351.566 567.468Z" fill="#FFA412"/>
<path d="M357.9 530.606C358.017 529.486 357.981 528.479 357.791 527.59C357.601 526.697 357.224 525.863 356.662 525.083C356.098 524.307 355.346 523.558 354.403 522.834C353.46 522.113 352.293 521.376 350.903 520.623C348.513 519.301 346.359 517.964 344.438 516.613C342.516 515.259 340.906 513.779 339.605 512.172C338.304 510.565 337.352 508.759 336.75 506.76C336.148 504.76 335.984 502.451 336.259 499.838C336.497 497.572 337.07 495.552 337.979 493.78C338.887 492.01 340.075 490.52 341.543 489.309C343.011 488.101 344.713 487.186 346.649 486.566C348.583 485.945 350.708 485.669 353.022 485.734L353.922 477.176L360.025 477.994L359.113 486.673C361.266 487.286 363.181 488.205 364.858 489.429C366.534 490.656 367.913 492.137 368.994 493.877C370.074 495.62 370.839 497.607 371.288 499.844C371.735 502.081 371.82 504.536 371.54 507.201L360.515 505.724C360.851 502.523 360.474 500.046 359.382 498.289C358.289 496.536 356.687 495.516 354.577 495.234C353.432 495.078 352.428 495.127 351.564 495.377C350.699 495.627 349.967 496.029 349.367 496.585C348.767 497.14 348.295 497.825 347.951 498.646C347.607 499.464 347.383 500.367 347.28 501.354C347.176 502.341 347.209 503.253 347.379 504.084C347.549 504.919 347.91 505.717 348.462 506.484C349.014 507.247 349.773 507.996 350.74 508.733C351.707 509.474 352.92 510.263 354.378 511.11C356.735 512.48 358.868 513.847 360.775 515.21C362.682 516.574 364.285 518.068 365.585 519.688C366.884 521.308 367.835 523.119 368.438 525.119C369.039 527.122 369.205 529.414 368.933 532.002C368.686 534.349 368.102 536.408 367.181 538.177C366.26 539.946 365.067 541.424 363.601 542.605C362.136 543.787 360.425 544.667 358.469 545.245C356.513 545.82 354.378 546.076 352.064 546.008L351.227 553.969L345.162 553.157L345.994 545.235C343.908 544.713 341.922 543.92 340.035 542.855C338.148 541.791 336.521 540.404 335.154 538.693C333.786 536.982 332.765 534.917 332.091 532.502C331.416 530.086 331.247 527.278 331.583 524.08L342.608 525.554C342.409 527.45 342.478 529.061 342.816 530.388C343.153 531.72 343.676 532.817 344.384 533.684C345.093 534.547 345.933 535.203 346.906 535.645C347.878 536.083 348.885 536.375 349.928 536.515C351.123 536.674 352.191 536.641 353.13 536.417C354.069 536.19 354.876 535.81 355.551 535.281C356.226 534.749 356.76 534.083 357.154 533.284C357.547 532.486 357.796 531.593 357.9 530.606Z" fill="#FFA412"/>
<path d="M392.114 734.917C392.114 734.917 387.717 746.365 377.564 744.261C377.564 744.261 356.849 724.95 342.64 704.889C338.025 698.373 334.096 691.779 331.787 685.744C322.364 661.115 296.932 624.386 280.762 605.77L321.218 589.248C321.218 589.248 334.176 618.675 351.418 654.816C363.843 680.861 378.49 710.392 392.114 734.917Z" fill="#2B478B"/>
<path d="M351.418 654.816L342.64 704.888C338.025 698.372 334.096 691.778 331.787 685.743C322.364 661.114 296.932 624.385 280.762 605.769L321.218 589.247C321.218 589.247 334.176 618.674 351.418 654.816Z" fill="#233862"/>
<path d="M318.349 744.663C318.349 744.663 317.908 753.799 327.717 755.017C327.717 755.017 333.788 755.195 333.804 761.007L304.263 760.997C304.263 760.997 304.001 758.621 303.8 753.598C303.646 749.741 307.112 739.657 307.112 739.657L318.349 744.663Z" fill="#204272"/>
<path d="M307.948 589.248C307.948 589.248 325.971 611.604 337.411 651.878C343.636 673.793 326.002 728.885 322.565 748.027C322.565 748.027 310.736 749.16 302.648 745.631C302.648 745.631 302.033 706.093 306.763 675.621C309.41 658.569 283.034 639.148 271.508 608.334C263.667 587.371 273.205 587.725 284.928 587.222L307.948 589.248Z" fill="#2B478B"/>
<path d="M287.143 489.513C277.116 495.903 256.588 490.01 256.588 490.01C256.588 490.01 264.924 479.251 261.136 461.923L269.009 466.436L277.466 471.287C277.466 471.287 278.013 474.345 278.393 479.842C278.49 481.257 278.576 482.838 278.636 484.565C283.785 486.328 287.143 489.513 287.143 489.513Z" fill="#FFB07B"/>
<path d="M323.912 588.094C323.912 590.084 321.881 591.035 321.45 591.133C317.406 591.967 306.113 596.925 295.94 598.061C287.375 599.074 279.422 598.113 270.685 596.133C269.528 595.87 266.812 595.045 266.619 593.792C266.378 592.425 232.918 516.795 258.929 484.306C259.54 483.543 264.674 484.916 269.37 486.176C273.706 487.335 277.684 486.689 281.236 485.082L285.639 487.695C291.047 491.098 301.278 503.182 302.476 512.665C303.084 517.486 305.527 521.058 306.234 525.301C306.496 526.869 306.764 528.402 307.037 529.895C307.57 532.827 308.119 535.612 308.684 538.265C310.214 545.437 311.829 551.612 313.415 556.946C315.102 562.608 316.757 567.319 318.236 571.257C320.154 576.367 321.774 580.185 322.787 583.11C323.502 585.169 323.912 586.782 323.912 588.094Z" fill="#90CAF9"/>
<path d="M322.787 583.11C275.555 557.991 259.197 509.756 259.197 509.756C259.197 509.756 297.572 525.736 307.037 529.895C307.57 532.827 308.12 535.612 308.684 538.265C310.214 545.437 311.829 551.612 313.415 556.946C315.102 562.608 316.758 567.319 318.236 571.257C320.154 576.367 321.774 580.185 322.787 583.11Z" fill="#83B8E2"/>
<path d="M350.421 568.553L354.503 570.244C354.503 570.244 362.676 563.718 367.765 574.328C367.765 574.328 369.606 578.965 366.692 579.971C363.778 580.977 364.838 580.029 360.742 581.568C356.647 583.11 352.613 582 351.066 578.698L348.292 576.4L350.421 568.553Z" fill="#FFB07B"/>
<path d="M353.78 575.068C355.289 570.624 355.978 568.611 355.978 568.611C355.978 568.611 325.137 540.235 321.995 537.801C319.854 536.141 298.536 518.155 288.143 504.136C282.987 497.182 274.858 494.004 266.996 495.864L260.521 497.396C252.704 499.247 250.164 510.415 256.229 516.285C273.307 532.814 302.114 551.982 307.485 555.969C320.818 565.868 350.309 579.737 350.309 579.737C350.309 579.737 352.595 578.559 353.78 575.068Z" fill="#90CAF9"/>
<path d="M278.393 479.842C268.532 480.465 262.12 471.277 262.12 471.277C262.12 471.277 266.578 468.488 269.009 466.436L277.466 471.287C277.466 471.287 278.013 474.345 278.393 479.842Z" fill="#EA8E50"/>
<path d="M282.594 468.414C282.594 468.414 267.653 480.517 261.12 469.898C254.586 459.278 248.257 453.69 257.52 445.512C266.783 437.337 271.149 439.918 274.094 442.866C277.039 445.811 286.312 464.992 282.594 468.414Z" fill="#FFB07B"/>
<path d="M275.672 433.276C275.136 429.195 273.931 426.321 273.931 426.321C273.931 426.321 272.994 430.704 265.896 430.101C258.798 429.497 247.548 430.889 243.798 440.019C243.56 440.6 243.347 441.197 243.158 441.811C242.479 439.785 242.316 436.753 242.316 436.753C240.967 440.681 242.316 445.6 242.316 445.6H242.316C242.296 445.743 242.279 445.886 242.261 446.028C240.694 447.525 239.379 452.171 239.379 452.171C239.851 450.876 241.004 450.032 242.032 449.509C242 456.612 244.553 463.56 249.032 465.628C255.584 468.651 255.531 466.343 262.12 471.277C262.12 471.277 263.887 468.803 262.682 467.138C261.476 465.476 256.923 463.057 259.467 460.638C262.012 458.219 262.949 460.94 263.887 459.278C264.824 457.616 260.137 452.778 266.164 448.243C272.19 443.707 276.208 437.357 275.672 433.276Z" fill="#233862"/>
<path d="M829.184 553.008C829.184 553.008 830.219 553.813 830.607 555.563C830.906 556.903 830.599 558.975 830.507 560.621C830.308 564.127 834.605 569.276 837.381 571.068C840.159 572.861 837.381 563.604 837.381 561.368C837.381 559.127 838.174 557.485 835.928 552.41C833.679 547.336 829.184 553.008 829.184 553.008Z" fill="#FFB27D"/>
<path d="M766.526 467.31C765.706 455.531 777.04 447.457 785.991 453.583C786.175 453.71 786.356 453.836 786.534 453.966C799.934 463.703 825.666 503.295 829.477 511.175C833.449 519.382 838.698 554.436 838.698 554.436C838.698 554.436 831.442 557.433 828.048 554.326C828.048 554.326 816.693 523.928 812.523 518.714C808.125 513.217 767.457 487.842 767.072 477.076C766.968 474.228 766.767 470.806 766.526 467.31Z" fill="#ED7D2B"/>
<path d="M847.43 733.212C847.43 733.212 852.831 738.777 851.778 742.732C850.723 746.686 845.848 749.322 845.189 754.156C844.531 758.987 841.896 761.624 839.523 761.624C837.151 761.624 828.215 761.624 828.215 761.624C828.215 761.624 826.469 758.224 830.685 757.199C834.901 756.173 836.492 750.494 836.23 745.222C835.966 739.949 836.624 732.92 836.624 732.92L845.583 730.576L847.43 733.212Z" fill="#224275"/>
<path d="M781.151 747.605C781.151 747.605 782.12 760.273 779.75 761.591L749.396 761.52C749.396 761.52 749.396 757.565 754.271 756.686C759.146 755.809 767.711 752.585 769.16 745.41C770.61 738.232 781.151 747.605 781.151 747.605Z" fill="#224275"/>
<path d="M755.525 568.69C755.525 568.69 757.127 590.894 759.007 617.581C761.564 653.833 764.639 698.363 764.944 706.801C765.47 721.45 767.581 744.881 767.581 744.881C767.581 744.881 772.585 750.449 782.603 748.102C782.603 748.102 791.527 714.652 794.078 679.26C794.119 678.679 794.156 678.095 794.196 677.51C796.569 641.483 800.256 565.615 800.256 565.615L755.525 568.69Z" fill="#90CAF9"/>
<path d="M755.525 568.689C755.525 568.689 757.127 590.893 759.007 617.58L794.078 679.259C794.119 678.678 794.156 678.094 794.196 677.509C796.569 641.481 800.256 565.614 800.256 565.614L755.525 568.689Z" fill="#83B8E2"/>
<path d="M762.836 571.326C762.836 571.326 791.691 651.732 810.668 689.519C829.641 727.307 835.569 737.852 835.569 737.852C835.569 737.852 846.441 733.018 847.43 729.722C847.43 729.722 840.173 656.774 827.467 638.992C820.285 628.944 811.853 598.789 811.456 588.244C811.062 577.699 808.887 556.827 808.887 556.827L762.836 571.326Z" fill="#90CAF9"/>
<path d="M787.717 450.714C787.717 450.714 768.383 461.781 757.06 458.09C757.06 458.09 758.613 455.788 761.455 453.347C763.278 451.779 764.225 449.223 763.862 446.665C763.75 445.87 763.652 445.12 763.575 444.418C763.022 440.1 763.106 437.003 763.106 437.003L770.394 430.789L777.423 424.231C777.176 442.237 787.717 450.714 787.717 450.714Z" fill="#FFB27D"/>
<path d="M806.923 563.189C799.115 568.523 791.726 572.533 783.078 574.786C772.876 577.516 760.339 576.711 756.143 577.432C755.712 577.497 755.303 577.37 754.921 577.081C754.59 576.89 752.741 562.845 750.886 545.115C750.802 544.401 750.716 543.68 750.681 542.959L750.655 542.722C749.934 535.791 749.301 528.509 748.751 521.213C748.306 515.535 747.938 509.918 747.682 504.643C747.362 498.042 747.227 491.981 747.362 486.994C747.42 484.715 747.538 482.663 747.719 480.884C748.823 470.53 752.66 463.096 756.781 457.586L761.541 453.271C765.508 453.554 768.746 452.668 772.565 449.82C776.742 446.72 781.245 443.382 782.097 443.941C788.496 447.892 793.705 458.132 797.426 471.657C799.56 479.442 801.197 488.276 802.244 497.633C802.583 500.536 802.868 503.513 803.086 506.48C803.13 507.029 803.167 507.578 803.204 508.117C803.708 516.223 804.527 523.824 805.436 530.609C806.659 539.761 808.051 547.427 809.034 552.826C809.529 555.572 809.906 557.696 810.13 559.218C810.328 560.546 807.973 562.449 806.923 563.189Z" fill="#F99746"/>
<path d="M777.673 431.108C777.673 431.108 772.919 441.37 763.575 444.419C762.732 438.974 762.979 430.419 762.979 430.419L770.394 430.789L777.673 431.108Z" fill="#ED985F"/>
<path d="M757.503 432.91C757.503 432.91 774.97 440.974 779.241 428.822C783.512 416.667 788.643 409.521 777.67 403.859C766.698 398.194 762.887 401.869 760.575 405.534C758.26 409.2 753.068 430.498 757.503 432.91Z" fill="#FFB27D"/>
<path d="M790.897 405.707C791.107 405.535 791.522 405.463 792.379 405.629C792.379 405.629 791.801 404.976 790.9 404.717C790.995 403.343 790.849 400.83 788.939 399.733C788.939 399.733 789.894 400.671 789.75 402.119C787.958 398.791 783.339 395.509 769.174 393.136C750.506 390.009 753.848 404.83 755.901 407.025C757.952 409.223 764.809 406.44 769.151 407.986C773.491 409.531 772.864 416.963 774.162 418.343C775.462 419.722 775.226 417.817 777.469 417.31C779.71 416.8 779.129 420.648 778.038 422.966C776.948 425.281 779.074 429.261 779.074 429.261C779.074 429.261 779.074 429.261 782.591 426.566C786.109 423.872 791.723 410.051 791.07 406.622C791.013 406.32 790.958 406.015 790.897 405.707Z" fill="#2C3A64"/>
<path d="M780.132 488.146C780.132 488.146 764.38 501.678 747.682 504.642C747.362 498.042 747.227 491.981 747.362 486.994L780.132 488.146Z" fill="#ED7D2B"/>
<path d="M686.91 441.438C686.752 441.068 686.861 428.416 681.325 427.403C677.712 426.744 668.351 423.923 668.44 429.598C668.474 431.828 680.191 445.594 680.191 445.594L686.91 441.438Z" fill="#FFB27D"/>
<path d="M783.452 466.121C790.44 474.916 785.781 489.104 775.375 490.374C775.163 490.4 774.95 490.422 774.734 490.442C758.852 491.896 713.663 477.29 707.411 473.384C697.031 466.904 679.234 446.401 679.234 446.401C679.234 446.401 683.387 439.045 687.756 439.187C687.756 439.187 711.578 456.317 720.109 458.368C725.864 459.748 771.662 450.453 777.763 458.742C779.373 460.93 781.378 463.511 783.452 466.121Z" fill="#F99746"/>
<path d="M837.249 556.235C837.249 556.235 838.097 558.345 838.698 559.985C839.299 561.627 839.63 564.689 839.167 564.39C838.704 564.092 837.05 561.91 836.524 560.8C835.995 559.686 837.249 556.235 837.249 556.235Z" fill="#FFB27D"/>
<mask id="mask0_2_1778" style="mask-type:luminance" maskUnits="userSpaceOnUse" x="448" y="518" width="39" height="86">
<path d="M486.257 603.1C474.867 572.718 448.468 533.635 448.163 524.369C448.16 524.275 448.157 524.184 448.157 524.093C448.091 520.506 450.688 518.146 453.36 518.146C454.732 518.146 456.124 518.766 457.185 520.162C480.763 551.161 486.257 603.1 486.257 603.1Z" fill="white"/>
</mask>
<g mask="url(#mask0_2_1778)">
<path d="M448.091 603.1H486.257V518.146H448.091V603.1Z" fill="#DCE9FA"/>
</g>
<path d="M489.121 617.969C465.701 584.552 420.943 546.115 417.745 534.697C416.546 530.415 417.026 527.671 418.096 525.918C419.117 524.236 420.791 523.356 422.499 523.356C423.532 523.356 424.576 523.678 425.496 524.337C465.626 553.05 489.121 617.969 489.121 617.969Z" fill="#DCE9FA"/>
<path d="M524.52 746.712C524.023 745.592 523.499 744.514 522.944 743.495L522.933 743.475L522.91 743.43C522.539 742.8 522.01 741.907 521.351 740.816L521.348 740.813L521.345 740.806C519.755 738.401 518.656 736.608 517.934 735.3L517.928 735.287C513.108 727.697 506.335 717.905 502.559 716.301C498.469 733.096 467.735 742.167 448.255 742.167C447.493 742.167 446.751 742.154 446.026 742.124C426.759 741.388 433.981 733.904 442.558 722.356C451.134 710.811 472.524 709.314 478.161 704.35C481.868 701.087 478.969 699.091 473.067 699.091C469.993 699.091 466.104 699.629 461.911 700.815C449.659 704.275 445.563 719.479 425.836 725.486C424.447 725.908 423.046 726.102 421.649 726.106C403.161 726.106 384.418 691.847 384.418 691.847C385.505 692.01 386.641 692.088 387.811 692.088C402.37 692.088 422.532 680.234 422.664 675.079C422.701 673.569 420.038 673.023 416.017 673.023C410.849 673.023 403.44 673.919 396.629 674.816C389.822 675.712 383.612 676.608 380.848 676.608C380.584 676.608 380.351 676.601 380.152 676.585C374.18 676.066 362.206 665.056 364.515 637.996C366.717 612.198 403.081 611.594 406.463 611.594C406.63 611.594 406.713 611.597 406.713 611.597C406.713 611.597 439.475 651.44 447.479 651.44C447.519 651.44 447.556 651.44 447.594 651.44C455.397 651.05 425.264 610.808 425.264 610.808C427.36 610.166 430.004 609.893 432.989 609.893C450.732 609.893 480.623 619.591 480.623 619.591C480.623 619.591 485.935 670.41 493.148 670.41C493.321 670.41 493.493 670.381 493.666 670.319C501.144 667.777 486.605 623.431 486.605 623.431C501.658 625.535 517.868 641.83 517.868 641.83C539.206 669.342 506.807 698.85 506.807 698.85C506.807 698.85 509.09 717.265 522.283 736.362C522.283 736.362 525.13 739.806 528.423 745.962L524.52 746.712ZM503.091 714.119C502.921 714.817 502.746 715.541 502.559 716.301C502.559 716.301 502.886 715.535 503.091 714.119Z" fill="#CDE0FB"/>
<path d="M686.473 700.794C685.48 700.794 684.342 700.736 683.047 700.612C668.911 699.272 645.483 689.392 643.714 676.227C640.835 677.029 635.135 683.525 631.03 688.6L631.025 688.61C630.398 689.493 629.457 690.697 628.111 692.301L628.108 692.304L628.105 692.308C627.542 693.038 627.087 693.642 626.768 694.064L626.748 694.093L626.739 694.106C626.253 694.801 625.79 695.535 625.342 696.304L622.543 695.376C625.422 691.2 627.766 688.96 627.766 688.96C638.868 676.295 641.948 663.062 641.948 663.062C641.948 663.062 620.533 638.339 638.232 620.317C638.232 620.317 651.324 609.989 662.483 609.925C662.483 609.925 648.465 640.907 653.734 643.495C653.907 643.579 654.079 643.621 654.258 643.621C659.524 643.618 667.151 607.697 667.151 607.697C667.151 607.697 682.639 604.837 695.325 604.837C700.537 604.837 705.277 605.321 708.273 606.684C708.273 606.684 683.174 633.148 688.846 634.193C688.958 634.212 689.076 634.222 689.202 634.222C695.573 634.222 721.768 609.067 721.768 609.067C721.768 609.067 750.966 612.476 750.581 632.476C750.201 652.189 740.877 659.153 736.393 659.15C736.327 659.15 736.264 659.15 736.2 659.147C732.599 658.978 714.42 652.848 707.727 652.848C706.231 652.848 705.311 653.153 705.254 653.9C704.931 657.955 720.859 669.886 731.673 669.886C731.754 669.886 731.834 669.883 731.915 669.883C731.915 669.883 716.795 691.382 703.614 691.382C702.064 691.382 700.543 691.087 699.076 690.421C685.121 684.11 683.292 672.601 674.603 668.877C670.683 667.195 667.065 666.383 664.617 666.383C661.646 666.383 660.407 667.581 662.457 669.873C666.199 674.052 681.713 677.23 687.097 686.506C691.986 694.928 696.315 700.794 686.473 700.794ZM643.495 674.581C643.533 675.633 643.714 676.227 643.714 676.227C643.639 675.652 643.564 675.107 643.495 674.581Z" fill="#CDE0FB"/>
<path d="M462.88 629.336V654.643C462.88 659.487 459.207 663.451 454.72 663.451H437.927C433.44 663.451 429.767 659.487 429.767 654.643V629.336C429.767 624.489 433.44 620.524 437.927 620.524H454.72C459.207 620.524 462.88 624.489 462.88 629.336Z" fill="#ED7D2B"/>
<path d="M462.88 629.336V643.433C462.88 648.277 459.207 652.244 454.72 652.244H437.927C433.44 652.244 429.767 648.277 429.767 643.433V629.336C429.767 624.489 433.44 620.524 437.927 620.524H454.72C459.207 620.524 462.88 624.489 462.88 629.336Z" fill="#F99746"/>
<path d="M648.977 641.989C648.977 654.936 646.524 667.303 642.094 678.556C628.804 712.33 597.731 736.17 561.748 736.17H536.812C535.317 736.17 533.833 736.131 532.354 736.05C514.08 735.044 497.249 727.891 483.599 716.479C474.856 709.178 467.418 700.116 461.752 689.815C454.033 675.773 449.589 659.417 449.589 641.989C449.589 629.035 452.04 616.681 456.472 605.419C469.756 571.648 500.833 547.808 536.812 547.808H561.748C594.469 547.808 623.132 567.524 638.051 596.494C645.005 610 648.977 625.522 648.977 641.989Z" fill="#ED7D2B"/>
<path d="M576.511 696.185L568.375 753.228C567.293 757.647 570.379 761.974 574.613 761.974H595.994C600.578 761.974 604.777 759.208 606.877 754.809L640.11 683.237L576.511 696.185Z" fill="#ED7D2B"/>
<path d="M528.112 761.974H506.731C502.147 761.974 497.948 759.211 495.848 754.809L475.296 715.629L461.752 689.815L527.827 697.165L530.215 717.671L532.354 736.05L534.353 753.228C535.432 757.65 532.346 761.974 528.112 761.974Z" fill="#ED7D2B"/>
<path d="M635.845 631.099C618.24 685.769 601.579 714.999 534.094 717.541C532.786 717.593 531.492 717.635 530.215 717.671C510.951 718.242 495.296 717.515 483.599 716.479C480.565 716.213 477.795 715.921 475.296 715.629L461.752 689.815C454.033 675.773 449.589 659.417 449.589 641.989C449.589 629.035 452.04 616.681 456.472 605.419C469.756 571.647 500.833 547.807 536.812 547.807H561.748C594.469 547.807 623.132 567.524 638.051 596.494C640.119 607.357 638.491 622.882 635.845 631.099Z" fill="#F99746"/>
<path d="M526.53 571.403H492.222C488.762 571.403 485.957 569.133 485.957 566.338V515.759C485.957 514.899 486.211 514.11 486.645 513.431C488.322 510.801 492.731 509.717 496.012 511.723C509.038 519.697 530.379 537.021 532.78 565.991C533.022 568.919 530.154 571.403 526.53 571.403Z" fill="#F99746"/>
<path d="M493.616 571.403H492.222C488.762 571.403 485.957 569.133 485.957 566.338V515.759C485.957 514.899 486.211 514.11 486.645 513.431C486.792 513.568 486.932 513.714 487.068 513.876C494.52 522.833 505.262 540.433 502.233 565.085C501.793 568.669 498.072 571.403 493.616 571.403Z" fill="#ED7D2B"/>
<path d="M475.534 605.213C475.534 602.165 477.824 599.694 480.645 599.694C483.47 599.694 485.759 602.165 485.759 605.213C485.759 608.262 483.47 610.733 480.645 610.733C477.824 610.733 475.534 608.262 475.534 605.213Z" fill="#2B478B"/>
<path d="M578.548 752.945V758.841C578.548 759.312 578.697 759.747 578.959 760.111C579.229 760.494 579.623 760.796 580.083 760.961C580.224 761.017 580.371 761.056 580.521 761.078C580.659 761.104 580.8 761.117 580.943 761.117H680.056C681.336 761.117 682.389 760.156 682.452 758.958C682.455 758.922 682.455 758.88 682.455 758.841V752.945C682.455 752.906 682.455 752.868 682.452 752.829C682.389 751.631 681.336 750.67 680.056 750.67H580.943C580.8 750.67 580.659 750.683 580.521 750.709C580.371 750.731 580.224 750.77 580.083 750.825C579.623 750.994 579.229 751.293 578.959 751.676C578.697 752.04 578.548 752.475 578.548 752.945Z" fill="#FFC76C"/>
<path d="M627.217 761.117H680.315C681.454 761.117 682.394 760.156 682.452 758.958C682.455 758.922 682.455 758.88 682.455 758.841V752.945C682.455 752.906 682.455 752.868 682.452 752.829C682.394 751.631 681.454 750.67 680.315 750.67H633.737C632.992 753.747 631.261 757.997 627.217 761.117Z" fill="#FFAE39"/>
<path d="M590.607 761.117H591.735V750.673H590.607V761.117Z" fill="#FFA412"/>
<path d="M594.421 761.117H595.545V750.673H594.421V761.117Z" fill="#FFA412"/>
<path d="M598.994 761.117H600.118V750.673H598.994V761.117Z" fill="#FFA412"/>
<path d="M606.003 761.117H607.127V750.673H606.003V761.117Z" fill="#FFA412"/>
<path d="M613.412 761.117H614.539V750.673H613.412V761.117Z" fill="#FFA412"/>
<path d="M624.775 761.117H625.902V750.673H624.775V761.117Z" fill="#FFA412"/>
<path d="M635.414 761.117H636.541V750.673H635.414V761.117Z" fill="#FFA412"/>
<path d="M644.913 761.117H646.041V750.673H644.913V761.117Z" fill="#FFA412"/>
<path d="M586.978 761.117H588.105V750.673H586.978V761.117Z" fill="#FFA412"/>
<path d="M584.579 761.117H585.706V750.673H584.579V761.117Z" fill="#FFA412"/>
<path d="M582.264 761.117H583.391V750.673H582.264V761.117Z" fill="#FFA412"/>
<path d="M580.521 750.709V761.078C580.659 761.104 580.8 761.117 580.944 761.117H581.648V750.67H580.944C580.8 750.67 580.659 750.683 580.521 750.709Z" fill="#FFA412"/>
<path d="M578.959 751.676V760.111C579.229 760.494 579.623 760.796 580.083 760.961V750.825C579.623 750.994 579.229 751.293 578.959 751.676Z" fill="#FFA412"/>
<path d="M589.143 742.501V748.397C589.143 748.868 589.296 749.303 589.554 749.666C589.828 750.049 590.219 750.348 590.679 750.517C590.82 750.572 590.967 750.611 591.119 750.634C591.257 750.66 591.398 750.67 591.542 750.67H690.655C691.932 750.67 692.984 749.712 693.05 748.514C693.05 748.475 693.053 748.436 693.053 748.397V742.501C693.053 742.459 693.05 742.42 693.05 742.384C692.984 741.186 691.932 740.225 690.655 740.225H591.542C591.479 740.225 591.415 740.228 591.352 740.235C591.326 740.235 591.297 740.238 591.271 740.241C591.243 740.245 591.211 740.248 591.182 740.254L591.119 740.264C590.967 740.287 590.82 740.326 590.679 740.381L590.619 740.404L590.555 740.43C590.518 740.446 590.475 740.465 590.435 740.485L590.366 740.521L590.305 740.553C590.268 740.576 590.23 740.599 590.193 740.621C590.15 740.65 590.11 740.68 590.069 740.709C590.038 740.732 590.009 740.754 589.977 740.78L589.971 740.787L589.911 740.836C589.851 740.891 589.79 740.946 589.739 741.008L589.69 741.06L589.644 741.115C589.612 741.154 589.583 741.193 589.554 741.232C589.296 741.592 589.143 742.03 589.143 742.501Z" fill="#FFC76C"/>
<path d="M637.812 750.67H690.911C692.052 750.67 692.99 749.712 693.05 748.514C693.05 748.475 693.053 748.436 693.053 748.397V742.501C693.053 742.459 693.05 742.42 693.05 742.384C692.99 741.186 692.052 740.225 690.911 740.225H644.335C644.315 740.313 644.292 740.397 644.269 740.485C643.493 743.533 641.747 747.64 637.812 750.67Z" fill="#FFAE39"/>
<path d="M601.203 750.67H602.33V740.225H601.203V750.67Z" fill="#FFA412"/>
<path d="M605.016 750.67H606.144V740.225H605.016V750.67Z" fill="#FFA412"/>
<path d="M609.589 750.67H610.717V740.225H609.589V750.67Z" fill="#FFA412"/>
<path d="M616.598 750.67H617.726V740.225H616.598V750.67Z" fill="#FFA412"/>
<path d="M624.01 750.67H625.137V740.225H624.01V750.67Z" fill="#FFA412"/>
<path d="M635.373 750.67H636.498V740.225H635.373V750.67Z" fill="#FFA412"/>
<path d="M646.012 750.67H647.137V740.225H646.012V750.67Z" fill="#FFA412"/>
<path d="M655.509 750.67H656.636V740.225H655.509V750.67Z" fill="#FFA412"/>
<path d="M597.573 750.67H598.701V740.225H597.573V750.67Z" fill="#FFA412"/>
<path d="M595.177 750.67H596.302V740.225H595.177V750.67Z" fill="#FFA412"/>
<path d="M592.862 750.67H593.987V740.225H592.862V750.67Z" fill="#FFA412"/>
<path d="M591.119 740.261V750.634C591.257 750.657 591.398 750.67 591.542 750.67H592.247V740.225H591.542C591.398 740.225 591.257 740.238 591.119 740.261Z" fill="#FFA412"/>
<path d="M589.555 741.228V749.666C589.828 750.049 590.219 750.348 590.679 750.517V740.378C590.219 740.547 589.828 740.849 589.555 741.228Z" fill="#FFA412"/>
<path d="M584.024 732.313V738.212C584.024 738.68 584.173 739.118 584.435 739.478C584.705 739.862 585.099 740.163 585.559 740.329C585.7 740.384 585.847 740.423 585.997 740.446C586.135 740.472 586.276 740.485 586.419 740.485H685.532C685.932 740.485 686.309 740.391 686.639 740.225C687.341 739.878 687.842 739.209 687.919 738.43C687.925 738.394 687.928 738.362 687.928 738.329C687.931 738.29 687.931 738.251 687.931 738.212V732.313C687.931 732.274 687.931 732.235 687.928 732.196C687.865 730.998 686.812 730.04 685.532 730.04H586.419C586.276 730.04 586.135 730.05 585.997 730.076C585.847 730.102 585.7 730.138 585.559 730.193C585.099 730.362 584.705 730.661 584.435 731.044C584.173 731.407 584.024 731.842 584.024 732.313Z" fill="#FFC76C"/>
<path d="M632.693 740.485H685.791C686.145 740.485 686.481 740.391 686.778 740.225C687.405 739.878 687.85 739.209 687.919 738.43C687.925 738.394 687.928 738.362 687.928 738.329C687.931 738.29 687.931 738.251 687.931 738.212V732.313C687.931 732.274 687.931 732.235 687.928 732.196C687.87 730.998 686.93 730.04 685.791 730.04H639.213C638.488 733.031 636.829 737.134 633.018 740.225C632.911 740.313 632.802 740.397 632.693 740.485Z" fill="#FFAE39"/>
<path d="M596.083 740.485H597.211V730.04H596.083V740.485Z" fill="#FFA412"/>
<path d="M599.897 740.485H601.022V730.04H599.897V740.485Z" fill="#FFA412"/>
<path d="M604.47 740.485H605.595V730.04H604.47V740.485Z" fill="#FFA412"/>
<path d="M611.476 740.485H612.603V730.04H611.476V740.485Z" fill="#FFA412"/>
<path d="M618.888 740.485H620.015V730.04H618.888V740.485Z" fill="#FFA412"/>
<path d="M630.251 740.485H631.378V730.04H630.251V740.485Z" fill="#FFA412"/>
<path d="M640.89 740.485H642.017V730.04H640.89V740.485Z" fill="#FFA412"/>
<path d="M650.389 740.485H651.517V730.04H650.389V740.485Z" fill="#FFA412"/>
<path d="M592.454 740.485H593.581V730.04H592.454V740.485Z" fill="#FFA412"/>
<path d="M590.055 740.485H591.182V730.04H590.055V740.485Z" fill="#FFA412"/>
<path d="M587.74 740.485H588.867V730.04H587.74V740.485Z" fill="#FFA412"/>
<path d="M585.997 730.076V740.446C586.135 740.472 586.276 740.485 586.42 740.485H587.124V730.04H586.42C586.276 730.04 586.135 730.05 585.997 730.076Z" fill="#FFA412"/>
<path d="M584.435 731.044V739.478C584.705 739.862 585.099 740.163 585.56 740.329V730.193C585.099 730.362 584.705 730.661 584.435 731.044Z" fill="#FFA412"/>
<path d="M581.648 721.869V727.764C581.648 728.235 581.801 728.67 582.059 729.034C582.333 729.417 582.724 729.716 583.184 729.885C583.325 729.94 583.472 729.979 583.624 730.001C583.762 730.027 583.903 730.04 584.047 730.04H683.159C684.436 730.04 685.489 729.079 685.555 727.881C685.555 727.842 685.558 727.803 685.558 727.764V721.869C685.558 721.83 685.555 721.791 685.555 721.752C685.495 720.645 684.589 719.739 683.444 719.609C683.349 719.599 683.257 719.593 683.159 719.593H584.047C583.903 719.593 583.762 719.606 583.624 719.632C583.472 719.654 583.325 719.693 583.184 719.749C582.724 719.914 582.333 720.216 582.059 720.599C581.801 720.963 581.648 721.398 581.648 721.869Z" fill="#FFC76C"/>
<path d="M630.317 730.04H683.415C684.557 730.04 685.495 729.079 685.555 727.881C685.555 727.842 685.558 727.803 685.558 727.764V721.869C685.558 721.83 685.555 721.791 685.555 721.752C685.5 720.645 684.692 719.739 683.668 719.609C683.588 719.599 683.502 719.593 683.415 719.593H636.84L636.834 719.609C636.089 722.684 634.355 726.927 630.317 730.04Z" fill="#FFAE39"/>
<path d="M593.708 730.04H594.835V719.593H593.708V730.04Z" fill="#FFA412"/>
<path d="M597.521 730.04H598.649V719.593H597.521V730.04Z" fill="#FFA412"/>
<path d="M602.094 730.04H603.222V719.593H602.094V730.04Z" fill="#FFA412"/>
<path d="M609.103 730.04H610.231V719.593H609.103V730.04Z" fill="#FFA412"/>
<path d="M616.515 730.04H617.642V719.593H616.515V730.04Z" fill="#FFA412"/>
<path d="M627.878 730.04H629.003V719.593H627.878V730.04Z" fill="#FFA412"/>
<path d="M638.517 730.04H639.641V719.593H638.517V730.04Z" fill="#FFA412"/>
<path d="M648.014 730.04H649.141V719.593H648.014V730.04Z" fill="#FFA412"/>
<path d="M590.078 730.04H591.205V719.593H590.078V730.04Z" fill="#FFA412"/>
<path d="M587.682 730.04H588.807V719.593H587.682V730.04Z" fill="#FFA412"/>
<path d="M585.367 730.04H586.491V719.593H585.367V730.04Z" fill="#FFA412"/>
<path d="M583.624 719.628V730.001C583.762 730.027 583.903 730.037 584.047 730.037H584.751V719.593H584.047C583.903 719.593 583.762 719.606 583.624 719.628Z" fill="#FFA412"/>
<path d="M582.059 720.599V729.034C582.333 729.417 582.724 729.716 583.184 729.885V719.745C582.724 719.914 582.333 720.216 582.059 720.599Z" fill="#FFA412"/>
<path d="M588.936 711.44V717.336C588.936 717.807 589.086 718.242 589.347 718.606C589.621 718.989 590.012 719.287 590.472 719.456C590.613 719.508 590.76 719.547 590.909 719.573C590.958 719.583 591.004 719.589 591.05 719.593C591.076 719.596 591.102 719.599 591.128 719.602C591.154 719.606 591.18 719.606 591.205 719.606C591.249 719.609 591.292 719.609 591.335 719.609H690.445C691.725 719.609 692.777 718.651 692.841 717.453C692.843 717.414 692.843 717.375 692.843 717.336V711.44C692.843 711.398 692.843 711.359 692.841 711.32C692.841 711.288 692.838 711.258 692.835 711.226C692.74 710.265 692.004 709.47 691.037 709.236L690.965 709.22C690.798 709.184 690.623 709.164 690.445 709.164H591.335C591.26 709.164 591.188 709.168 591.119 709.174C591.087 709.177 591.056 709.181 591.024 709.184H591.021C590.984 709.19 590.947 709.197 590.909 709.203C590.76 709.226 590.613 709.265 590.472 709.317C590.012 709.486 589.621 709.788 589.347 710.171C589.086 710.531 588.936 710.97 588.936 711.44Z" fill="#FFC76C"/>
<path d="M637.605 719.609H690.703C691.842 719.609 692.783 718.651 692.84 717.453C692.843 717.414 692.843 717.375 692.843 717.336V711.44C692.843 711.398 692.843 711.359 692.84 711.32C692.84 711.288 692.837 711.258 692.835 711.226C692.748 710.242 692.064 709.437 691.175 709.223C691.143 709.213 691.112 709.207 691.083 709.203C690.959 709.177 690.833 709.164 690.703 709.164H644.125L644.108 709.239C643.354 712.304 641.62 716.502 637.625 719.593L637.605 719.609Z" fill="#FFAE39"/>
<path d="M600.996 719.609H602.123V709.164H600.996V719.609Z" fill="#FFA412"/>
<path d="M604.809 719.609H605.934V709.164H604.809V719.609Z" fill="#FFA412"/>
<path d="M609.382 719.609H610.507V709.164H609.382V719.609Z" fill="#FFA412"/>
<path d="M616.391 719.609H617.516V709.164H616.391V719.609Z" fill="#FFA412"/>
<path d="M623.803 719.609H624.927V709.164H623.803V719.609Z" fill="#FFA412"/>
<path d="M635.163 719.609H636.291V709.164H635.163V719.609Z" fill="#FFA412"/>
<path d="M645.802 719.609H646.929V709.164H645.802V719.609Z" fill="#FFA412"/>
<path d="M655.302 719.609H656.429V709.164H655.302V719.609Z" fill="#FFA412"/>
<path d="M597.366 719.609H598.493V709.164H597.366V719.609Z" fill="#FFA412"/>
<path d="M594.967 719.609H596.095V709.164H594.967V719.609Z" fill="#FFA412"/>
<path d="M592.652 719.609H593.78V709.164H592.652V719.609Z" fill="#FFA412"/>
<path d="M590.909 709.2V719.573C591.047 719.596 591.188 719.609 591.335 719.609H592.037V709.164H591.335C591.188 709.164 591.047 709.177 590.909 709.2Z" fill="#FFA412"/>
<path d="M589.348 710.168V718.606C589.621 718.989 590.012 719.287 590.472 719.456V709.317C590.012 709.486 589.621 709.788 589.348 710.168Z" fill="#FFA412"/>
<path d="M589.143 701.067V706.966C589.143 707.437 589.296 707.872 589.554 708.236C589.828 708.619 590.219 708.917 590.679 709.086C590.791 709.129 590.906 709.161 591.021 709.184H591.024C591.056 709.19 591.087 709.197 591.119 709.203C591.257 709.226 591.398 709.239 591.542 709.239H690.655C690.758 709.239 690.865 709.232 690.965 709.219C691.005 709.216 691.043 709.21 691.083 709.203C692.159 709.018 692.993 708.142 693.05 707.083C693.05 707.044 693.053 707.005 693.053 706.966V701.067C693.053 701.028 693.05 700.989 693.05 700.95C692.984 699.756 691.932 698.795 690.655 698.795H591.542C591.479 698.795 591.415 698.798 591.352 698.801C591.326 698.804 591.297 698.807 591.271 698.811C591.243 698.811 591.211 698.817 591.182 698.82L591.119 698.83C590.967 698.856 590.82 698.895 590.679 698.947L590.619 698.973L590.555 698.996C590.515 699.015 590.475 699.035 590.435 699.051C590.391 699.074 590.348 699.096 590.305 699.122C590.268 699.145 590.23 699.168 590.193 699.191C590.15 699.217 590.11 699.246 590.069 699.278C590.038 699.301 590.009 699.324 589.977 699.35L589.971 699.353L589.911 699.405C589.851 699.457 589.79 699.515 589.739 699.574L589.69 699.629L589.644 699.684C589.612 699.72 589.583 699.759 589.554 699.798C589.296 700.161 589.143 700.596 589.143 701.067Z" fill="#FFC76C"/>
<path d="M637.812 709.239H690.911C690.954 709.239 690.997 709.239 691.037 709.236C691.083 709.232 691.129 709.229 691.175 709.223C692.193 709.09 692.996 708.187 693.05 707.083C693.05 707.044 693.053 707.005 693.053 706.966V701.067C693.053 701.028 693.05 700.989 693.05 700.95C692.99 699.756 692.052 698.795 690.911 698.795H644.335C644.315 698.879 644.292 698.967 644.269 699.051C643.498 702.077 641.773 706.142 637.907 709.164C637.876 709.19 637.844 709.213 637.812 709.239Z" fill="#FFAE39"/>
<path d="M601.203 709.239H602.33V698.795H601.203V709.239Z" fill="#FFA412"/>
<path d="M605.016 709.239H606.144V698.795H605.016V709.239Z" fill="#FFA412"/>
<path d="M609.589 709.239H610.717V698.795H609.589V709.239Z" fill="#FFA412"/>
<path d="M616.598 709.239H617.726V698.795H616.598V709.239Z" fill="#FFA412"/>
<path d="M624.01 709.239H625.137V698.795H624.01V709.239Z" fill="#FFA412"/>
<path d="M635.373 709.239H636.498V698.795H635.373V709.239Z" fill="#FFA412"/>
<path d="M646.012 709.239H647.137V698.795H646.012V709.239Z" fill="#FFA412"/>
<path d="M655.509 709.239H656.636V698.795H655.509V709.239Z" fill="#FFA412"/>
<path d="M597.573 709.239H598.701V698.795H597.573V709.239Z" fill="#FFA412"/>
<path d="M595.177 709.239H596.302V698.795H595.177V709.239Z" fill="#FFA412"/>
<path d="M592.862 709.239H593.987V698.795H592.862V709.239Z" fill="#FFA412"/>
<path d="M591.119 698.83V709.203C591.257 709.226 591.398 709.239 591.542 709.239H592.247V698.795H591.542C591.398 698.795 591.257 698.807 591.119 698.83Z" fill="#FFA412"/>
<path d="M589.555 699.798V708.236C589.828 708.619 590.219 708.917 590.679 709.086V698.947C590.219 699.116 589.828 699.418 589.555 699.798Z" fill="#FFA412"/>
<path d="M584.024 690.879V696.778C584.024 697.249 584.173 697.684 584.435 698.048C584.705 698.431 585.099 698.729 585.559 698.898C585.7 698.95 585.847 698.989 585.997 699.015C586.135 699.038 586.276 699.051 586.419 699.051H685.532C685.932 699.051 686.309 698.96 686.639 698.794C687.341 698.447 687.842 697.778 687.919 696.996C687.925 696.963 687.928 696.931 687.928 696.895C687.931 696.856 687.931 696.817 687.931 696.778V690.879C687.931 690.84 687.931 690.801 687.928 690.762C687.865 689.567 686.812 688.606 685.532 688.606H586.419C586.276 688.606 586.135 688.619 585.997 688.642C585.847 688.668 585.7 688.707 585.559 688.759C585.099 688.928 584.705 689.23 584.435 689.61C584.173 689.973 584.024 690.411 584.024 690.879Z" fill="#FFC76C"/>
<path d="M632.693 699.051H685.791C686.145 699.051 686.481 698.96 686.778 698.794C687.405 698.447 687.85 697.778 687.919 696.996C687.925 696.963 687.928 696.931 687.928 696.895C687.931 696.856 687.931 696.817 687.931 696.778V690.879C687.931 690.84 687.931 690.801 687.928 690.762C687.87 689.567 686.93 688.606 685.791 688.606H639.213C638.488 691.596 636.829 695.703 633.018 698.794C632.911 698.882 632.802 698.966 632.693 699.051Z" fill="#FFAE39"/>
<path d="M596.083 699.051H597.211V688.606H596.083V699.051Z" fill="#FFA412"/>
<path d="M599.897 699.051H601.022V688.606H599.897V699.051Z" fill="#FFA412"/>
<path d="M604.47 699.051H605.595V688.606H604.47V699.051Z" fill="#FFA412"/>
<path d="M611.476 699.051H612.603V688.606H611.476V699.051Z" fill="#FFA412"/>
<path d="M618.888 699.051H620.015V688.606H618.888V699.051Z" fill="#FFA412"/>
<path d="M630.251 699.051H631.378V688.606H630.251V699.051Z" fill="#FFA412"/>
<path d="M640.89 699.051H642.017V688.606H640.89V699.051Z" fill="#FFA412"/>
<path d="M650.389 699.051H651.517V688.606H650.389V699.051Z" fill="#FFA412"/>
<path d="M592.454 699.051H593.581V688.606H592.454V699.051Z" fill="#FFA412"/>
<path d="M590.055 699.051H591.182V688.606H590.055V699.051Z" fill="#FFA412"/>
<path d="M587.74 699.051H588.867V688.606H587.74V699.051Z" fill="#FFA412"/>
<path d="M585.997 688.645V699.015C586.135 699.041 586.276 699.051 586.42 699.051H587.124V688.606H586.42C586.276 688.606 586.135 688.619 585.997 688.645Z" fill="#FFA412"/>
<path d="M584.435 689.609V698.047C584.705 698.431 585.099 698.729 585.56 698.898V688.759C585.099 688.928 584.705 689.23 584.435 689.609Z" fill="#FFA412"/>
<path d="M575.925 680.434V686.334C575.925 686.804 576.074 687.239 576.333 687.603C576.606 687.986 577 688.285 577.46 688.454C577.601 688.506 577.748 688.545 577.898 688.57C578.036 688.593 578.177 688.606 578.32 688.606H677.433C678.713 688.606 679.766 687.645 679.829 686.45C679.832 686.411 679.832 686.373 679.832 686.334V680.434C679.832 680.395 679.832 680.357 679.829 680.318C679.769 679.214 678.865 678.308 677.718 678.178C677.626 678.168 677.528 678.162 677.433 678.162H578.32C578.177 678.162 578.036 678.175 577.898 678.198C577.748 678.224 577.601 678.262 577.46 678.314C577 678.483 576.606 678.785 576.333 679.165C576.074 679.529 575.925 679.964 575.925 680.434Z" fill="#FFC76C"/>
<path d="M624.594 688.606H677.692C678.831 688.606 679.771 687.645 679.829 686.45C679.832 686.411 679.832 686.373 679.832 686.334V680.434C679.832 680.395 679.832 680.357 679.829 680.318C679.777 679.214 678.969 678.308 677.945 678.178C677.862 678.168 677.778 678.162 677.692 678.162H631.114L631.108 678.178C630.363 681.253 628.629 685.493 624.594 688.606Z" fill="#FFAE39"/>
<path d="M587.984 688.606H589.109V678.162H587.984V688.606Z" fill="#FFA412"/>
<path d="M591.795 688.606H592.922V678.162H591.795V688.606Z" fill="#FFA412"/>
<path d="M596.368 688.606H597.495V678.162H596.368V688.606Z" fill="#FFA412"/>
<path d="M603.377 688.606H604.504V678.162H603.377V688.606Z" fill="#FFA412"/>
<path d="M610.789 688.606H611.916V678.162H610.789V688.606Z" fill="#FFA412"/>
<path d="M622.152 688.606H623.276V678.162H622.152V688.606Z" fill="#FFA412"/>
<path d="M632.791 688.606H633.915V678.162H632.791V688.606Z" fill="#FFA412"/>
<path d="M642.29 688.606H643.415V678.162H642.29V688.606Z" fill="#FFA412"/>
<path d="M584.354 688.606H585.479V678.162H584.354V688.606Z" fill="#FFA412"/>
<path d="M581.956 688.606H583.083V678.162H581.956V688.606Z" fill="#FFA412"/>
<path d="M579.641 688.606H580.768V678.162H579.641V688.606Z" fill="#FFA412"/>
<path d="M577.898 678.198V688.57C578.036 688.593 578.177 688.606 578.32 688.606H579.025V678.162H578.32C578.177 678.162 578.036 678.175 577.898 678.198Z" fill="#FFA412"/>
<path d="M576.333 679.165V687.603C576.606 687.986 577 688.285 577.461 688.454V678.314C577 678.483 576.606 678.785 576.333 679.165Z" fill="#FFA412"/>
<path d="M588.936 670.006V675.905C588.936 676.376 589.086 676.811 589.347 677.175C589.621 677.555 590.012 677.857 590.472 678.026C590.613 678.077 590.76 678.116 590.909 678.142C590.958 678.149 591.004 678.159 591.05 678.162C591.087 678.168 591.125 678.168 591.162 678.172L591.217 678.175C591.254 678.178 591.295 678.178 591.335 678.178H690.445C691.725 678.178 692.777 677.217 692.841 676.022C692.843 675.983 692.843 675.944 692.843 675.905V670.006C692.843 669.967 692.843 669.928 692.841 669.889C692.777 668.695 691.725 667.734 690.445 667.734H591.335C591.292 667.734 591.249 667.734 591.205 667.737C591.105 667.743 591.007 667.753 590.909 667.769C590.76 667.795 590.613 667.834 590.472 667.886C590.4 667.912 590.331 667.941 590.265 667.974C590.222 667.993 590.182 668.016 590.141 668.039L590.127 668.045C590.087 668.068 590.046 668.091 590.006 668.117L589.986 668.13C589.949 668.153 589.914 668.179 589.88 668.204C589.793 668.263 589.716 668.328 589.641 668.399L589.572 668.467L589.56 668.48L589.52 668.523L589.511 668.532L589.442 668.614C589.408 668.656 589.376 668.695 589.347 668.737C589.086 669.101 588.936 669.536 588.936 670.006Z" fill="#FFC76C"/>
<path d="M637.605 678.178H690.703C691.842 678.178 692.783 677.217 692.84 676.022C692.843 675.983 692.843 675.944 692.843 675.905V670.006C692.843 669.967 692.843 669.928 692.84 669.889C692.783 668.695 691.842 667.734 690.703 667.734H644.125C644.108 667.812 644.088 667.893 644.065 667.974C643.291 671.023 641.551 675.126 637.625 678.162L637.605 678.178Z" fill="#FFAE39"/>
<path d="M600.996 678.178H602.123V667.734H600.996V678.178Z" fill="#FFA412"/>
<path d="M604.809 678.178H605.934V667.734H604.809V678.178Z" fill="#FFA412"/>
<path d="M609.382 678.178H610.507V667.734H609.382V678.178Z" fill="#FFA412"/>
<path d="M616.391 678.178H617.516V667.734H616.391V678.178Z" fill="#FFA412"/>
<path d="M623.803 678.178H624.927V667.734H623.803V678.178Z" fill="#FFA412"/>
<path d="M635.163 678.178H636.291V667.734H635.163V678.178Z" fill="#FFA412"/>
<path d="M645.802 678.178H646.929V667.734H645.802V678.178Z" fill="#FFA412"/>
<path d="M655.302 678.178H656.429V667.734H655.302V678.178Z" fill="#FFA412"/>
<path d="M597.366 678.178H598.493V667.734H597.366V678.178Z" fill="#FFA412"/>
<path d="M594.967 678.178H596.095V667.734H594.967V678.178Z" fill="#FFA412"/>
<path d="M592.652 678.178H593.78V667.734H592.652V678.178Z" fill="#FFA412"/>
<path d="M590.909 667.769V678.142C591.047 678.165 591.188 678.178 591.335 678.178H592.037V667.734H591.335C591.188 667.734 591.047 667.747 590.909 667.769Z" fill="#FFA412"/>
<path d="M589.348 668.737V677.175C589.621 677.555 590.012 677.857 590.472 678.025V667.886C590.012 668.055 589.621 668.354 589.348 668.737Z" fill="#FFA412"/>
<path d="M581.648 659.802V665.701C581.648 666.172 581.801 666.607 582.059 666.971C582.333 667.354 582.724 667.653 583.184 667.821C583.325 667.873 583.472 667.912 583.624 667.938C583.762 667.961 583.903 667.974 584.047 667.974H683.159C683.545 667.974 683.907 667.89 684.229 667.734C684.954 667.39 685.469 666.708 685.547 665.912C685.55 665.88 685.552 665.851 685.555 665.818C685.555 665.779 685.558 665.74 685.558 665.701V659.802C685.558 659.763 685.555 659.724 685.555 659.685C685.495 658.578 684.589 657.676 683.444 657.546C683.349 657.536 683.257 657.53 683.159 657.53H584.047C583.903 657.53 583.762 657.543 583.624 657.565C583.472 657.591 583.325 657.63 583.184 657.682C582.724 657.851 582.333 658.153 582.059 658.533C581.801 658.896 581.648 659.331 581.648 659.802Z" fill="#FFC76C"/>
<path d="M630.317 667.974H683.415C683.76 667.974 684.085 667.89 684.373 667.734C685.017 667.39 685.477 666.708 685.546 665.912C685.549 665.88 685.552 665.851 685.555 665.818C685.555 665.779 685.558 665.74 685.558 665.701V659.802C685.558 659.763 685.555 659.724 685.555 659.685C685.5 658.581 684.692 657.676 683.668 657.546C683.588 657.536 683.502 657.53 683.415 657.53H636.84L636.834 657.546C636.109 660.539 634.441 664.646 630.622 667.734C630.524 667.815 630.421 667.896 630.317 667.974Z" fill="#FFAE39"/>
<path d="M593.708 667.974H594.835V657.53H593.708V667.974Z" fill="#FFA412"/>
<path d="M597.521 667.974H598.649V657.53H597.521V667.974Z" fill="#FFA412"/>
<path d="M602.094 667.974H603.222V657.53H602.094V667.974Z" fill="#FFA412"/>
<path d="M609.103 667.974H610.231V657.53H609.103V667.974Z" fill="#FFA412"/>
<path d="M616.515 667.974H617.642V657.53H616.515V667.974Z" fill="#FFA412"/>
<path d="M627.878 667.974H629.003V657.53H627.878V667.974Z" fill="#FFA412"/>
<path d="M638.517 667.974H639.641V657.53H638.517V667.974Z" fill="#FFA412"/>
<path d="M648.014 667.974H649.141V657.53H648.014V667.974Z" fill="#FFA412"/>
<path d="M590.078 667.974H591.205V657.53H590.078V667.974Z" fill="#FFA412"/>
<path d="M587.682 667.974H588.807V657.53H587.682V667.974Z" fill="#FFA412"/>
<path d="M585.367 667.974H586.491V657.53H585.367V667.974Z" fill="#FFA412"/>
<path d="M583.624 657.565V667.938C583.762 667.961 583.903 667.974 584.047 667.974H584.751V657.53H584.047C583.903 657.53 583.762 657.543 583.624 657.565Z" fill="#FFA412"/>
<path d="M582.059 658.533V666.971C582.333 667.354 582.724 667.652 583.184 667.821V657.682C582.724 657.851 582.333 658.153 582.059 658.533Z" fill="#FFA412"/>
<path d="M578.548 649.374V655.273C578.548 655.744 578.697 656.179 578.959 656.543C579.229 656.926 579.623 657.224 580.083 657.393C580.224 657.445 580.371 657.484 580.521 657.51C580.569 657.517 580.616 657.526 580.662 657.53C580.685 657.533 580.713 657.536 580.739 657.536C580.765 657.539 580.791 657.543 580.817 657.543C580.86 657.546 580.903 657.546 580.943 657.546H680.056C681.336 657.546 682.389 656.585 682.452 655.39C682.455 655.351 682.455 655.312 682.455 655.273V649.374C682.455 649.335 682.455 649.296 682.452 649.257C682.389 648.062 681.336 647.101 680.056 647.101H580.943C580.8 647.101 580.659 647.114 580.521 647.137C580.371 647.163 580.224 647.202 580.083 647.254C579.623 647.423 579.229 647.725 578.959 648.105C578.697 648.468 578.548 648.903 578.548 649.374Z" fill="#FFC76C"/>
<path d="M627.217 657.546H680.315C681.454 657.546 682.394 656.585 682.452 655.39C682.455 655.351 682.455 655.312 682.455 655.273V649.374C682.455 649.335 682.455 649.296 682.452 649.257C682.394 648.062 681.454 647.101 680.315 647.101H633.737C632.995 650.173 631.266 654.413 627.237 657.53L627.217 657.546Z" fill="#FFAE39"/>
<path d="M590.607 657.546H591.735V647.101H590.607V657.546Z" fill="#FFA412"/>
<path d="M594.421 657.546H595.545V647.101H594.421V657.546Z" fill="#FFA412"/>
<path d="M598.994 657.546H600.118V647.101H598.994V657.546Z" fill="#FFA412"/>
<path d="M606 657.546H607.127V647.101H606V657.546Z" fill="#FFA412"/>
<path d="M613.412 657.546H614.539V647.101H613.412V657.546Z" fill="#FFA412"/>
<path d="M624.775 657.546H625.902V647.101H624.775V657.546Z" fill="#FFA412"/>
<path d="M635.414 657.546H636.541V647.101H635.414V657.546Z" fill="#FFA412"/>
<path d="M644.913 647.101V657.546H646.041V647.101H644.913Z" fill="#FFA412"/>
<path d="M586.978 657.546H588.105V647.101H586.978V657.546Z" fill="#FFA412"/>
<path d="M584.579 657.546H585.706V647.101H584.579V657.546Z" fill="#FFA412"/>
<path d="M582.264 657.546H583.391V647.101H582.264V657.546Z" fill="#FFA412"/>
<path d="M580.521 647.137V657.51C580.659 657.533 580.8 657.546 580.944 657.546H581.648V647.101H580.944C580.8 647.101 580.659 647.114 580.521 647.137Z" fill="#FFA412"/>
<path d="M578.959 648.105V656.543C579.229 656.922 579.623 657.224 580.083 657.393V647.254C579.623 647.423 579.229 647.725 578.959 648.105Z" fill="#FFA412"/>
<path d="M744.958 707.522C744.958 678.156 723.868 654.349 697.853 654.349C671.839 654.349 650.749 678.156 650.749 707.522C650.749 736.888 671.839 760.695 697.853 760.695C723.868 760.695 744.958 736.888 744.958 707.522Z" fill="#E2810E"/>
<path d="M749.068 707.522C749.068 678.156 727.978 654.349 701.963 654.349C675.949 654.349 654.859 678.156 654.859 707.522C654.859 736.888 675.949 760.695 701.963 760.695C727.978 760.695 749.068 736.888 749.068 707.522Z" fill="#FFC76C"/>
<path d="M661.606 708.148C661.606 733.271 679.711 753.705 701.963 753.705C724.216 753.705 742.321 733.271 742.321 708.148C742.321 683.029 724.216 662.592 701.963 662.592C679.711 662.592 661.606 683.029 661.606 708.148ZM671.615 742.407C663.51 733.255 659.047 721.089 659.047 708.148C659.047 695.207 663.51 683.042 671.615 673.893C679.723 664.741 690.499 659.702 701.963 659.702C713.428 659.702 724.204 664.741 732.309 673.893C740.417 683.042 744.88 695.207 744.88 708.148C744.88 721.089 740.417 733.255 732.309 742.407C724.204 751.556 713.428 756.595 701.963 756.595C690.499 756.595 679.723 751.556 671.615 742.407Z" fill="#FFA412"/>
<path d="M707.885 722.21C707.995 721.164 707.96 720.229 707.785 719.398C707.606 718.567 707.255 717.788 706.729 717.061C706.206 716.337 705.504 715.635 704.624 714.963C703.744 714.291 702.657 713.603 701.36 712.898C699.131 711.668 697.12 710.418 695.328 709.158C693.537 707.895 692.032 706.516 690.819 705.016C689.605 703.516 688.719 701.834 688.155 699.967C687.595 698.1 687.442 695.948 687.698 693.513C687.92 691.396 688.455 689.513 689.303 687.86C690.151 686.208 691.259 684.818 692.628 683.689C693.997 682.562 695.584 681.708 697.391 681.13C699.194 680.552 701.178 680.293 703.335 680.358L704.175 672.371L709.87 673.134L709.019 681.231C711.026 681.802 712.812 682.659 714.377 683.802C715.941 684.945 717.227 686.328 718.234 687.951C719.243 689.575 719.956 691.432 720.373 693.516C720.79 695.604 720.871 697.893 720.609 700.379L710.324 699.003C710.638 696.016 710.287 693.704 709.269 692.068C708.248 690.432 706.755 689.481 704.785 689.214C703.718 689.071 702.78 689.117 701.975 689.351C701.17 689.581 700.485 689.958 699.927 690.474C699.366 690.993 698.926 691.636 698.604 692.399C698.285 693.162 698.075 694.006 697.98 694.925C697.882 695.847 697.914 696.695 698.072 697.474C698.23 698.253 698.567 698.996 699.082 699.711C699.597 700.422 700.304 701.123 701.207 701.811C702.107 702.499 703.24 703.236 704.601 704.025C706.798 705.301 708.788 706.577 710.569 707.85C712.346 709.123 713.842 710.515 715.055 712.028C716.266 713.538 717.155 715.229 717.716 717.096C718.277 718.963 718.432 721.099 718.176 723.515C717.946 725.703 717.402 727.622 716.542 729.274C715.685 730.924 714.569 732.3 713.203 733.404C711.837 734.508 710.241 735.329 708.417 735.865C706.591 736.404 704.601 736.641 702.441 736.579L701.662 744.004L696.004 743.248L696.781 735.858C694.834 735.372 692.982 734.631 691.221 733.638C689.461 732.648 687.943 731.352 686.668 729.755C685.392 728.161 684.44 726.236 683.81 723.982C683.183 721.726 683.025 719.109 683.338 716.122L693.62 717.502C693.436 719.265 693.499 720.771 693.816 722.008C694.129 723.252 694.618 724.275 695.279 725.083C695.938 725.888 696.723 726.498 697.629 726.911C698.538 727.323 699.476 727.593 700.451 727.722C701.564 727.872 702.559 727.843 703.436 727.632C704.313 727.421 705.064 727.067 705.694 726.57C706.324 726.076 706.824 725.456 707.189 724.71C707.557 723.963 707.788 723.132 707.885 722.21Z" fill="#FFA412"/>
<path d="M496.864 692.83C496.864 692.83 490.919 702.278 485.468 702.408C480.021 702.538 471.729 698.028 471.729 698.028C471.729 698.028 466.725 685.441 470.119 680.513C470.119 680.513 473.521 678.828 477.082 681.805C477.692 682.321 478.313 682.967 478.923 683.798C479.788 684.97 480.757 685.636 481.784 685.986C485.673 687.324 490.289 684.181 492.014 687.214C493.024 688.977 494.12 690.301 495.023 691.23C496.09 692.304 496.864 692.83 496.864 692.83Z" fill="#FFEDDC"/>
<path d="M419.365 760.974C419.365 760.974 440.377 703.503 478.198 702.409C478.198 702.409 513.108 706.788 515.046 760.974H419.365Z" fill="#FFEDDC"/>
<path d="M467.835 704.164C467.835 704.164 482.995 707.969 487.672 705.732C487.672 705.732 488.379 698.577 481.994 699.58C477.625 700.265 474.778 697.895 473.104 696.934C470.737 695.574 467.205 701.171 467.835 704.164Z" fill="#2B478B"/>
<path d="M481.028 693.376C480.059 694.197 477.082 681.805 477.082 681.805C477.692 682.321 478.313 682.967 478.923 683.798C479.788 684.97 480.757 685.636 481.784 685.986C481.796 686.35 481.968 692.577 481.028 693.376Z" fill="#E5C1A1"/>
<path d="M495.023 691.23C494.807 691.372 487.798 696.112 486.846 696.112C485.877 696.112 492.014 687.213 492.014 687.213C493.024 688.976 494.12 690.301 495.023 691.23Z" fill="#E5C1A1"/>
<path d="M439.891 744.92C439.503 744.543 454.76 719.557 458.962 719.375C463.164 719.193 472.607 724.849 479.443 725.58C486.277 726.31 492.903 724.119 494.197 728.68C495.492 733.242 499.046 749.413 496.863 752.001C494.683 754.588 448.281 753.01 439.891 744.92Z" fill="#F9DDBF"/>
<path d="M585.065 401.669L583.633 392.549L586.742 391.926L588.162 400.955C588.571 403.552 589.934 404.666 591.832 404.286C593.731 403.906 594.677 402.377 594.277 399.844L592.839 390.705L595.951 390.082L597.366 399.085C598.125 403.919 596.098 406.769 592.301 407.532C588.505 408.292 585.804 406.364 585.065 401.669Z" fill="#A8D29F"/>
<path d="M607.869 400.978C609.244 400.702 609.986 399.987 609.794 398.757C609.624 397.685 608.813 397.166 607.217 397.487L603.621 398.208L604.177 401.718L607.869 400.978ZM606.032 394.715C607.404 394.439 608.194 393.764 608.002 392.533C607.835 391.484 607.015 391.036 605.704 391.299L602.632 391.916L603.164 395.289L606.032 394.715ZM599.12 389.446L605.684 388.131C607.297 387.806 608.649 388.053 609.601 388.803C610.363 389.403 610.823 390.225 611.004 391.364C611.286 393.166 610.596 394.338 609.687 395.179C611.433 395.559 612.612 396.429 612.957 398.617C613.415 401.536 611.545 403.416 608.356 404.055L601.631 405.403L599.12 389.446Z" fill="#A8D29F"/>
<path d="M613.84 386.494L616.949 385.871L619.46 401.828L616.351 402.451L613.84 386.494Z" fill="#A8D29F"/>
<path d="M623.63 713.752C624.358 714.694 624.45 715.749 624.091 716.872L624.085 716.888C623.418 718.97 621.215 721.291 618.655 723.612C618.327 723.911 618.036 724.18 617.783 724.43C617.717 724.495 617.651 724.563 617.588 724.628C617.536 724.68 617.487 724.732 617.435 724.781C615.051 727.265 615.948 727.836 611.66 732.875C606.771 738.615 603.406 738.719 602.448 738.196C601.64 737.751 603.285 734.706 605.108 731.281C605.198 731.118 605.284 730.95 605.373 730.784C605.617 730.329 605.859 729.865 606.098 729.407C608.235 725.291 607.688 723.356 607.179 717.226C606.768 712.243 600.314 689.393 600.314 689.393L609.684 687.571C609.684 687.571 612.506 705.769 615.615 708.571C617.274 710.064 619.135 710.08 620.734 711.191C620.846 711.265 620.959 711.346 621.065 711.428C621.974 712.106 622.9 712.807 623.63 713.752Z" fill="#FFB27D"/>
<path d="M623.63 713.752C624.358 714.694 624.45 715.749 624.091 716.872L624.085 716.888C623.268 718.966 621.12 721.278 618.646 723.589C618.321 723.891 618.036 724.171 617.783 724.43C617.717 724.495 617.651 724.563 617.588 724.628C617.536 724.68 617.487 724.732 617.435 724.781C615.051 727.265 615.948 727.836 611.66 732.875C606.771 738.615 603.406 738.719 602.448 738.196C601.64 737.751 603.285 734.706 605.108 731.281C606.06 730.888 610.481 728.862 613.823 724.034C616.765 719.794 618.73 714.346 620.734 711.191C620.846 711.265 620.958 711.346 621.065 711.428C621.974 712.106 622.9 712.807 623.63 713.752Z" fill="#233862"/>
<path d="M548.087 707.145C547.509 710.411 543.384 709.865 538.78 708.596C534.175 707.327 535.271 708.836 528.716 708.015C522.162 707.197 520.174 704.437 519.976 703.337C519.795 702.363 523.036 702.018 526.507 701.567C526.945 701.512 527.385 701.45 527.822 701.389C531.745 700.833 534.618 697.976 538.178 695.629C541.555 693.408 546.591 684.354 546.591 684.354L555.579 685.155C555.579 685.155 550.862 693.243 549.039 696.759C547.966 698.827 548.02 701.564 548.156 703.674C548.225 704.823 548.291 705.996 548.087 707.145Z" fill="#FFB27D"/>
<path d="M538.78 708.596C534.175 707.327 535.271 708.836 528.716 708.015C522.162 707.197 520.174 704.437 519.976 703.337C519.795 702.363 523.036 702.018 526.507 701.567L526.542 701.642C526.542 701.642 530.471 704.788 535.927 704.934C540.376 705.057 545.084 703.619 548.156 703.674C548.225 704.823 548.291 705.996 548.087 707.145C547.509 710.411 543.384 709.865 538.78 708.596Z" fill="#233862"/>
<path d="M582.534 642.264L590.938 667.789L601.907 701.116C601.907 701.116 604.884 701.44 607.737 700.515C610.36 699.658 613.371 697.418 613.371 697.418C613.371 697.418 610.325 661.633 604.642 641.092C603.187 635.82 601.556 631.553 599.753 629.154C590.943 617.401 582.534 642.264 582.534 642.264Z" fill="#233862"/>
<path d="M591.079 601.727C596.583 599.724 612.284 602.298 628.056 605.782L631.358 599.633L665.425 596.629C665.425 596.629 676.668 624.771 670.513 642.702C669.61 645.339 667.812 647.03 664.747 647.085H664.249C664.249 647.085 643.973 647.072 637.389 647.072C620.446 647.072 601.533 633.923 599.088 633.372C595.082 632.469 593.48 641.511 589.477 651.004C585.47 660.497 551.831 693.044 551.831 693.044C551.831 693.044 546.66 693.103 544.526 692.2C542.228 691.226 541.388 689.963 541.388 689.963C541.388 689.963 578.662 606.249 591.079 601.727Z" fill="#2B478B"/>
<path d="M621.867 546.167C632.612 556.03 658.497 573.124 658.641 573.049C658.641 573.049 666.933 578.656 672.59 575.906C682.021 571.319 689.263 555.264 676.217 537.499C669.714 528.639 664.318 525.72 665.587 513.941C666.958 501.182 661.853 485.137 648.839 484.462C647.752 484.407 641.163 483.413 636.46 485.079C624.476 489.325 604.435 539.632 621.867 546.167Z" fill="#233862"/>
<path d="M667.752 600.805C667.053 602.99 648.632 604.938 638.154 604.152C634.824 603.908 632.29 603.379 631.39 602.503C627.651 598.837 628.025 606.898 627.51 568.325C627.263 549.514 641.655 532.759 641.655 532.759C641.655 532.759 642.802 540.794 657.073 531.23C657.582 530.895 663.202 540.288 668.612 551.855C674.571 564.637 668.471 598.555 667.752 600.805Z" fill="#90CAF9"/>
<path d="M590.938 667.789L601.907 701.116C601.907 701.116 604.884 701.44 607.737 700.515C610.36 699.658 613.371 697.418 613.371 697.418C613.371 697.418 610.326 661.633 604.642 641.092L590.938 667.789Z" fill="#2B478B"/>
<path d="M641.652 532.755C641.652 532.755 628.623 536.362 625.244 542.703C621.128 550.42 600.604 585.23 600.604 585.23C600.604 585.23 620.838 593.308 624.286 589.415C627.735 585.523 636.285 553.3 636.285 553.3L641.652 532.755Z" fill="#90CAF9"/>
<path d="M657.108 531.252C657.163 531.262 651.85 536.784 647.956 538.381C646.432 539.008 643.901 539.696 643.901 539.696C643.901 539.696 641.868 537.375 641.839 537.343C640.033 535.44 641.848 534.891 641.574 531.291C641.56 531.119 641.548 530.943 641.531 530.771C641.166 526.742 640.136 522.333 640.07 522.044L640.064 522.031L652.673 517.963L652.268 518.749C653.044 526.135 655.394 531.038 657.108 531.252Z" fill="#FFB27D"/>
<path d="M652.673 517.963C651.451 522.099 648.114 527.651 641.313 528.846C640.657 524.408 640.136 522.333 640.07 522.044L640.064 522.031L652.673 517.963Z" fill="#ED975D"/>
<path d="M637.968 526.32C637.968 526.32 654.962 525.044 654.097 513.109C653.228 501.175 654.839 492.971 643.953 493.279C633.064 493.591 631.289 498.34 630.72 502.402C630.15 506.467 633.524 526.343 637.968 526.32Z" fill="#FFB27D"/>
<path d="M634.913 493.068C634.913 493.068 639.135 507.054 649.161 508.678C656.475 509.866 659.38 507.632 659.38 507.632C659.38 507.632 655.296 503.253 653.084 496.519C652.431 494.532 650.893 493.088 649.038 492.766C643.832 491.857 637.11 487.968 634.913 493.068Z" fill="#233862"/>
<path d="M638.514 495.545C638.514 495.545 635.48 496.928 633.363 502.042C632.207 504.837 631.37 511.489 632.086 514.233C632.086 514.233 627.199 501.474 630.737 495.721C634.487 489.62 638.514 495.545 638.514 495.545Z" fill="#233862"/>
<path d="M641.574 531.291C641.574 531.291 642.612 538.372 643.901 539.696C643.901 539.696 640.642 538.336 639.095 533.58C639.095 533.58 640.234 531.453 641.574 531.291Z" fill="#83B8E2"/>
<path d="M629.452 555.378C629.452 555.378 619.96 568.231 621.128 572.887C622.299 577.539 628.871 577.539 628.871 577.539C628.871 577.539 627.642 567.624 628.871 562.462C630.096 557.303 630.867 555.073 629.452 555.378Z" fill="#91B0F2"/>
<path d="M650.757 592.409C650.757 592.409 664.427 583.003 664.249 577.539C664.068 572.075 664.255 562.05 665.538 563.452C666.818 564.858 670.873 576.12 670.482 579.309C670.093 582.5 656.288 604.769 654.58 604.713C642.394 604.33 650.757 592.409 650.757 592.409Z" fill="#83B8E2"/>
<path d="M654.456 527.97C654.456 527.97 646.99 538.57 643.901 539.696C643.901 539.696 652.673 539.696 658.868 531.43C658.868 531.43 656.797 528.005 654.456 527.97Z" fill="#83B8E2"/>
<path d="M585.286 580.952C585.286 559.352 600.797 541.839 619.932 541.839C639.066 541.839 654.58 559.352 654.58 580.952C654.58 602.551 639.066 620.06 619.932 620.06C600.797 620.06 585.286 602.551 585.286 580.952Z" fill="#E2810E"/>
<path d="M582.264 580.952C582.264 559.352 597.774 541.839 616.909 541.839C636.043 541.839 651.557 559.352 651.557 580.952C651.557 602.551 636.043 620.06 616.909 620.06C597.774 620.06 582.264 602.551 582.264 580.952Z" fill="#FFC76C"/>
<path d="M616.909 547.904C600.541 547.904 587.228 562.936 587.228 581.413C587.228 599.889 600.541 614.921 616.909 614.921C633.277 614.921 646.593 599.889 646.593 581.413C646.593 562.936 633.277 547.904 616.909 547.904ZM616.909 617.044C608.479 617.044 600.55 613.34 594.588 606.61C588.625 599.879 585.344 590.932 585.344 581.413C585.344 571.893 588.625 562.946 594.588 556.216C600.55 549.485 608.479 545.778 616.909 545.778C625.342 545.778 633.268 549.485 639.23 556.216C645.192 562.946 648.477 571.893 648.477 581.413C648.477 590.932 645.192 599.879 639.23 606.61C633.268 613.34 625.342 617.044 616.909 617.044Z" fill="#FFA412"/>
<path d="M621.255 591.753C621.335 590.987 621.312 590.295 621.18 589.685C621.051 589.074 620.792 588.5 620.406 587.967C620.021 587.432 619.503 586.919 618.856 586.422C618.209 585.928 617.409 585.422 616.455 584.906C614.815 584 613.337 583.081 612.02 582.153C610.702 581.224 609.595 580.211 608.704 579.107C607.812 578.003 607.159 576.767 606.745 575.393C606.331 574.02 606.219 572.439 606.408 570.647C606.572 569.092 606.963 567.705 607.588 566.488C608.212 565.273 609.026 564.251 610.032 563.423C611.042 562.592 612.209 561.965 613.535 561.54C614.864 561.115 616.322 560.923 617.91 560.968L618.525 555.095L622.713 555.657L622.089 561.611C623.564 562.033 624.879 562.663 626.029 563.504C627.179 564.345 628.126 565.361 628.868 566.556C629.61 567.751 630.133 569.114 630.441 570.65C630.749 572.186 630.806 573.867 630.613 575.695L623.049 574.682C623.279 572.487 623.021 570.789 622.273 569.582C621.522 568.381 620.424 567.679 618.977 567.484C618.192 567.381 617.501 567.413 616.909 567.585C616.316 567.754 615.813 568.033 615.402 568.413C614.991 568.793 614.666 569.264 614.43 569.828C614.194 570.39 614.042 571.01 613.97 571.686C613.898 572.364 613.921 572.987 614.039 573.559C614.154 574.134 614.401 574.679 614.781 575.205C615.157 575.728 615.681 576.244 616.342 576.75C617.007 577.257 617.838 577.799 618.839 578.377C620.458 579.318 621.919 580.257 623.228 581.192C624.536 582.127 625.638 583.153 626.529 584.263C627.421 585.377 628.071 586.62 628.485 587.99C628.899 589.363 629.012 590.938 628.825 592.714C628.655 594.321 628.255 595.737 627.625 596.948C626.993 598.162 626.173 599.175 625.166 599.986C624.162 600.798 622.989 601.402 621.646 601.798C620.306 602.194 618.839 602.369 617.251 602.324L616.679 607.785L612.517 607.226L613.087 601.791C611.657 601.434 610.294 600.889 609 600.162C607.705 599.431 606.587 598.477 605.649 597.305C604.711 596.129 604.01 594.714 603.55 593.055C603.086 591.399 602.969 589.471 603.199 587.276L610.763 588.289C610.628 589.587 610.674 590.695 610.907 591.607C611.137 592.519 611.496 593.272 611.982 593.866C612.468 594.461 613.046 594.909 613.714 595.211C614.381 595.513 615.071 595.714 615.787 595.808C616.607 595.918 617.338 595.896 617.982 595.74C618.626 595.587 619.181 595.327 619.644 594.961C620.107 594.597 620.475 594.139 620.743 593.591C621.013 593.045 621.186 592.431 621.255 591.753Z" fill="#FFA412"/>
<path d="M579.853 587.62C579.853 587.62 579.468 581.195 581.619 581.448C584.257 581.757 587.061 588.824 585.775 590.191C584.487 591.558 579.882 589.204 579.853 587.62Z" fill="#FFB27D"/>
<path d="M653.53 602.49L650.32 600.318C650.32 600.318 648.33 599.421 647.157 599.61C645.983 599.798 643.199 599.243 643.113 599.756C643.024 600.272 645.788 602.564 645.788 602.564C644.125 605.444 638.103 605.973 637.645 607.058C637.09 608.372 639.811 609.606 641.287 610.32C642.762 611.035 646.535 611.687 648.715 609.82C650.309 608.454 652.926 606.655 652.926 606.655L653.53 602.49Z" fill="#FFB27D"/>
<path d="M657.076 531.233C657.076 531.233 670.559 532.226 673.93 538.164C677.301 544.099 688.127 577.916 686.375 588.266C684.621 598.616 652.555 611.038 652.555 611.038C652.555 611.038 651.137 609.648 651.137 605.941C651.137 603.713 652.164 601.564 652.164 601.564C652.164 601.564 671.836 583.007 670.482 579.309C665.483 565.66 657.076 531.233 657.076 531.233Z" fill="#90CAF9"/>
</svg>
