<svg width="100" height="101" viewBox="0 0 100 101" fill="none" xmlns="http://www.w3.org/2000/svg">
<path d="M50 100.146C77.6142 100.146 100 77.7604 100 50.1461C100 22.5319 77.6142 0.146118 50 0.146118C22.3858 0.146118 0 22.5319 0 50.1461C0 77.7604 22.3858 100.146 50 100.146Z" fill="#56AB91"/>
<path d="M72 58.7461C72 63.8128 70.3 67.9128 66.9 71.0461C63.5 74.1128 58.7 75.9794 52.5 76.6461L53.3 90.7461H46.3L47.1 76.9461C41.3667 76.9461 35.1667 76.0128 28.5 74.1461C28.9 66.7461 29.3 61.6461 29.7 58.8461L35.7 57.7461L42.2 64.8461C44.7333 65.5128 47.3667 65.8461 50.1 65.8461C51.6333 65.8461 52.9 65.7461 53.9 65.5461C54.1 65.0128 54.2 64.2794 54.2 63.3461C54.2 62.4128 54 61.6461 53.6 61.0461C53.2 60.3794 52.3 59.6461 50.9 58.8461C49.5667 57.9794 47.3333 56.7461 44.2 55.1461C40.0667 53.0128 36.9 51.1461 34.7 49.5461C32.5 47.8794 30.9333 46.1794 30 44.4461C29.1333 42.6461 28.7 40.5128 28.7 38.0461C28.7 33.0461 30.3 29.0128 33.5 25.9461C36.7 22.8128 41.1667 20.8794 46.9 20.1461L46.3 7.74609H53.3L52.7 19.8461C55.6333 19.9128 58.6 20.2794 61.6 20.9461C64.6 21.6128 67.3 22.4461 69.7 23.4461C69.7 27.7128 69.4333 32.7794 68.9 38.6461L63.4 39.4461L56.3 31.7461C54.5667 31.2794 51.9333 31.0461 48.4 31.0461C47.8 31.0461 46.7 31.1128 45.1 31.2461C44.9 31.5128 44.8 32.2128 44.8 33.3461C44.8 34.7461 45.5 36.0461 46.9 37.2461C48.3 38.4461 51.1333 40.1128 55.4 42.2461C60.1333 44.5794 63.6333 46.5128 65.9 48.0461C68.1667 49.5794 69.7333 51.1461 70.6 52.7461C71.5333 54.3461 72 56.3461 72 58.7461Z" fill="white"/>
</svg>
