<svg width="363" height="100" viewBox="0 0 363 100" fill="none" xmlns="http://www.w3.org/2000/svg">
<path d="M4.17969 49.9986C4.17969 22.3836 25.6299 6.10352e-05 52.0898 6.10352e-05C78.5496 6.10352e-05 100 22.3836 100 49.9986C100 77.6136 78.5496 100 52.0898 100C25.6299 100 4.17969 77.6136 4.17969 49.9986Z" fill="#56AB91"/>
<path d="M0 49.9985C0 22.3836 21.4499 0 47.9101 0C74.3691 0 95.8196 22.3836 95.8196 49.9985C95.8196 77.6135 74.3691 100 47.9101 100C21.4499 100 0 77.6135 0 49.9985Z" fill="#88C4B2"/>
<path d="M47.9101 7.75178C25.2768 7.75178 6.86308 26.9687 6.86308 50.591C6.86308 74.2106 25.2768 93.4274 47.9101 93.4274C70.5435 93.4274 88.9569 74.2106 88.9569 50.591C88.9569 26.9687 70.5435 7.75178 47.9101 7.75178ZM47.9101 96.1471C36.2506 96.1471 25.2888 91.4083 17.0439 82.8023C8.79938 74.1992 4.25879 62.7596 4.25879 50.591C4.25879 38.4225 8.79938 26.9829 17.0439 18.3769C25.2888 9.77372 36.2506 5.035 47.9101 5.035C59.57 5.035 70.5315 9.77372 78.7761 18.3769C87.0196 26.9829 91.5602 38.4225 91.5602 50.591C91.5602 62.7596 87.0196 74.1992 78.7761 82.8023C70.5315 91.4083 59.57 96.1471 47.9101 96.1471Z" fill="#66B39C"/>
<path fill-rule="evenodd" clip-rule="evenodd" d="M65.6417 28.7872C62.611 26.8586 57.9776 25.8156 51.7417 25.6582V18H44.7417V25.768C40.1411 25.9834 34.9578 26.4648 29.1917 27.2122L28.7417 33.4372L32.6417 35.6122C33.4917 35.9622 34.0167 36.3622 34.2167 36.8122C34.4167 37.2122 34.5167 38.0622 34.5167 39.3622V67.9372L29.0417 69.4372L29.4167 76.7872C34.525 77.1656 39.6334 77.365 44.7417 77.3855V85H51.7417V77.308C55.3935 77.1983 57.8269 76.9747 59.0417 76.6372C63.8917 75.7872 67.5667 73.9872 70.0667 71.2372C72.5667 68.4872 73.8167 64.8622 73.8167 60.3622C73.8167 55.3122 71.3167 51.6622 66.3167 49.4122C67.7667 48.0122 68.8417 46.4622 69.5417 44.7622C70.2417 43.0122 70.5917 41.0122 70.5917 38.7622C70.5917 34.2122 68.9417 30.8872 65.6417 28.7872ZM56.6417 47.0122C57.1417 45.7122 57.3917 43.5372 57.3917 40.4872C57.3917 38.3872 56.8917 36.8372 55.8917 35.8372C54.9417 34.8372 53.4667 34.2872 51.4667 34.1872C50.1667 34.1872 48.8667 34.2372 47.5667 34.3372V46.8622C48.4167 46.8122 49.5167 46.7872 50.8667 46.7872C52.9167 46.7872 54.8417 46.8622 56.6417 47.0122ZM53.4917 68.0872C56.3417 68.0872 58.3667 67.8372 59.5667 67.3372C60.0667 65.3372 60.3167 63.5622 60.3167 62.0122C60.3167 59.5122 59.6667 57.7372 58.3667 56.6872C57.0667 55.6372 54.8667 55.1122 51.7667 55.1122C51.1167 55.1122 50.2917 55.1622 49.2917 55.2622L47.5667 55.3372V67.5622C49.3167 67.9122 51.2917 68.0872 53.4917 68.0872Z" fill="white"/>
<path d="M119.737 76.306C114.229 76.306 108.721 76.102 103.213 75.694L102.831 68.197L108.415 66.667V37.5205C108.415 36.1945 108.313 35.3275 108.109 34.9195C107.905 34.4605 107.37 34.0525 106.503 33.6955L102.524 31.477L102.984 25.1275C111.246 24.0565 118.335 23.521 124.251 23.521C131.493 23.521 136.797 24.592 140.163 26.734C143.529 28.876 145.212 32.2675 145.212 36.9085C145.212 39.2035 144.855 41.2435 144.141 43.0285C143.427 44.7625 142.33 46.3435 140.851 47.7715C145.951 50.0665 148.501 53.7895 148.501 58.9405C148.501 63.5305 147.226 67.228 144.676 70.033C142.126 72.838 138.378 74.674 133.431 75.541C131.595 76.051 127.03 76.306 119.737 76.306ZM130.983 45.3235C131.493 43.9975 131.748 41.779 131.748 38.668C131.748 36.526 131.238 34.945 130.218 33.925C129.249 32.905 127.744 32.344 125.704 32.242C124.378 32.242 123.052 32.293 121.726 32.395V45.1705C122.593 45.1195 123.715 45.094 125.092 45.094C127.183 45.094 129.147 45.1705 130.983 45.3235ZM127.77 66.82C130.677 66.82 132.742 66.565 133.966 66.055C134.476 64.015 134.731 62.2045 134.731 60.6235C134.731 58.0735 134.068 56.263 132.742 55.192C131.416 54.121 129.172 53.5855 126.01 53.5855C125.347 53.5855 124.506 53.6365 123.486 53.7385L121.726 53.815V66.2845C123.511 66.6415 125.526 66.82 127.77 66.82ZM168.054 77.071C163.974 77.071 160.939 75.8725 158.95 73.4755C156.961 71.0275 155.967 67.3555 155.967 62.4595V48.766C155.967 47.644 155.865 46.93 155.661 46.624C155.508 46.267 155.074 45.8845 154.36 45.4765L150.918 43.6405L151.3 37.903C152.014 37.801 152.524 37.699 152.83 37.597C153.391 37.495 155.38 37.138 158.797 36.526C162.265 35.914 165.147 35.557 167.442 35.455C168.003 36.73 168.436 38.209 168.742 39.892V59.17C168.742 61.414 168.793 62.995 168.895 63.913C169.048 64.831 169.456 65.545 170.119 66.055C170.833 66.514 172.032 66.7435 173.715 66.7435C176.163 66.7435 178.534 66.31 180.829 65.443V48.766C180.829 47.644 180.753 46.93 180.6 46.624C180.447 46.267 180.039 45.8845 179.376 45.4765L176.01 43.6405L176.316 37.903C180.447 37.138 183.66 36.5515 185.955 36.1435C188.301 35.7355 190.443 35.506 192.381 35.455C192.942 36.73 193.375 38.209 193.681 39.892V64.984C193.681 65.902 193.758 66.5395 193.911 66.8965C194.064 67.2535 194.421 67.6105 194.982 67.9675L198.042 69.727L197.812 74.47C195.619 75.031 193.095 75.541 190.239 76C187.383 76.408 184.731 76.663 182.283 76.765C182.079 76.153 181.849 75.388 181.594 74.47C181.543 74.062 181.416 73.5775 181.212 73.0165H180.982C178.891 74.2405 176.673 75.235 174.327 76C172.032 76.714 169.941 77.071 168.054 77.071ZM216.263 76.9945C211.367 76.9945 207.542 75.1585 204.788 71.4865C202.034 67.8145 200.657 62.893 200.657 56.722C200.657 49.633 202.519 44.278 206.242 40.657C210.016 37.036 215.371 35.2255 222.307 35.2255C222.715 35.2255 224.041 35.2765 226.285 35.3785V30.7885C226.285 29.6665 226.208 28.927 226.055 28.57C225.902 28.213 225.469 27.8305 224.755 27.4225L221.312 25.663L221.695 19.849C226.591 18.982 230.212 18.3955 232.558 18.0895C234.904 17.7325 236.765 17.5285 238.142 17.4775C238.601 18.6505 238.933 19.9765 239.137 21.4555V64.984C239.137 65.902 239.213 66.5395 239.366 66.8965C239.57 67.2535 240.004 67.6105 240.667 67.9675L243.574 69.727L243.268 74.47C238.27 75.745 233.374 76.51 228.58 76.765C228.223 75.796 227.866 74.623 227.509 73.246C224.041 75.745 220.292 76.9945 216.263 76.9945ZM220.7 67.2025C222.383 67.2025 224.27 66.6415 226.361 65.5195V45.706C224.831 45.043 222.868 44.7115 220.471 44.7115C218.533 44.7115 216.671 44.9665 214.886 45.4765C214.478 46.4455 214.147 47.7715 213.892 49.4545C213.688 51.1375 213.586 52.999 213.586 55.039C213.586 59.221 214.147 62.3065 215.269 64.2955C216.442 66.2335 218.252 67.2025 220.7 67.2025ZM262.68 93.442C256.815 93.442 252.378 92.524 249.369 90.688C246.411 88.852 244.932 86.149 244.932 82.579C244.932 78.805 246.666 75.49 250.134 72.634C249.063 71.563 248.527 70.39 248.527 69.115C248.527 67.279 249.726 64.678 252.123 61.312C247.941 59.119 245.85 55.345 245.85 49.99C245.85 45.298 247.431 41.677 250.593 39.127C253.806 36.526 258.421 35.2255 264.439 35.2255C268.672 35.2255 272.14 35.863 274.843 37.138L284.023 34.3075H287.619V45.4H281.652C281.907 46.675 282.034 47.9245 282.034 49.1485C282.034 53.8405 280.453 57.4105 277.291 59.8585C274.129 62.3065 269.488 63.5305 263.368 63.5305C261.277 63.5305 259.39 63.3775 257.707 63.0715V64.1425C257.707 64.9585 258.039 65.545 258.702 65.902C259.416 66.208 260.92 66.514 263.215 66.82L270.1 67.8145C275.506 68.5795 279.229 69.9055 281.269 71.7925C283.36 73.6795 284.406 76.102 284.406 79.06C284.406 83.65 282.519 87.1945 278.745 89.6935C274.971 92.1925 269.616 93.442 262.68 93.442ZM264.516 56.0335C265.587 56.0335 266.811 55.8805 268.188 55.5745C268.392 54.9625 268.57 54.0445 268.723 52.8205C268.927 51.5965 269.029 50.4745 269.029 49.4545C269.029 47.1595 268.519 45.451 267.499 44.329C266.53 43.207 265 42.646 262.909 42.646C261.889 42.646 260.767 42.799 259.543 43.105C259.288 43.717 259.059 44.6095 258.855 45.7825C258.702 46.9555 258.625 48.0775 258.625 49.1485C258.625 51.4945 259.11 53.2285 260.079 54.3505C261.048 55.4725 262.527 56.0335 264.516 56.0335ZM266.199 84.7975C268.545 84.7975 270.33 84.5935 271.554 84.1855C271.86 83.5735 272.013 82.7575 272.013 81.7375C272.013 80.5135 271.579 79.57 270.712 78.907C269.845 78.295 268.29 77.836 266.046 77.53L263.598 77.1475C261.354 76.8925 259.084 76.5355 256.789 76.0765C256.483 77.4535 256.33 78.55 256.33 79.366C256.33 81.202 257.146 82.5535 258.778 83.4205C260.41 84.3385 262.884 84.7975 266.199 84.7975ZM308.523 76.918C302.556 76.918 297.941 75.1075 294.677 71.4865C291.464 67.8655 289.857 62.8675 289.857 56.4925C289.857 52.0555 290.648 48.256 292.229 45.094C293.81 41.881 296.054 39.433 298.961 37.75C301.868 36.067 305.259 35.2255 309.135 35.2255C314.898 35.2255 319.31 37.0615 322.37 40.7335C325.481 44.4055 326.96 49.633 326.807 56.416L303.551 60.7C304.265 62.842 305.259 64.423 306.534 65.443C307.86 66.412 309.594 66.8965 311.736 66.8965C313.215 66.8965 314.975 66.6925 317.015 66.2845C319.055 65.8255 321.12 65.2135 323.211 64.4485L324.971 72.022C323.084 73.45 320.636 74.623 317.627 75.541C314.618 76.459 311.583 76.918 308.523 76.918ZM314.261 49.99C314.159 48.052 313.598 46.6495 312.578 45.7825C311.609 44.8645 310.232 44.4055 308.447 44.4055C306.968 44.4055 305.565 44.6095 304.239 45.0175C303.168 47.5165 302.684 50.2195 302.786 53.1265L314.261 49.99ZM347.902 76.9945C343.414 76.9945 340.099 75.898 337.957 73.705C335.815 71.461 334.744 68.0695 334.744 63.5305V44.941H329.389V39.3565L343.159 26.8105L347.596 27.346V35.9905L360.448 35.9905V45.0175L347.596 45.0175V60.7765C347.596 63.2245 347.928 64.8565 348.591 65.6725C349.305 66.4885 350.656 66.8965 352.645 66.8965C354.328 66.8965 356.674 66.667 359.683 66.208L360.601 74.011C358.765 74.878 356.7 75.592 354.405 76.153C352.161 76.714 349.993 76.9945 347.902 76.9945Z" fill="#56AB91"/>
</svg>
