<svg width="75" height="75" viewBox="0 0 100 100" fill="none" xmlns="http://www.w3.org/2000/svg">
<path d="M4.17969 49.9986C4.17969 22.3836 25.6299 5.34058e-05 52.0898 5.34058e-05C78.5496 5.34058e-05 100 22.3836 100 49.9986C100 77.6136 78.5496 100 52.0898 100C25.6299 100 4.17969 77.6136 4.17969 49.9986Z" fill="#56AB91"/>
<path d="M0 49.9985C0 22.3836 21.4499 -7.62939e-06 47.9101 -7.62939e-06C74.3691 -7.62939e-06 95.8196 22.3836 95.8196 49.9985C95.8196 77.6135 74.3691 100 47.9101 100C21.4499 100 0 77.6135 0 49.9985Z" fill="#88C4B2"/>
<path d="M47.9101 7.75177C25.2768 7.75177 6.86308 26.9687 6.86308 50.591C6.86308 74.2106 25.2768 93.4274 47.9101 93.4274C70.5435 93.4274 88.9569 74.2106 88.9569 50.591C88.9569 26.9687 70.5435 7.75177 47.9101 7.75177ZM47.9101 96.1471C36.2506 96.1471 25.2888 91.4083 17.0439 82.8023C8.79938 74.1992 4.25879 62.7596 4.25879 50.591C4.25879 38.4224 8.79938 26.9829 17.0439 18.3769C25.2888 9.77371 36.2506 5.035 47.9101 5.035C59.57 5.035 70.5315 9.77371 78.7761 18.3769C87.0196 26.9829 91.5602 38.4224 91.5602 50.591C91.5602 62.7596 87.0196 74.1992 78.7761 82.8023C70.5315 91.4083 59.57 96.1471 47.9101 96.1471Z" fill="#66B39C"/>
<path fill-rule="evenodd" clip-rule="evenodd" d="M65.6417 28.7872C62.611 26.8586 57.9776 25.8156 51.7417 25.6582V18H44.7417V25.768C40.1411 25.9834 34.9578 26.4648 29.1917 27.2122L28.7417 33.4372L32.6417 35.6122C33.4917 35.9622 34.0167 36.3622 34.2167 36.8122C34.4167 37.2122 34.5167 38.0622 34.5167 39.3622V67.9372L29.0417 69.4372L29.4167 76.7872C34.525 77.1656 39.6334 77.365 44.7417 77.3855V85H51.7417V77.308C55.3935 77.1983 57.8269 76.9747 59.0417 76.6372C63.8917 75.7872 67.5667 73.9872 70.0667 71.2372C72.5667 68.4872 73.8167 64.8622 73.8167 60.3622C73.8167 55.3122 71.3167 51.6622 66.3167 49.4122C67.7667 48.0122 68.8417 46.4622 69.5417 44.7622C70.2417 43.0122 70.5917 41.0122 70.5917 38.7622C70.5917 34.2122 68.9417 30.8872 65.6417 28.7872ZM56.6417 47.0122C57.1417 45.7122 57.3917 43.5372 57.3917 40.4872C57.3917 38.3872 56.8917 36.8372 55.8917 35.8372C54.9417 34.8372 53.4667 34.2872 51.4667 34.1872C50.1667 34.1872 48.8667 34.2372 47.5667 34.3372V46.8622C48.4167 46.8122 49.5167 46.7872 50.8667 46.7872C52.9167 46.7872 54.8417 46.8622 56.6417 47.0122ZM53.4917 68.0872C56.3417 68.0872 58.3667 67.8372 59.5667 67.3372C60.0667 65.3372 60.3167 63.5622 60.3167 62.0122C60.3167 59.5122 59.6667 57.7372 58.3667 56.6872C57.0667 55.6372 54.8667 55.1122 51.7667 55.1122C51.1167 55.1122 50.2917 55.1622 49.2917 55.2622L47.5667 55.3372V67.5622C49.3167 67.9122 51.2917 68.0872 53.4917 68.0872Z" fill="white"/>
</svg>
