<svg width="100" height="100" viewBox="0 0 100 100" fill="none" xmlns="http://www.w3.org/2000/svg">
<rect width="100" height="100" rx="15" fill="#FEA519"/>
<path d="M45.0787 30.2372C45.8662 28.6622 47.2866 27 49.5 27C51.7134 27 53.1337 28.665 53.9212 30.2372C54.7341 31.8656 55.125 33.8372 55.125 35.4375V45.8184L69.6656 53.0888C70.367 53.4389 70.9569 53.9775 71.3692 54.6442C71.7815 55.3109 72 56.0792 72 56.8631V60.75C71.9999 60.9541 71.9554 61.1558 71.8695 61.341C71.7836 61.5262 71.6584 61.6904 71.5027 61.8224C71.3469 61.9543 71.1643 62.0508 70.9675 62.105C70.7707 62.1593 70.5645 62.17 70.3631 62.1366L54.8747 59.5547L53.82 65.8913L57.5269 69.5981C57.7241 69.7948 57.8584 70.0456 57.9129 70.3187C57.9673 70.5918 57.9395 70.875 57.8328 71.1322C57.7262 71.3895 57.5456 71.6093 57.3138 71.7638C57.0821 71.9183 56.8097 72.0005 56.5312 72H42.4688C42.1903 72.0005 41.9179 71.9183 41.6862 71.7638C41.4544 71.6093 41.2738 71.3895 41.1672 71.1322C41.0605 70.875 41.0327 70.5918 41.0871 70.3187C41.1416 70.0456 41.2759 69.7948 41.4731 69.5981L45.1828 65.8913L44.1253 59.5547L28.6369 62.1366C28.4355 62.17 28.2293 62.1593 28.0325 62.105C27.8357 62.0508 27.6531 61.9543 27.4973 61.8224C27.3416 61.6904 27.2164 61.5262 27.1305 61.341C27.0446 61.1558 27.0001 60.9541 27 60.75V56.8631C27 56.0792 27.2185 55.3109 27.6308 54.6442C28.0431 53.9775 28.633 53.4389 29.3344 53.0888L43.875 45.8184V35.4375C43.875 33.84 44.2687 31.8628 45.0787 30.2372Z" fill="white"/>
</svg>
