<svg width="100" height="100" viewBox="0 0 100 100" fill="none" xmlns="http://www.w3.org/2000/svg">
<rect width="100" height="100" rx="15" fill="#56AB91"/>
<path d="M72.4138 47.4138H52.5862V27.5862C52.5862 26.9003 52.3137 26.2425 51.8287 25.7575C51.3437 25.2725 50.6859 25 50 25C49.3141 25 48.6563 25.2725 48.1713 25.7575C47.6863 26.2425 47.4138 26.9003 47.4138 27.5862V47.4138H27.5862C26.9003 47.4138 26.2425 47.6863 25.7575 48.1713C25.2725 48.6563 25 49.3141 25 50C25 50.6859 25.2725 51.3437 25.7575 51.8287C26.2425 52.3137 26.9003 52.5862 27.5862 52.5862H47.4138V72.4138C47.4138 73.0997 47.6863 73.7575 48.1713 74.2425C48.6563 74.7275 49.3141 75 50 75C50.6859 75 51.3437 74.7275 51.8287 74.2425C52.3137 73.7575 52.5862 73.0997 52.5862 72.4138V52.5862H72.4138C73.0997 52.5862 73.7575 52.3137 74.2425 51.8287C74.7275 51.3437 75 50.6859 75 50C75 49.3141 74.7275 48.6563 74.2425 48.1713C73.7575 47.6863 73.0997 47.4138 72.4138 47.4138Z" fill="white"/>
</svg>
