<svg width="47" height="48" viewBox="0 0 94 95" fill="none" xmlns="http://www.w3.org/2000/svg">
<path d="M82.25 27.936H73.5256V22.4586C73.5256 20.7973 72.8726 19.204 71.7103 18.0293C70.5479 16.8545 68.9713 16.1946 67.3275 16.1946H10.6044C8.96054 16.1946 7.38401 16.8545 6.22164 18.0293C5.05927 19.204 4.40625 20.7973 4.40625 22.4586V60.6665C4.40625 62.3278 5.05927 63.9211 6.22164 65.0958C7.38401 66.2706 8.96054 66.9305 10.6044 66.9305H20.4744V71.25C20.4744 73.2185 21.2481 75.1063 22.6254 76.4981C24.0025 77.89 25.8704 78.6719 27.8181 78.6719H82.25C84.1977 78.6719 86.0657 77.89 87.4428 76.4981C88.82 75.1063 89.5938 73.2185 89.5938 71.25V35.3579C89.5938 33.3894 88.82 31.5018 87.4428 30.1099C86.0657 28.718 84.1977 27.936 82.25 27.936ZM86.6562 35.3579V39.618H23.4119V35.3579C23.4119 34.1769 23.8761 33.0442 24.7025 32.2091C25.5288 31.3739 26.6496 30.9047 27.8181 30.9047H82.25C83.4185 30.9047 84.5393 31.3739 85.3657 32.2091C86.192 33.0442 86.6562 34.1769 86.6562 35.3579ZM86.6562 46.0157H23.4119V42.5868H86.6562V46.0157ZM7.34375 30.8454H22.0312C21.2511 31.8374 20.7443 33.0204 20.5625 34.2743H7.34375V30.8454ZM10.6044 19.1633H67.3275C68.1923 19.1633 69.0216 19.5105 69.6331 20.1285C70.2446 20.7466 70.5881 21.5846 70.5881 22.4586V27.8766H7.34375V22.4586C7.34375 21.5846 7.68728 20.7466 8.29876 20.1285C8.91025 19.5105 9.7396 19.1633 10.6044 19.1633ZM10.6044 63.9618C9.7396 63.9618 8.91025 63.6146 8.29876 62.9966C7.68728 62.3787 7.34375 61.5405 7.34375 60.6665V37.243H20.4744V63.9618H10.6044ZM82.25 75.7032H27.8181C26.6496 75.7032 25.5288 75.234 24.7025 74.3989C23.8761 73.5637 23.4119 72.4312 23.4119 71.25V48.9844H86.6562V71.25C86.6562 72.4312 86.192 73.5637 85.3657 74.3989C84.5393 75.234 83.4185 75.7032 82.25 75.7032Z" fill="#98A6AF"/>
<path d="M73.599 61.1265C72.7198 61.1287 71.8538 61.3423 71.0727 61.7499C70.3318 61.3677 69.5147 61.16 68.6831 61.1425C67.8513 61.1251 67.0265 61.2982 66.2705 61.6491C65.5144 61.9999 64.8469 62.5191 64.318 63.1681C63.7889 63.8169 63.4122 64.5784 63.2161 65.3954C63.0199 66.2125 63.0095 67.0638 63.1856 67.8856C63.3615 68.7072 63.7195 69.478 64.2323 70.1399C64.7452 70.8018 65.3999 71.3376 66.147 71.7072C66.8943 72.077 67.7146 72.2707 68.5465 72.2741C69.4276 72.2744 70.2953 72.0552 71.0727 71.6358C71.85 72.0552 72.7178 72.2744 73.599 72.2741C75.0124 72.2003 76.3439 71.5809 77.3186 70.5438C78.2933 69.5065 78.8367 68.1308 78.8367 66.7003C78.8367 65.2698 78.2933 63.8941 77.3186 62.8568C76.3439 61.8197 75.0124 61.2002 73.599 61.1265ZM65.9615 66.6929C65.9681 66.2036 66.1098 65.7259 66.3707 65.3137C66.6315 64.9014 67.0011 64.571 67.4377 64.3596C67.8744 64.1482 68.3608 64.0642 68.8422 64.1172C69.3235 64.1702 69.7807 64.358 70.1621 64.6593C70.4638 64.9035 70.7075 65.2128 70.8753 65.5647C71.0431 65.9167 71.1306 66.3022 71.1315 66.6929C71.1339 67.084 71.0476 67.4707 70.8798 67.8231C70.7117 68.1755 70.4663 68.4845 70.1621 68.7265C69.7823 69.0337 69.3243 69.2265 68.841 69.2825C68.3576 69.3386 67.8685 69.2556 67.4297 69.0432C66.9909 68.8308 66.6204 68.4976 66.3606 68.0818C66.1009 67.666 65.9625 67.1845 65.9615 66.6929ZM73.4374 69.2905C73.8518 68.4887 74.0683 67.5974 74.0683 66.6929C74.0683 65.7883 73.8518 64.8971 73.4374 64.0952C74.1191 64.0952 74.7728 64.3689 75.2549 64.8561C75.7369 65.3431 76.0078 66.004 76.0078 66.6929C76.0078 67.3818 75.7369 68.0425 75.2549 68.5296C74.7728 69.0168 74.1191 69.2905 73.4374 69.2905Z" fill="#95A3C5"/>
</svg>
