<svg width="450" height="230" viewBox="0 0 900 460" fill="none" xmlns="http://www.w3.org/2000/svg">
<path d="M10.26 38.456C8.588 38.456 7.11867 38.19 5.852 37.658C4.58533 37.1007 3.572 36.3407 2.812 35.378C2.052 34.4153 1.596 33.3007 1.444 32.034H6.346C6.498 32.7687 6.90333 33.402 7.562 33.934C8.246 34.4407 9.12 34.694 10.184 34.694C11.248 34.694 12.0207 34.4787 12.502 34.048C13.0087 33.6173 13.262 33.1233 13.262 32.566C13.262 31.7553 12.9073 31.2107 12.198 30.932C11.4887 30.628 10.5007 30.3367 9.234 30.058C8.42333 29.8807 7.6 29.6653 6.764 29.412C5.928 29.1587 5.15533 28.842 4.446 28.462C3.762 28.0567 3.20467 27.55 2.774 26.942C2.34333 26.3087 2.128 25.536 2.128 24.624C2.128 22.952 2.78667 21.546 4.104 20.406C5.44667 19.266 7.32133 18.696 9.728 18.696C11.9573 18.696 13.7307 19.2153 15.048 20.254C16.3907 21.2927 17.1887 22.724 17.442 24.548H12.844C12.5653 23.1547 11.514 22.458 9.69 22.458C8.778 22.458 8.06867 22.6353 7.562 22.99C7.08067 23.3447 6.84 23.788 6.84 24.32C6.84 24.8773 7.20733 25.3207 7.942 25.65C8.67667 25.9793 9.652 26.2833 10.868 26.562C12.1853 26.866 13.3887 27.208 14.478 27.588C15.5927 27.9427 16.4793 28.4873 17.138 29.222C17.7967 29.9313 18.126 30.9573 18.126 32.3C18.1513 33.4653 17.8473 34.5167 17.214 35.454C16.5807 36.3913 15.6687 37.126 14.478 37.658C13.2873 38.19 11.8813 38.456 10.26 38.456ZM29.5028 38.456C27.1468 38.456 25.3228 37.7213 24.0308 36.252C22.7642 34.7827 22.1308 32.6293 22.1308 29.792V19.152H26.9568V29.336C26.9568 30.9573 27.2862 32.1987 27.9448 33.06C28.6035 33.9213 29.6422 34.352 31.0608 34.352C32.4035 34.352 33.5055 33.8707 34.3668 32.908C35.2535 31.9453 35.6968 30.6027 35.6968 28.88V19.152H40.5608V38H36.2668L35.8868 34.808C35.3042 35.9227 34.4555 36.8093 33.3408 37.468C32.2515 38.1267 30.9722 38.456 29.5028 38.456ZM52.052 38.456C50.4307 38.456 49.1007 38.2027 48.062 37.696C47.0233 37.164 46.2507 36.4673 45.744 35.606C45.2373 34.7447 44.984 33.7947 44.984 32.756C44.984 31.008 45.668 29.5893 47.036 28.5C48.404 27.4107 50.456 26.866 53.192 26.866H57.98V26.41C57.98 25.118 57.6127 24.168 56.878 23.56C56.1433 22.952 55.2313 22.648 54.142 22.648C53.154 22.648 52.2927 22.8887 51.558 23.37C50.8233 23.826 50.3673 24.51 50.19 25.422H45.44C45.5667 24.054 46.0227 22.8633 46.808 21.85C47.6187 20.8367 48.6573 20.064 49.924 19.532C51.1907 18.9747 52.6093 18.696 54.18 18.696C56.8653 18.696 58.9807 19.3673 60.526 20.71C62.0713 22.0527 62.844 23.9527 62.844 26.41V38H58.702L58.246 34.96C57.6887 35.9733 56.9033 36.8093 55.89 37.468C54.902 38.1267 53.6227 38.456 52.052 38.456ZM53.154 34.656C54.5473 34.656 55.624 34.2 56.384 33.288C57.1693 32.376 57.6633 31.2487 57.866 29.906H53.724C52.432 29.906 51.5073 30.1467 50.95 30.628C50.3927 31.084 50.114 31.654 50.114 32.338C50.114 33.0727 50.3927 33.6427 50.95 34.048C51.5073 34.4533 52.242 34.656 53.154 34.656ZM75.2756 38.456C73.6036 38.456 72.1343 38.19 70.8676 37.658C69.601 37.1007 68.5876 36.3407 67.8276 35.378C67.0676 34.4153 66.6116 33.3007 66.4596 32.034H71.3616C71.5136 32.7687 71.919 33.402 72.5776 33.934C73.2616 34.4407 74.1356 34.694 75.1996 34.694C76.2636 34.694 77.0363 34.4787 77.5176 34.048C78.0243 33.6173 78.2776 33.1233 78.2776 32.566C78.2776 31.7553 77.923 31.2107 77.2136 30.932C76.5043 30.628 75.5163 30.3367 74.2496 30.058C73.439 29.8807 72.6156 29.6653 71.7796 29.412C70.9436 29.1587 70.171 28.842 69.4616 28.462C68.7776 28.0567 68.2203 27.55 67.7896 26.942C67.359 26.3087 67.1436 25.536 67.1436 24.624C67.1436 22.952 67.8023 21.546 69.1196 20.406C70.4623 19.266 72.337 18.696 74.7436 18.696C76.973 18.696 78.7463 19.2153 80.0636 20.254C81.4063 21.2927 82.2043 22.724 82.4576 24.548H77.8596C77.581 23.1547 76.5296 22.458 74.7056 22.458C73.7936 22.458 73.0843 22.6353 72.5776 22.99C72.0963 23.3447 71.8556 23.788 71.8556 24.32C71.8556 24.8773 72.223 25.3207 72.9576 25.65C73.6923 25.9793 74.6676 26.2833 75.8836 26.562C77.201 26.866 78.4043 27.208 79.4936 27.588C80.6083 27.9427 81.495 28.4873 82.1536 29.222C82.8123 29.9313 83.1416 30.9573 83.1416 32.3C83.167 33.4653 82.863 34.5167 82.2296 35.454C81.5963 36.3913 80.6843 37.126 79.4936 37.658C78.303 38.19 76.897 38.456 75.2756 38.456ZM105.169 38.456C103.396 38.456 101.812 38.0253 100.419 37.164C99.0258 36.3027 97.9238 35.1247 97.1132 33.63C96.3025 32.1353 95.8972 30.438 95.8972 28.538C95.8972 26.638 96.3025 24.9533 97.1132 23.484C97.9238 21.9893 99.0258 20.824 100.419 19.988C101.812 19.1267 103.396 18.696 105.169 18.696C106.588 18.696 107.829 18.962 108.893 19.494C109.957 20.026 110.818 20.7733 111.477 21.736V10.64H116.341V38H112.009L111.477 35.302C110.869 36.138 110.058 36.8727 109.045 37.506C108.057 38.1393 106.765 38.456 105.169 38.456ZM106.195 34.2C107.766 34.2 109.045 33.6807 110.033 32.642C111.046 31.578 111.553 30.2227 111.553 28.576C111.553 26.9293 111.046 25.5867 110.033 24.548C109.045 23.484 107.766 22.952 106.195 22.952C104.65 22.952 103.37 23.4713 102.357 24.51C101.344 25.5487 100.837 26.8913 100.837 28.538C100.837 30.1847 101.344 31.54 102.357 32.604C103.37 33.668 104.65 34.2 106.195 34.2ZM130.452 38.456C128.552 38.456 126.868 38.0507 125.398 37.24C123.929 36.4293 122.776 35.2893 121.94 33.82C121.104 32.3507 120.686 30.6533 120.686 28.728C120.686 26.7773 121.092 25.042 121.902 23.522C122.738 22.002 123.878 20.824 125.322 19.988C126.792 19.1267 128.514 18.696 130.49 18.696C132.34 18.696 133.974 19.1013 135.392 19.912C136.811 20.7227 137.913 21.8373 138.698 23.256C139.509 24.6493 139.914 26.2073 139.914 27.93C139.914 28.2087 139.902 28.5 139.876 28.804C139.876 29.108 139.864 29.4247 139.838 29.754H125.512C125.614 31.2233 126.12 32.376 127.032 33.212C127.97 34.048 129.097 34.466 130.414 34.466C131.402 34.466 132.226 34.2507 132.884 33.82C133.568 33.364 134.075 32.7813 134.404 32.072H139.344C138.99 33.2627 138.394 34.352 137.558 35.34C136.748 36.3027 135.734 37.0627 134.518 37.62C133.328 38.1773 131.972 38.456 130.452 38.456ZM130.49 22.648C129.3 22.648 128.248 22.99 127.336 23.674C126.424 24.3327 125.842 25.346 125.588 26.714H134.974C134.898 25.4727 134.442 24.4847 133.606 23.75C132.77 23.0153 131.732 22.648 130.49 22.648ZM151.795 38.456C150.123 38.456 148.654 38.19 147.387 37.658C146.12 37.1007 145.107 36.3407 144.347 35.378C143.587 34.4153 143.131 33.3007 142.979 32.034H147.881C148.033 32.7687 148.438 33.402 149.097 33.934C149.781 34.4407 150.655 34.694 151.719 34.694C152.783 34.694 153.556 34.4787 154.037 34.048C154.544 33.6173 154.797 33.1233 154.797 32.566C154.797 31.7553 154.442 31.2107 153.733 30.932C153.024 30.628 152.036 30.3367 150.769 30.058C149.958 29.8807 149.135 29.6653 148.299 29.412C147.463 29.1587 146.69 28.842 145.981 28.462C145.297 28.0567 144.74 27.55 144.309 26.942C143.878 26.3087 143.663 25.536 143.663 24.624C143.663 22.952 144.322 21.546 145.639 20.406C146.982 19.266 148.856 18.696 151.263 18.696C153.492 18.696 155.266 19.2153 156.583 20.254C157.926 21.2927 158.724 22.724 158.977 24.548H154.379C154.1 23.1547 153.049 22.458 151.225 22.458C150.313 22.458 149.604 22.6353 149.097 22.99C148.616 23.3447 148.375 23.788 148.375 24.32C148.375 24.8773 148.742 25.3207 149.477 25.65C150.212 25.9793 151.187 26.2833 152.403 26.562C153.72 26.866 154.924 27.208 156.013 27.588C157.128 27.9427 158.014 28.4873 158.673 29.222C159.332 29.9313 159.661 30.9573 159.661 32.3C159.686 33.4653 159.382 34.5167 158.749 35.454C158.116 36.3913 157.204 37.126 156.013 37.658C154.822 38.19 153.416 38.456 151.795 38.456ZM163.97 46.36V19.152H168.302L168.834 21.85C169.442 21.014 170.24 20.2793 171.228 19.646C172.241 19.0127 173.546 18.696 175.142 18.696C176.915 18.696 178.499 19.1267 179.892 19.988C181.285 20.8493 182.387 22.0273 183.198 23.522C184.009 25.0167 184.414 26.714 184.414 28.614C184.414 30.514 184.009 32.2113 183.198 33.706C182.387 35.1753 181.285 36.3407 179.892 37.202C178.499 38.038 176.915 38.456 175.142 38.456C173.723 38.456 172.482 38.19 171.418 37.658C170.354 37.126 169.493 36.3787 168.834 35.416V46.36H163.97ZM174.116 34.2C175.661 34.2 176.941 33.6807 177.954 32.642C178.967 31.6033 179.474 30.2607 179.474 28.614C179.474 26.9673 178.967 25.612 177.954 24.548C176.941 23.484 175.661 22.952 174.116 22.952C172.545 22.952 171.253 23.484 170.24 24.548C169.252 25.5867 168.758 26.9293 168.758 28.576C168.758 30.2227 169.252 31.578 170.24 32.642C171.253 33.6807 172.545 34.2 174.116 34.2ZM197.917 38.456C196.017 38.456 194.332 38.0507 192.863 37.24C191.394 36.4293 190.241 35.2893 189.405 33.82C188.569 32.3507 188.151 30.6533 188.151 28.728C188.151 26.7773 188.556 25.042 189.367 23.522C190.203 22.002 191.343 20.824 192.787 19.988C194.256 19.1267 195.979 18.696 197.955 18.696C199.804 18.696 201.438 19.1013 202.857 19.912C204.276 20.7227 205.378 21.8373 206.163 23.256C206.974 24.6493 207.379 26.2073 207.379 27.93C207.379 28.2087 207.366 28.5 207.341 28.804C207.341 29.108 207.328 29.4247 207.303 29.754H192.977C193.078 31.2233 193.585 32.376 194.497 33.212C195.434 34.048 196.562 34.466 197.879 34.466C198.867 34.466 199.69 34.2507 200.349 33.82C201.033 33.364 201.54 32.7813 201.869 32.072H206.809C206.454 33.2627 205.859 34.352 205.023 35.34C204.212 36.3027 203.199 37.0627 201.983 37.62C200.792 38.1773 199.437 38.456 197.917 38.456ZM197.955 22.648C196.764 22.648 195.713 22.99 194.801 23.674C193.889 24.3327 193.306 25.346 193.053 26.714H202.439C202.363 25.4727 201.907 24.4847 201.071 23.75C200.235 23.0153 199.196 22.648 197.955 22.648ZM219.26 38.456C217.588 38.456 216.119 38.19 214.852 37.658C213.585 37.1007 212.572 36.3407 211.812 35.378C211.052 34.4153 210.596 33.3007 210.444 32.034H215.346C215.498 32.7687 215.903 33.402 216.562 33.934C217.246 34.4407 218.12 34.694 219.184 34.694C220.248 34.694 221.021 34.4787 221.502 34.048C222.009 33.6173 222.262 33.1233 222.262 32.566C222.262 31.7553 221.907 31.2107 221.198 30.932C220.489 30.628 219.501 30.3367 218.234 30.058C217.423 29.8807 216.6 29.6653 215.764 29.412C214.928 29.1587 214.155 28.842 213.446 28.462C212.762 28.0567 212.205 27.55 211.774 26.942C211.343 26.3087 211.128 25.536 211.128 24.624C211.128 22.952 211.787 21.546 213.104 20.406C214.447 19.266 216.321 18.696 218.728 18.696C220.957 18.696 222.731 19.2153 224.048 20.254C225.391 21.2927 226.189 22.724 226.442 24.548H221.844C221.565 23.1547 220.514 22.458 218.69 22.458C217.778 22.458 217.069 22.6353 216.562 22.99C216.081 23.3447 215.84 23.788 215.84 24.32C215.84 24.8773 216.207 25.3207 216.942 25.65C217.677 25.9793 218.652 26.2833 219.868 26.562C221.185 26.866 222.389 27.208 223.478 27.588C224.593 27.9427 225.479 28.4873 226.138 29.222C226.797 29.9313 227.126 30.9573 227.126 32.3C227.151 33.4653 226.847 34.5167 226.214 35.454C225.581 36.3913 224.669 37.126 223.478 37.658C222.287 38.19 220.881 38.456 219.26 38.456ZM237.933 38.456C236.312 38.456 234.982 38.2027 233.943 37.696C232.904 37.164 232.132 36.4673 231.625 35.606C231.118 34.7447 230.865 33.7947 230.865 32.756C230.865 31.008 231.549 29.5893 232.917 28.5C234.285 27.4107 236.337 26.866 239.073 26.866H243.861V26.41C243.861 25.118 243.494 24.168 242.759 23.56C242.024 22.952 241.112 22.648 240.023 22.648C239.035 22.648 238.174 22.8887 237.439 23.37C236.704 23.826 236.248 24.51 236.071 25.422H231.321C231.448 24.054 231.904 22.8633 232.689 21.85C233.5 20.8367 234.538 20.064 235.805 19.532C237.072 18.9747 238.49 18.696 240.061 18.696C242.746 18.696 244.862 19.3673 246.407 20.71C247.952 22.0527 248.725 23.9527 248.725 26.41V38H244.583L244.127 34.96C243.57 35.9733 242.784 36.8093 241.771 37.468C240.783 38.1267 239.504 38.456 237.933 38.456ZM239.035 34.656C240.428 34.656 241.505 34.2 242.265 33.288C243.05 32.376 243.544 31.2487 243.747 29.906H239.605C238.313 29.906 237.388 30.1467 236.831 30.628C236.274 31.084 235.995 31.654 235.995 32.338C235.995 33.0727 236.274 33.6427 236.831 34.048C237.388 34.4533 238.123 34.656 239.035 34.656ZM261.156 38.456C259.484 38.456 258.015 38.19 256.748 37.658C255.482 37.1007 254.468 36.3407 253.708 35.378C252.948 34.4153 252.492 33.3007 252.34 32.034H257.242C257.394 32.7687 257.8 33.402 258.458 33.934C259.142 34.4407 260.016 34.694 261.08 34.694C262.144 34.694 262.917 34.4787 263.398 34.048C263.905 33.6173 264.158 33.1233 264.158 32.566C264.158 31.7553 263.804 31.2107 263.094 30.932C262.385 30.628 261.397 30.3367 260.13 30.058C259.32 29.8807 258.496 29.6653 257.66 29.412C256.824 29.1587 256.052 28.842 255.342 28.462C254.658 28.0567 254.101 27.55 253.67 26.942C253.24 26.3087 253.024 25.536 253.024 24.624C253.024 22.952 253.683 21.546 255 20.406C256.343 19.266 258.218 18.696 260.624 18.696C262.854 18.696 264.627 19.2153 265.944 20.254C267.287 21.2927 268.085 22.724 268.338 24.548H263.74C263.462 23.1547 262.41 22.458 260.586 22.458C259.674 22.458 258.965 22.6353 258.458 22.99C257.977 23.3447 257.736 23.788 257.736 24.32C257.736 24.8773 258.104 25.3207 258.838 25.65C259.573 25.9793 260.548 26.2833 261.764 26.562C263.082 26.866 264.285 27.208 265.374 27.588C266.489 27.9427 267.376 28.4873 268.034 29.222C268.693 29.9313 269.022 30.9573 269.022 32.3C269.048 33.4653 268.744 34.5167 268.11 35.454C267.477 36.3913 266.565 37.126 265.374 37.658C264.184 38.19 262.778 38.456 261.156 38.456Z" fill="#212529"/>
<path d="M6 79.288C4.592 79.288 3.472 78.864 2.64 78.016C1.808 77.152 1.392 75.832 1.392 74.056V67.096H3.408V73.84C3.408 76.32 4.424 77.56 6.456 77.56C7.496 77.56 8.352 77.192 9.024 76.456C9.712 75.704 10.056 74.64 10.056 73.264V67.096H12.072V79H10.248L10.104 76.864C9.736 77.616 9.184 78.208 8.448 78.64C7.728 79.072 6.912 79.288 6 79.288ZM5.568 66.112V64.6L10.608 61.552V63.304L5.568 66.112ZM15.3904 79V61.72H17.4064V79H15.3904ZM25.4147 79C24.3267 79 23.4707 78.736 22.8467 78.208C22.2227 77.68 21.9107 76.728 21.9107 75.352V68.8H19.8467V67.096H21.9107L22.1747 64.24H23.9267V67.096H27.4307V68.8H23.9267V75.352C23.9267 76.104 24.0787 76.616 24.3827 76.888C24.6867 77.144 25.2227 77.272 25.9907 77.272H27.2387V79H25.4147ZM31.2159 64.456C30.8159 64.456 30.4799 64.328 30.2079 64.072C29.9519 63.8 29.8239 63.464 29.8239 63.064C29.8239 62.68 29.9519 62.36 30.2079 62.104C30.4799 61.848 30.8159 61.72 31.2159 61.72C31.5999 61.72 31.9279 61.848 32.1999 62.104C32.4719 62.36 32.6079 62.68 32.6079 63.064C32.6079 63.464 32.4719 63.8 32.1999 64.072C31.9279 64.328 31.5999 64.456 31.2159 64.456ZM30.2079 79V67.096H32.2239V79H30.2079ZM35.7341 79V67.096H37.5581L37.7021 68.824C38.0861 68.184 38.5981 67.688 39.2381 67.336C39.8781 66.984 40.5981 66.808 41.3981 66.808C42.3421 66.808 43.1501 67 43.8221 67.384C44.5101 67.768 45.0381 68.352 45.4061 69.136C45.8221 68.416 46.3901 67.848 47.1101 67.432C47.8461 67.016 48.6381 66.808 49.4861 66.808C50.9101 66.808 52.0461 67.24 52.8941 68.104C53.7421 68.952 54.1661 70.264 54.1661 72.04V79H52.1741V72.256C52.1741 71.024 51.9261 70.096 51.4301 69.472C50.9341 68.848 50.2221 68.536 49.2941 68.536C48.3341 68.536 47.5341 68.912 46.8941 69.664C46.2701 70.4 45.9581 71.456 45.9581 72.832V79H43.9421V72.256C43.9421 71.024 43.6941 70.096 43.1981 69.472C42.7021 68.848 41.9901 68.536 41.0621 68.536C40.1181 68.536 39.3261 68.912 38.6861 69.664C38.0621 70.4 37.7501 71.456 37.7501 72.832V79H35.7341ZM61.1629 79.288C60.1709 79.288 59.3469 79.12 58.6909 78.784C58.0349 78.448 57.5469 78 57.2269 77.44C56.9069 76.88 56.7469 76.272 56.7469 75.616C56.7469 74.4 57.2109 73.464 58.1389 72.808C59.0669 72.152 60.3309 71.824 61.9309 71.824H65.1469V71.68C65.1469 70.64 64.8749 69.856 64.3309 69.328C63.7869 68.784 63.0589 68.512 62.1469 68.512C61.3629 68.512 60.6829 68.712 60.1069 69.112C59.5469 69.496 59.1949 70.064 59.0509 70.816H56.9869C57.0669 69.952 57.3549 69.224 57.8509 68.632C58.3629 68.04 58.9949 67.592 59.7469 67.288C60.4989 66.968 61.2989 66.808 62.1469 66.808C63.8109 66.808 65.0589 67.256 65.8909 68.152C66.7389 69.032 67.1629 70.208 67.1629 71.68V79H65.3629L65.2429 76.864C64.9069 77.536 64.4109 78.112 63.7549 78.592C63.1149 79.056 62.2509 79.288 61.1629 79.288ZM61.4749 77.584C62.2429 77.584 62.8989 77.384 63.4429 76.984C64.0029 76.584 64.4269 76.064 64.7149 75.424C65.0029 74.784 65.1469 74.112 65.1469 73.408V73.384H62.0989C60.9149 73.384 60.0749 73.592 59.5789 74.008C59.0989 74.408 58.8589 74.912 58.8589 75.52C58.8589 76.144 59.0829 76.648 59.5309 77.032C59.9949 77.4 60.6429 77.584 61.4749 77.584ZM74.7473 79.288C73.3233 79.288 72.1393 78.928 71.1953 78.208C70.2513 77.488 69.6993 76.512 69.5393 75.28H71.6033C71.7313 75.904 72.0593 76.448 72.5873 76.912C73.1313 77.36 73.8593 77.584 74.7713 77.584C75.6193 77.584 76.2433 77.408 76.6433 77.056C77.0433 76.688 77.2433 76.256 77.2433 75.76C77.2433 75.04 76.9793 74.56 76.4513 74.32C75.9393 74.08 75.2113 73.864 74.2673 73.672C73.6273 73.544 72.9873 73.36 72.3473 73.12C71.7073 72.88 71.1713 72.544 70.7393 72.112C70.3073 71.664 70.0913 71.08 70.0913 70.36C70.0913 69.32 70.4753 68.472 71.2433 67.816C72.0273 67.144 73.0833 66.808 74.4113 66.808C75.6753 66.808 76.7073 67.128 77.5073 67.768C78.3233 68.392 78.7953 69.288 78.9233 70.456H76.9313C76.8513 69.848 76.5873 69.376 76.1393 69.04C75.7073 68.688 75.1233 68.512 74.3873 68.512C73.6673 68.512 73.1073 68.664 72.7073 68.968C72.3233 69.272 72.1313 69.672 72.1313 70.168C72.1313 70.648 72.3793 71.024 72.8753 71.296C73.3873 71.568 74.0753 71.8 74.9393 71.992C75.6753 72.152 76.3713 72.352 77.0273 72.592C77.6993 72.816 78.2433 73.16 78.6593 73.624C79.0913 74.072 79.3073 74.728 79.3073 75.592C79.3233 76.664 78.9153 77.552 78.0833 78.256C77.2673 78.944 76.1553 79.288 74.7473 79.288ZM94.3708 79.288C93.2188 79.288 92.2188 79.08 91.3708 78.664C90.5228 78.248 89.8428 77.68 89.3308 76.96C88.8348 76.224 88.5308 75.392 88.4188 74.464H90.3868C90.5788 75.392 91.0268 76.144 91.7308 76.72C92.4348 77.28 93.3228 77.56 94.3948 77.56C95.1948 77.56 95.8828 77.376 96.4588 77.008C97.0348 76.624 97.4748 76.112 97.7788 75.472C98.0988 74.832 98.2588 74.12 98.2588 73.336C98.2588 72.088 97.9068 71.08 97.2028 70.312C96.4988 69.544 95.5868 69.16 94.4668 69.16C93.5388 69.16 92.7468 69.368 92.0908 69.784C91.4348 70.2 90.9548 70.744 90.6508 71.416H88.7308L90.1708 62.2H98.9788V63.952H91.7308L90.7468 69.064C91.1308 68.6 91.6588 68.216 92.3308 67.912C93.0188 67.608 93.8028 67.456 94.6828 67.456C95.7868 67.456 96.7468 67.712 97.5628 68.224C98.3948 68.736 99.0428 69.432 99.5068 70.312C99.9708 71.192 100.203 72.192 100.203 73.312C100.203 74.384 99.9708 75.376 99.5068 76.288C99.0588 77.2 98.3948 77.928 97.5148 78.472C96.6508 79.016 95.6028 79.288 94.3708 79.288ZM114.146 79.288C112.722 79.288 111.538 78.928 110.594 78.208C109.65 77.488 109.098 76.512 108.938 75.28H111.002C111.13 75.904 111.458 76.448 111.986 76.912C112.53 77.36 113.258 77.584 114.17 77.584C115.018 77.584 115.642 77.408 116.042 77.056C116.442 76.688 116.642 76.256 116.642 75.76C116.642 75.04 116.378 74.56 115.85 74.32C115.338 74.08 114.61 73.864 113.666 73.672C113.026 73.544 112.386 73.36 111.746 73.12C111.106 72.88 110.57 72.544 110.138 72.112C109.706 71.664 109.49 71.08 109.49 70.36C109.49 69.32 109.874 68.472 110.642 67.816C111.426 67.144 112.482 66.808 113.81 66.808C115.074 66.808 116.106 67.128 116.906 67.768C117.722 68.392 118.194 69.288 118.322 70.456H116.33C116.25 69.848 115.986 69.376 115.538 69.04C115.106 68.688 114.522 68.512 113.786 68.512C113.066 68.512 112.506 68.664 112.106 68.968C111.722 69.272 111.53 69.672 111.53 70.168C111.53 70.648 111.778 71.024 112.274 71.296C112.786 71.568 113.474 71.8 114.338 71.992C115.074 72.152 115.77 72.352 116.426 72.592C117.098 72.816 117.642 73.16 118.058 73.624C118.49 74.072 118.706 74.728 118.706 75.592C118.722 76.664 118.314 77.552 117.482 78.256C116.666 78.944 115.554 79.288 114.146 79.288ZM126.938 79.288C125.802 79.288 124.794 79.032 123.914 78.52C123.034 77.992 122.338 77.264 121.826 76.336C121.33 75.408 121.082 74.312 121.082 73.048C121.082 71.8 121.33 70.712 121.826 69.784C122.322 68.84 123.01 68.112 123.89 67.6C124.786 67.072 125.818 66.808 126.986 66.808C128.138 66.808 129.13 67.072 129.962 67.6C130.81 68.112 131.458 68.792 131.906 69.64C132.354 70.488 132.578 71.4 132.578 72.376C132.578 72.552 132.57 72.728 132.554 72.904C132.554 73.08 132.554 73.28 132.554 73.504H123.074C123.122 74.416 123.33 75.176 123.698 75.784C124.082 76.376 124.554 76.824 125.114 77.128C125.69 77.432 126.298 77.584 126.938 77.584C127.77 77.584 128.466 77.392 129.026 77.008C129.586 76.624 129.994 76.104 130.25 75.448H132.242C131.922 76.552 131.306 77.472 130.394 78.208C129.498 78.928 128.346 79.288 126.938 79.288ZM126.938 68.512C125.978 68.512 125.122 68.808 124.37 69.4C123.634 69.976 123.21 70.824 123.098 71.944H130.586C130.538 70.872 130.17 70.032 129.482 69.424C128.794 68.816 127.946 68.512 126.938 68.512ZM135.25 79V67.096H137.074L137.218 68.824C137.602 68.184 138.114 67.688 138.754 67.336C139.394 66.984 140.114 66.808 140.914 66.808C141.858 66.808 142.666 67 143.338 67.384C144.026 67.768 144.554 68.352 144.922 69.136C145.338 68.416 145.906 67.848 146.626 67.432C147.362 67.016 148.154 66.808 149.002 66.808C150.426 66.808 151.562 67.24 152.41 68.104C153.258 68.952 153.682 70.264 153.682 72.04V79H151.69V72.256C151.69 71.024 151.442 70.096 150.946 69.472C150.45 68.848 149.738 68.536 148.81 68.536C147.85 68.536 147.05 68.912 146.41 69.664C145.786 70.4 145.474 71.456 145.474 72.832V79H143.458V72.256C143.458 71.024 143.21 70.096 142.714 69.472C142.218 68.848 141.506 68.536 140.578 68.536C139.634 68.536 138.842 68.912 138.202 69.664C137.578 70.4 137.266 71.456 137.266 72.832V79H135.25ZM160.679 79.288C159.687 79.288 158.863 79.12 158.207 78.784C157.551 78.448 157.063 78 156.743 77.44C156.423 76.88 156.263 76.272 156.263 75.616C156.263 74.4 156.727 73.464 157.655 72.808C158.583 72.152 159.847 71.824 161.447 71.824H164.663V71.68C164.663 70.64 164.391 69.856 163.847 69.328C163.303 68.784 162.575 68.512 161.663 68.512C160.879 68.512 160.199 68.712 159.623 69.112C159.063 69.496 158.711 70.064 158.567 70.816H156.503C156.583 69.952 156.871 69.224 157.367 68.632C157.879 68.04 158.511 67.592 159.263 67.288C160.015 66.968 160.815 66.808 161.663 66.808C163.327 66.808 164.575 67.256 165.407 68.152C166.255 69.032 166.679 70.208 166.679 71.68V79H164.879L164.759 76.864C164.423 77.536 163.927 78.112 163.271 78.592C162.631 79.056 161.767 79.288 160.679 79.288ZM160.991 77.584C161.759 77.584 162.415 77.384 162.959 76.984C163.519 76.584 163.943 76.064 164.231 75.424C164.519 74.784 164.663 74.112 164.663 73.408V73.384H161.615C160.431 73.384 159.591 73.592 159.095 74.008C158.615 74.408 158.375 74.912 158.375 75.52C158.375 76.144 158.599 76.648 159.047 77.032C159.511 77.4 160.159 77.584 160.991 77.584ZM169.703 79V67.096H171.527L171.647 69.232C172.031 68.48 172.583 67.888 173.303 67.456C174.023 67.024 174.839 66.808 175.751 66.808C177.159 66.808 178.279 67.24 179.111 68.104C179.959 68.952 180.383 70.264 180.383 72.04V79H178.367V72.256C178.367 69.776 177.343 68.536 175.295 68.536C174.271 68.536 173.415 68.912 172.727 69.664C172.055 70.4 171.719 71.456 171.719 72.832V79H169.703ZM187.397 79.288C186.405 79.288 185.581 79.12 184.925 78.784C184.269 78.448 183.781 78 183.461 77.44C183.141 76.88 182.981 76.272 182.981 75.616C182.981 74.4 183.445 73.464 184.373 72.808C185.301 72.152 186.565 71.824 188.165 71.824H191.381V71.68C191.381 70.64 191.109 69.856 190.565 69.328C190.021 68.784 189.293 68.512 188.381 68.512C187.597 68.512 186.917 68.712 186.341 69.112C185.781 69.496 185.429 70.064 185.285 70.816H183.221C183.301 69.952 183.589 69.224 184.085 68.632C184.597 68.04 185.229 67.592 185.981 67.288C186.733 66.968 187.533 66.808 188.381 66.808C190.045 66.808 191.293 67.256 192.125 68.152C192.973 69.032 193.397 70.208 193.397 71.68V79H191.597L191.477 76.864C191.141 77.536 190.645 78.112 189.989 78.592C189.349 79.056 188.485 79.288 187.397 79.288ZM187.709 77.584C188.477 77.584 189.133 77.384 189.677 76.984C190.237 76.584 190.661 76.064 190.949 75.424C191.237 74.784 191.381 74.112 191.381 73.408V73.384H188.333C187.149 73.384 186.309 73.592 185.813 74.008C185.333 74.408 185.093 74.912 185.093 75.52C185.093 76.144 185.317 76.648 185.765 77.032C186.229 77.4 186.877 77.584 187.709 77.584ZM200.982 79.288C199.558 79.288 198.374 78.928 197.43 78.208C196.486 77.488 195.934 76.512 195.774 75.28H197.838C197.966 75.904 198.294 76.448 198.822 76.912C199.366 77.36 200.094 77.584 201.006 77.584C201.854 77.584 202.478 77.408 202.878 77.056C203.278 76.688 203.478 76.256 203.478 75.76C203.478 75.04 203.214 74.56 202.686 74.32C202.174 74.08 201.446 73.864 200.502 73.672C199.862 73.544 199.222 73.36 198.582 73.12C197.942 72.88 197.406 72.544 196.974 72.112C196.542 71.664 196.326 71.08 196.326 70.36C196.326 69.32 196.71 68.472 197.478 67.816C198.262 67.144 199.318 66.808 200.646 66.808C201.91 66.808 202.942 67.128 203.742 67.768C204.558 68.392 205.03 69.288 205.158 70.456H203.166C203.086 69.848 202.822 69.376 202.374 69.04C201.942 68.688 201.358 68.512 200.622 68.512C199.902 68.512 199.342 68.664 198.942 68.968C198.558 69.272 198.366 69.672 198.366 70.168C198.366 70.648 198.614 71.024 199.11 71.296C199.622 71.568 200.31 71.8 201.174 71.992C201.91 72.152 202.606 72.352 203.262 72.592C203.934 72.816 204.478 73.16 204.894 73.624C205.326 74.072 205.542 74.728 205.542 75.592C205.558 76.664 205.15 77.552 204.318 78.256C203.502 78.944 202.39 79.288 200.982 79.288Z" fill="#212529"/>
<path d="M1.776 131V114.2H7.2C8.512 114.2 9.584 114.416 10.416 114.848C11.248 115.28 11.864 115.872 12.264 116.624C12.664 117.376 12.864 118.208 12.864 119.12C12.864 120.176 12.576 121.128 12 121.976C11.44 122.824 10.56 123.424 9.36 123.776L13.032 131H10.656L7.248 124.064H7.104H3.792V131H1.776ZM3.792 122.48H7.056C8.352 122.48 9.296 122.168 9.888 121.544C10.48 120.92 10.776 120.12 10.776 119.144C10.776 118.152 10.48 117.368 9.888 116.792C9.312 116.2 8.36 115.904 7.032 115.904H3.792V122.48ZM20.3706 133.088V131.24C18.8026 131.064 17.5626 130.504 16.6506 129.56C15.7386 128.616 15.2826 127.416 15.2826 125.96H17.3946C17.3946 126.808 17.6426 127.568 18.1386 128.24C18.6506 128.896 19.3946 129.32 20.3706 129.512V123.008C20.2586 122.976 20.1386 122.944 20.0106 122.912C19.8986 122.864 19.7866 122.824 19.6746 122.792C18.3786 122.344 17.4186 121.792 16.7946 121.136C16.1706 120.464 15.8586 119.592 15.8586 118.52C15.8426 117.272 16.2346 116.232 17.0346 115.4C17.8506 114.568 18.9626 114.088 20.3706 113.96V112.016H22.0266V113.96C23.3706 114.12 24.4426 114.624 25.2426 115.472C26.0426 116.32 26.4506 117.352 26.4666 118.568H24.3546C24.3546 117.976 24.1626 117.408 23.7786 116.864C23.3946 116.304 22.8106 115.928 22.0266 115.736V121.544C22.1546 121.576 22.2826 121.616 22.4106 121.664C22.5386 121.712 22.6746 121.752 22.8186 121.784C23.6186 122.072 24.3386 122.408 24.9786 122.792C25.6186 123.176 26.1146 123.672 26.4666 124.28C26.8346 124.888 27.0186 125.664 27.0186 126.608C27.0186 127.36 26.8346 128.072 26.4666 128.744C26.0986 129.416 25.5386 129.984 24.7866 130.448C24.0506 130.912 23.1306 131.184 22.0266 131.264V133.088H20.3706ZM17.9466 118.328C17.9466 119.064 18.1626 119.624 18.5946 120.008C19.0266 120.376 19.6186 120.696 20.3706 120.968V115.688C19.6506 115.8 19.0666 116.088 18.6186 116.552C18.1706 117 17.9466 117.592 17.9466 118.328ZM24.9306 126.728C24.9306 125.8 24.6586 125.112 24.1146 124.664C23.5706 124.216 22.8746 123.848 22.0266 123.56V129.56C22.9546 129.448 23.6666 129.128 24.1626 128.6C24.6746 128.072 24.9306 127.448 24.9306 126.728ZM43.8371 131V127.4H35.3171V125.84L43.4771 114.2H45.8291V125.624H48.3251V127.4H45.8291V131H43.8371ZM37.5491 125.624H43.9331V116.432L37.5491 125.624ZM57.3124 131.288C55.8244 131.288 54.5364 130.928 53.4484 130.208C52.3764 129.472 51.5524 128.456 50.9764 127.16C50.4004 125.848 50.1124 124.328 50.1124 122.6C50.1124 120.872 50.4004 119.36 50.9764 118.064C51.5524 116.752 52.3764 115.736 53.4484 115.016C54.5364 114.28 55.8244 113.912 57.3124 113.912C58.8004 113.912 60.0804 114.28 61.1524 115.016C62.2244 115.736 63.0484 116.752 63.6244 118.064C64.2004 119.36 64.4884 120.872 64.4884 122.6C64.4884 124.328 64.2004 125.848 63.6244 127.16C63.0484 128.456 62.2244 129.472 61.1524 130.208C60.0804 130.928 58.8004 131.288 57.3124 131.288ZM57.3124 129.512C58.2884 129.512 59.1604 129.24 59.9284 128.696C60.7124 128.136 61.3204 127.344 61.7524 126.32C62.2004 125.28 62.4244 124.04 62.4244 122.6C62.4244 121.16 62.2004 119.928 61.7524 118.904C61.3204 117.88 60.7124 117.096 59.9284 116.552C59.1604 115.992 58.2884 115.712 57.3124 115.712C56.3204 115.712 55.4404 115.992 54.6724 116.552C53.9044 117.096 53.2964 117.88 52.8484 118.904C52.4004 119.928 52.1764 121.16 52.1764 122.6C52.1764 124.04 52.4004 125.28 52.8484 126.32C53.2964 127.344 53.9044 128.136 54.6724 128.696C55.4404 129.24 56.3204 129.512 57.3124 129.512ZM73.953 131.288C72.465 131.288 71.177 130.928 70.089 130.208C69.017 129.472 68.193 128.456 67.617 127.16C67.041 125.848 66.753 124.328 66.753 122.6C66.753 120.872 67.041 119.36 67.617 118.064C68.193 116.752 69.017 115.736 70.089 115.016C71.177 114.28 72.465 113.912 73.953 113.912C75.441 113.912 76.721 114.28 77.793 115.016C78.865 115.736 79.689 116.752 80.265 118.064C80.841 119.36 81.129 120.872 81.129 122.6C81.129 124.328 80.841 125.848 80.265 127.16C79.689 128.456 78.865 129.472 77.793 130.208C76.721 130.928 75.441 131.288 73.953 131.288ZM73.953 129.512C74.929 129.512 75.801 129.24 76.569 128.696C77.353 128.136 77.961 127.344 78.393 126.32C78.841 125.28 79.065 124.04 79.065 122.6C79.065 121.16 78.841 119.928 78.393 118.904C77.961 117.88 77.353 117.096 76.569 116.552C75.801 115.992 74.929 115.712 73.953 115.712C72.961 115.712 72.081 115.992 71.313 116.552C70.545 117.096 69.937 117.88 69.489 118.904C69.041 119.928 68.817 121.16 68.817 122.6C68.817 124.04 69.041 125.28 69.489 126.32C69.937 127.344 70.545 128.136 71.313 128.696C72.081 129.24 72.961 129.512 73.953 129.512Z" fill="#495057"/>
<line x1="100" y1="143.5" x2="800" y2="143.5" stroke="#495057" stroke-dasharray="5 5"/>
<path d="M1.776 249.283V232.483H7.2C8.512 232.483 9.584 232.699 10.416 233.131C11.248 233.563 11.864 234.155 12.264 234.907C12.664 235.659 12.864 236.491 12.864 237.403C12.864 238.459 12.576 239.411 12 240.259C11.44 241.107 10.56 241.707 9.36 242.059L13.032 249.283H10.656L7.248 242.347H7.104H3.792V249.283H1.776ZM3.792 240.763H7.056C8.352 240.763 9.296 240.451 9.888 239.827C10.48 239.203 10.776 238.403 10.776 237.427C10.776 236.435 10.48 235.651 9.888 235.075C9.312 234.483 8.36 234.187 7.032 234.187H3.792V240.763ZM20.3706 251.371V249.523C18.8026 249.347 17.5626 248.787 16.6506 247.843C15.7386 246.899 15.2826 245.699 15.2826 244.243H17.3946C17.3946 245.091 17.6426 245.851 18.1386 246.523C18.6506 247.179 19.3946 247.603 20.3706 247.795V241.291C20.2586 241.259 20.1386 241.227 20.0106 241.195C19.8986 241.147 19.7866 241.107 19.6746 241.075C18.3786 240.627 17.4186 240.075 16.7946 239.419C16.1706 238.747 15.8586 237.875 15.8586 236.803C15.8426 235.555 16.2346 234.515 17.0346 233.683C17.8506 232.851 18.9626 232.371 20.3706 232.243V230.299H22.0266V232.243C23.3706 232.403 24.4426 232.907 25.2426 233.755C26.0426 234.603 26.4506 235.635 26.4666 236.851H24.3546C24.3546 236.259 24.1626 235.691 23.7786 235.147C23.3946 234.587 22.8106 234.211 22.0266 234.019V239.827C22.1546 239.859 22.2826 239.899 22.4106 239.947C22.5386 239.995 22.6746 240.035 22.8186 240.067C23.6186 240.355 24.3386 240.691 24.9786 241.075C25.6186 241.459 26.1146 241.955 26.4666 242.563C26.8346 243.171 27.0186 243.947 27.0186 244.891C27.0186 245.643 26.8346 246.355 26.4666 247.027C26.0986 247.699 25.5386 248.267 24.7866 248.731C24.0506 249.195 23.1306 249.467 22.0266 249.547V251.371H20.3706ZM17.9466 236.611C17.9466 237.347 18.1626 237.907 18.5946 238.291C19.0266 238.659 19.6186 238.979 20.3706 239.251V233.971C19.6506 234.083 19.0666 234.371 18.6186 234.835C18.1706 235.283 17.9466 235.875 17.9466 236.611ZM24.9306 245.011C24.9306 244.083 24.6586 243.395 24.1146 242.947C23.5706 242.499 22.8746 242.131 22.0266 241.843V247.843C22.9546 247.731 23.6666 247.411 24.1626 246.883C24.6746 246.355 24.9306 245.731 24.9306 245.011ZM35.9651 249.283V247.867C37.1011 246.971 38.1731 246.067 39.1811 245.155C40.2051 244.227 41.1091 243.315 41.8931 242.419C42.6931 241.523 43.3171 240.643 43.7651 239.779C44.2291 238.915 44.4611 238.083 44.4611 237.283C44.4611 236.691 44.3571 236.139 44.1491 235.627C43.9571 235.115 43.6371 234.707 43.1891 234.403C42.7411 234.083 42.1331 233.923 41.3651 233.923C40.6291 233.923 40.0131 234.091 39.5171 234.427C39.0211 234.747 38.6451 235.179 38.3891 235.723C38.1491 236.267 38.0291 236.851 38.0291 237.475H36.0851C36.0851 236.371 36.3171 235.427 36.7811 234.643C37.2451 233.843 37.8771 233.235 38.6771 232.819C39.4771 232.403 40.3811 232.195 41.3891 232.195C42.8771 232.195 44.0931 232.619 45.0371 233.467C45.9971 234.299 46.4771 235.547 46.4771 237.211C46.4771 238.203 46.2291 239.187 45.7331 240.163C45.2371 241.123 44.6051 242.059 43.8371 242.971C43.0691 243.867 42.2451 244.707 41.3651 245.491C40.5011 246.275 39.6931 246.979 38.9411 247.603H47.0531V249.283H35.9651ZM56.2811 249.571C54.7931 249.571 53.5051 249.211 52.4171 248.491C51.3451 247.755 50.5211 246.739 49.9451 245.443C49.3691 244.131 49.0811 242.611 49.0811 240.883C49.0811 239.155 49.3691 237.643 49.9451 236.347C50.5211 235.035 51.3451 234.019 52.4171 233.299C53.5051 232.563 54.7931 232.195 56.2811 232.195C57.7691 232.195 59.0491 232.563 60.1211 233.299C61.1931 234.019 62.0171 235.035 62.5931 236.347C63.1691 237.643 63.4571 239.155 63.4571 240.883C63.4571 242.611 63.1691 244.131 62.5931 245.443C62.0171 246.739 61.1931 247.755 60.1211 248.491C59.0491 249.211 57.7691 249.571 56.2811 249.571ZM56.2811 247.795C57.2571 247.795 58.1291 247.523 58.8971 246.979C59.6811 246.419 60.2891 245.627 60.7211 244.603C61.1691 243.563 61.3931 242.323 61.3931 240.883C61.3931 239.443 61.1691 238.211 60.7211 237.187C60.2891 236.163 59.6811 235.379 58.8971 234.835C58.1291 234.275 57.2571 233.995 56.2811 233.995C55.2891 233.995 54.4091 234.275 53.6411 234.835C52.8731 235.379 52.2651 236.163 51.8171 237.187C51.3691 238.211 51.1451 239.443 51.1451 240.883C51.1451 242.323 51.3691 243.563 51.8171 244.603C52.2651 245.627 52.8731 246.419 53.6411 246.979C54.4091 247.523 55.2891 247.795 56.2811 247.795ZM72.9218 249.571C71.4338 249.571 70.1458 249.211 69.0578 248.491C67.9858 247.755 67.1618 246.739 66.5858 245.443C66.0098 244.131 65.7218 242.611 65.7218 240.883C65.7218 239.155 66.0098 237.643 66.5858 236.347C67.1618 235.035 67.9858 234.019 69.0578 233.299C70.1458 232.563 71.4338 232.195 72.9218 232.195C74.4098 232.195 75.6898 232.563 76.7618 233.299C77.8338 234.019 78.6578 235.035 79.2338 236.347C79.8098 237.643 80.0978 239.155 80.0978 240.883C80.0978 242.611 79.8098 244.131 79.2338 245.443C78.6578 246.739 77.8338 247.755 76.7618 248.491C75.6898 249.211 74.4098 249.571 72.9218 249.571ZM72.9218 247.795C73.8978 247.795 74.7698 247.523 75.5378 246.979C76.3218 246.419 76.9297 245.627 77.3618 244.603C77.8098 243.563 78.0338 242.323 78.0338 240.883C78.0338 239.443 77.8098 238.211 77.3618 237.187C76.9297 236.163 76.3218 235.379 75.5378 234.835C74.7698 234.275 73.8978 233.995 72.9218 233.995C71.9298 233.995 71.0498 234.275 70.2818 234.835C69.5138 235.379 68.9058 236.163 68.4578 237.187C68.0098 238.211 67.7858 239.443 67.7858 240.883C67.7858 242.323 68.0098 243.563 68.4578 244.603C68.9058 245.627 69.5138 246.419 70.2818 246.979C71.0498 247.523 71.9298 247.795 72.9218 247.795Z" fill="#495057"/>
<line x1="100" y1="261.783" x2="800" y2="261.783" stroke="#495057" stroke-dasharray="5 5"/>
<path d="M1.776 367.566V350.766H7.2C8.512 350.766 9.584 350.982 10.416 351.414C11.248 351.846 11.864 352.438 12.264 353.19C12.664 353.942 12.864 354.774 12.864 355.686C12.864 356.742 12.576 357.694 12 358.542C11.44 359.39 10.56 359.99 9.36 360.342L13.032 367.566H10.656L7.248 360.63H7.104H3.792V367.566H1.776ZM3.792 359.046H7.056C8.352 359.046 9.296 358.734 9.888 358.11C10.48 357.486 10.776 356.686 10.776 355.71C10.776 354.718 10.48 353.934 9.888 353.358C9.312 352.766 8.36 352.47 7.032 352.47H3.792V359.046ZM20.3706 369.654V367.806C18.8026 367.63 17.5626 367.07 16.6506 366.126C15.7386 365.182 15.2826 363.982 15.2826 362.526H17.3946C17.3946 363.374 17.6426 364.134 18.1386 364.806C18.6506 365.462 19.3946 365.886 20.3706 366.078V359.574C20.2586 359.542 20.1386 359.51 20.0106 359.478C19.8986 359.43 19.7866 359.39 19.6746 359.358C18.3786 358.91 17.4186 358.358 16.7946 357.702C16.1706 357.03 15.8586 356.158 15.8586 355.086C15.8426 353.838 16.2346 352.798 17.0346 351.966C17.8506 351.134 18.9626 350.654 20.3706 350.526V348.582H22.0266V350.526C23.3706 350.686 24.4426 351.19 25.2426 352.038C26.0426 352.886 26.4506 353.918 26.4666 355.134H24.3546C24.3546 354.542 24.1626 353.974 23.7786 353.43C23.3946 352.87 22.8106 352.494 22.0266 352.302V358.11C22.1546 358.142 22.2826 358.182 22.4106 358.23C22.5386 358.278 22.6746 358.318 22.8186 358.35C23.6186 358.638 24.3386 358.974 24.9786 359.358C25.6186 359.742 26.1146 360.238 26.4666 360.846C26.8346 361.454 27.0186 362.23 27.0186 363.174C27.0186 363.926 26.8346 364.638 26.4666 365.31C26.0986 365.982 25.5386 366.55 24.7866 367.014C24.0506 367.478 23.1306 367.75 22.0266 367.83V369.654H20.3706ZM17.9466 354.894C17.9466 355.63 18.1626 356.19 18.5946 356.574C19.0266 356.942 19.6186 357.262 20.3706 357.534V352.254C19.6506 352.366 19.0666 352.654 18.6186 353.118C18.1706 353.566 17.9466 354.158 17.9466 354.894ZM24.9306 363.294C24.9306 362.366 24.6586 361.678 24.1146 361.23C23.5706 360.782 22.8746 360.414 22.0266 360.126V366.126C22.9546 366.014 23.6666 365.694 24.1626 365.166C24.6746 364.638 24.9306 364.014 24.9306 363.294ZM42.7811 367.854C41.2931 367.854 40.0051 367.494 38.9171 366.774C37.8451 366.038 37.0211 365.022 36.4451 363.726C35.8691 362.414 35.5811 360.894 35.5811 359.166C35.5811 357.438 35.8691 355.926 36.4451 354.63C37.0211 353.318 37.8451 352.302 38.9171 351.582C40.0051 350.846 41.2931 350.478 42.7811 350.478C44.2691 350.478 45.5491 350.846 46.6211 351.582C47.6931 352.302 48.5171 353.318 49.0931 354.63C49.6691 355.926 49.9571 357.438 49.9571 359.166C49.9571 360.894 49.6691 362.414 49.0931 363.726C48.5171 365.022 47.6931 366.038 46.6211 366.774C45.5491 367.494 44.2691 367.854 42.7811 367.854ZM42.7811 366.078C43.7571 366.078 44.6291 365.806 45.3971 365.262C46.1811 364.702 46.7891 363.91 47.2211 362.886C47.6691 361.846 47.8931 360.606 47.8931 359.166C47.8931 357.726 47.6691 356.494 47.2211 355.47C46.7891 354.446 46.1811 353.662 45.3971 353.118C44.6291 352.558 43.7571 352.278 42.7811 352.278C41.7891 352.278 40.9091 352.558 40.1411 353.118C39.3731 353.662 38.7651 354.446 38.3171 355.47C37.8691 356.494 37.6451 357.726 37.6451 359.166C37.6451 360.606 37.8691 361.846 38.3171 362.886C38.7651 363.91 39.3731 364.702 40.1411 365.262C40.9091 365.806 41.7891 366.078 42.7811 366.078Z" fill="#495057"/>
<line x1="100" y1="380.066" x2="800" y2="380.066" stroke="#495057"/>
<path d="M100 295.735C100 290.212 104.477 285.735 110 285.735H140.617C146.14 285.735 150.617 290.212 150.617 295.735V381.203H100V295.735Z" fill="#56AB91"/>
<path d="M108.24 406.362C107.46 406.362 106.771 406.223 106.172 405.947C105.578 405.667 105.114 405.282 104.78 404.794C104.447 404.301 104.282 403.741 104.286 403.112C104.282 402.619 104.379 402.165 104.576 401.748C104.773 401.328 105.042 400.977 105.383 400.697C105.727 400.413 106.112 400.233 106.536 400.157V400.089C105.979 399.945 105.536 399.633 105.206 399.152C104.877 398.667 104.714 398.116 104.718 397.498C104.714 396.907 104.864 396.379 105.167 395.913C105.47 395.447 105.886 395.08 106.417 394.811C106.951 394.542 107.559 394.407 108.24 394.407C108.915 394.407 109.517 394.542 110.047 394.811C110.578 395.08 110.994 395.447 111.297 395.913C111.604 396.379 111.759 396.907 111.763 397.498C111.759 398.116 111.591 398.667 111.258 399.152C110.928 399.633 110.49 399.945 109.945 400.089V400.157C110.365 400.233 110.744 400.413 111.081 400.697C111.419 400.977 111.687 401.328 111.888 401.748C112.089 402.165 112.191 402.619 112.195 403.112C112.191 403.741 112.021 404.301 111.684 404.794C111.35 405.282 110.886 405.667 110.292 405.947C109.701 406.223 109.017 406.362 108.24 406.362ZM108.24 405.112C108.767 405.112 109.222 405.027 109.604 404.856C109.987 404.686 110.282 404.445 110.49 404.134C110.699 403.824 110.805 403.46 110.809 403.044C110.805 402.604 110.691 402.216 110.468 401.879C110.244 401.542 109.939 401.277 109.553 401.083C109.17 400.89 108.733 400.794 108.24 400.794C107.744 400.794 107.301 400.89 106.911 401.083C106.525 401.277 106.22 401.542 105.996 401.879C105.776 402.216 105.669 402.604 105.672 403.044C105.669 403.46 105.769 403.824 105.973 404.134C106.182 404.445 106.479 404.686 106.865 404.856C107.252 405.027 107.71 405.112 108.24 405.112ZM108.24 399.589C108.657 399.589 109.026 399.506 109.348 399.339C109.674 399.172 109.93 398.939 110.115 398.64C110.301 398.341 110.396 397.991 110.4 397.589C110.396 397.195 110.303 396.852 110.121 396.561C109.939 396.265 109.687 396.038 109.365 395.879C109.044 395.716 108.669 395.634 108.24 395.634C107.805 395.634 107.424 395.716 107.098 395.879C106.773 396.038 106.521 396.265 106.343 396.561C106.165 396.852 106.078 397.195 106.081 397.589C106.078 397.991 106.167 398.341 106.348 398.64C106.534 398.939 106.79 399.172 107.115 399.339C107.441 399.506 107.816 399.589 108.24 399.589ZM123.895 399.759V401.009H118.804V399.759H123.895ZM134.823 394.566V406.203H133.414V396.044H133.346L130.505 397.93V396.498L133.414 394.566H134.823ZM141.806 406.362C141.139 406.362 140.539 406.229 140.005 405.964C139.471 405.699 139.043 405.335 138.721 404.873C138.399 404.411 138.222 403.884 138.192 403.294H139.556C139.609 403.82 139.847 404.256 140.272 404.6C140.7 404.941 141.211 405.112 141.806 405.112C142.283 405.112 142.707 405 143.079 404.777C143.454 404.553 143.747 404.246 143.959 403.856C144.175 403.462 144.283 403.017 144.283 402.521C144.283 402.013 144.171 401.561 143.948 401.163C143.728 400.761 143.425 400.445 143.039 400.214C142.652 399.983 142.211 399.866 141.715 399.862C141.359 399.858 140.993 399.913 140.618 400.027C140.243 400.136 139.935 400.278 139.692 400.453L138.374 400.294L139.079 394.566H145.124V395.816H140.26L139.851 399.248H139.919C140.158 399.059 140.457 398.902 140.817 398.777C141.177 398.652 141.552 398.589 141.942 398.589C142.654 398.589 143.289 398.759 143.846 399.1C144.406 399.437 144.846 399.9 145.164 400.487C145.486 401.074 145.647 401.744 145.647 402.498C145.647 403.241 145.48 403.903 145.147 404.487C144.817 405.066 144.363 405.525 143.783 405.862C143.204 406.195 142.544 406.362 141.806 406.362Z" fill="#495057"/>
<path d="M261.846 137.259C261.846 131.736 266.323 127.259 271.846 127.259H302.463C307.986 127.259 312.463 131.736 312.463 137.259V381.203H261.846V137.259Z" fill="#56AB91"/>
<path d="M265.45 394.566V406.203H264.041V396.044H263.973L261.132 397.93V396.498L264.041 394.566H265.45ZM272.66 406.362C272.183 406.354 271.705 406.263 271.228 406.089C270.751 405.915 270.315 405.621 269.921 405.208C269.527 404.792 269.211 404.229 268.973 403.521C268.734 402.809 268.615 401.915 268.615 400.839C268.615 399.809 268.711 398.896 268.904 398.1C269.098 397.301 269.378 396.629 269.745 396.083C270.113 395.534 270.556 395.117 271.075 394.833C271.598 394.549 272.187 394.407 272.842 394.407C273.493 394.407 274.073 394.538 274.58 394.799C275.092 395.057 275.508 395.417 275.83 395.879C276.152 396.341 276.361 396.873 276.455 397.475H275.069C274.94 396.953 274.69 396.519 274.319 396.174C273.948 395.83 273.455 395.657 272.842 395.657C271.94 395.657 271.23 396.049 270.711 396.833C270.196 397.617 269.937 398.718 269.933 400.134H270.024C270.236 399.812 270.488 399.538 270.779 399.311C271.075 399.08 271.401 398.902 271.757 398.777C272.113 398.652 272.49 398.589 272.887 398.589C273.554 398.589 274.164 398.756 274.717 399.089C275.27 399.419 275.713 399.875 276.046 400.458C276.38 401.038 276.546 401.703 276.546 402.453C276.546 403.172 276.385 403.831 276.063 404.43C275.741 405.025 275.289 405.498 274.705 405.85C274.126 406.199 273.444 406.369 272.66 406.362ZM272.66 405.112C273.137 405.112 273.565 404.992 273.944 404.754C274.327 404.515 274.628 404.195 274.848 403.794C275.071 403.392 275.183 402.945 275.183 402.453C275.183 401.972 275.075 401.534 274.859 401.14C274.647 400.742 274.353 400.426 273.978 400.191C273.607 399.956 273.183 399.839 272.705 399.839C272.346 399.839 272.01 399.911 271.7 400.055C271.389 400.195 271.116 400.388 270.882 400.634C270.651 400.881 270.469 401.163 270.336 401.481C270.204 401.795 270.137 402.127 270.137 402.475C270.137 402.937 270.245 403.369 270.461 403.771C270.681 404.172 270.98 404.496 271.359 404.742C271.741 404.989 272.175 405.112 272.66 405.112ZM288.303 399.759V401.009H283.213V399.759H288.303ZM295.14 406.203V405.18L298.981 400.975C299.432 400.483 299.803 400.055 300.095 399.691C300.386 399.324 300.602 398.979 300.742 398.657C300.886 398.331 300.958 397.991 300.958 397.634C300.958 397.225 300.86 396.871 300.663 396.572C300.47 396.273 300.205 396.042 299.867 395.879C299.53 395.716 299.151 395.634 298.731 395.634C298.284 395.634 297.894 395.727 297.561 395.913C297.231 396.095 296.975 396.35 296.794 396.68C296.616 397.009 296.526 397.396 296.526 397.839H295.186C295.186 397.157 295.343 396.559 295.657 396.044C295.972 395.528 296.4 395.127 296.941 394.839C297.487 394.551 298.098 394.407 298.776 394.407C299.458 394.407 300.062 394.551 300.589 394.839C301.116 395.127 301.528 395.515 301.828 396.004C302.127 396.492 302.276 397.036 302.276 397.634C302.276 398.062 302.199 398.481 302.044 398.89C301.892 399.295 301.627 399.748 301.248 400.248C300.873 400.744 300.352 401.35 299.686 402.066L297.072 404.862V404.953H302.481V406.203H295.14ZM304.828 406.203V405.18L308.669 400.975C309.119 400.483 309.491 400.055 309.782 399.691C310.074 399.324 310.29 398.979 310.43 398.657C310.574 398.331 310.646 397.991 310.646 397.634C310.646 397.225 310.547 396.871 310.35 396.572C310.157 396.273 309.892 396.042 309.555 395.879C309.218 395.716 308.839 395.634 308.419 395.634C307.972 395.634 307.581 395.727 307.248 395.913C306.919 396.095 306.663 396.35 306.481 396.68C306.303 397.009 306.214 397.396 306.214 397.839H304.873C304.873 397.157 305.03 396.559 305.345 396.044C305.659 395.528 306.087 395.127 306.629 394.839C307.174 394.551 307.786 394.407 308.464 394.407C309.146 394.407 309.75 394.551 310.276 394.839C310.803 395.127 311.216 395.515 311.515 396.004C311.814 396.492 311.964 397.036 311.964 397.634C311.964 398.062 311.886 398.481 311.731 398.89C311.58 399.295 311.314 399.748 310.936 400.248C310.561 400.744 310.04 401.35 309.373 402.066L306.759 404.862V404.953H312.169V406.203H304.828Z" fill="#495057"/>
<path d="M426.383 214.587C426.383 209.065 430.86 204.587 436.383 204.587H467C472.523 204.587 477 209.065 477 214.587V381.203H426.383V214.587Z" fill="#56AB91"/>
<path d="M424.896 406.203V405.18L428.737 400.975C429.188 400.483 429.559 400.055 429.85 399.691C430.142 399.324 430.358 398.979 430.498 398.657C430.642 398.331 430.714 397.991 430.714 397.634C430.714 397.225 430.616 396.871 430.419 396.572C430.225 396.273 429.96 396.042 429.623 395.879C429.286 395.716 428.907 395.634 428.487 395.634C428.04 395.634 427.65 395.727 427.316 395.913C426.987 396.095 426.731 396.35 426.549 396.68C426.371 397.009 426.282 397.396 426.282 397.839H424.941C424.941 397.157 425.099 396.559 425.413 396.044C425.727 395.528 426.155 395.127 426.697 394.839C427.243 394.551 427.854 394.407 428.532 394.407C429.214 394.407 429.818 394.551 430.345 394.839C430.871 395.127 431.284 395.515 431.583 396.004C431.883 396.492 432.032 397.036 432.032 397.634C432.032 398.062 431.955 398.481 431.799 398.89C431.648 399.295 431.383 399.748 431.004 400.248C430.629 400.744 430.108 401.35 429.441 402.066L426.828 404.862V404.953H432.237V406.203H424.896ZM438.515 406.362C437.765 406.362 437.097 406.233 436.51 405.975C435.926 405.718 435.462 405.36 435.118 404.902C434.777 404.439 434.591 403.903 434.561 403.294H435.993C436.023 403.669 436.152 403.992 436.379 404.265C436.606 404.534 436.903 404.742 437.271 404.89C437.638 405.038 438.046 405.112 438.493 405.112C438.993 405.112 439.436 405.025 439.822 404.85C440.208 404.676 440.511 404.434 440.731 404.123C440.951 403.812 441.061 403.453 441.061 403.044C441.061 402.616 440.955 402.239 440.743 401.913C440.53 401.583 440.22 401.326 439.811 401.14C439.402 400.955 438.902 400.862 438.311 400.862H437.379V399.612H438.311C438.773 399.612 439.178 399.528 439.527 399.362C439.879 399.195 440.153 398.96 440.35 398.657C440.551 398.354 440.652 397.998 440.652 397.589C440.652 397.195 440.564 396.852 440.39 396.561C440.216 396.269 439.97 396.042 439.652 395.879C439.337 395.716 438.966 395.634 438.538 395.634C438.136 395.634 437.758 395.708 437.402 395.856C437.049 396 436.761 396.21 436.538 396.487C436.314 396.759 436.193 397.089 436.174 397.475H434.811C434.833 396.866 435.017 396.331 435.362 395.873C435.707 395.411 436.157 395.051 436.714 394.794C437.275 394.536 437.89 394.407 438.561 394.407C439.28 394.407 439.898 394.553 440.413 394.845C440.928 395.133 441.324 395.513 441.6 395.987C441.877 396.46 442.015 396.972 442.015 397.521C442.015 398.176 441.843 398.735 441.498 399.197C441.157 399.659 440.693 399.979 440.106 400.157V400.248C440.841 400.369 441.415 400.682 441.828 401.186C442.241 401.686 442.447 402.305 442.447 403.044C442.447 403.676 442.275 404.244 441.93 404.748C441.589 405.248 441.123 405.642 440.532 405.93C439.941 406.218 439.269 406.362 438.515 406.362ZM454.294 399.759V401.009H449.203V399.759H454.294ZM461.13 406.203V405.18L464.971 400.975C465.422 400.483 465.793 400.055 466.085 399.691C466.377 399.324 466.592 398.979 466.733 398.657C466.877 398.331 466.948 397.991 466.948 397.634C466.948 397.225 466.85 396.871 466.653 396.572C466.46 396.273 466.195 396.042 465.858 395.879C465.52 395.716 465.142 395.634 464.721 395.634C464.274 395.634 463.884 395.727 463.551 395.913C463.221 396.095 462.966 396.35 462.784 396.68C462.606 397.009 462.517 397.396 462.517 397.839H461.176C461.176 397.157 461.333 396.559 461.647 396.044C461.962 395.528 462.39 395.127 462.931 394.839C463.477 394.551 464.089 394.407 464.767 394.407C465.448 394.407 466.053 394.551 466.579 394.839C467.106 395.127 467.519 395.515 467.818 396.004C468.117 396.492 468.267 397.036 468.267 397.634C468.267 398.062 468.189 398.481 468.034 398.89C467.882 399.295 467.617 399.748 467.238 400.248C466.863 400.744 466.342 401.35 465.676 402.066L463.062 404.862V404.953H468.471V406.203H461.13ZM474.545 406.362C473.765 406.362 473.075 406.223 472.477 405.947C471.882 405.667 471.418 405.282 471.085 404.794C470.752 404.301 470.587 403.741 470.591 403.112C470.587 402.619 470.683 402.165 470.88 401.748C471.077 401.328 471.346 400.977 471.687 400.697C472.032 400.413 472.416 400.233 472.841 400.157V400.089C472.284 399.945 471.841 399.633 471.511 399.152C471.181 398.667 471.019 398.116 471.022 397.498C471.019 396.907 471.168 396.379 471.471 395.913C471.774 395.447 472.191 395.08 472.721 394.811C473.255 394.542 473.863 394.407 474.545 394.407C475.219 394.407 475.822 394.542 476.352 394.811C476.882 395.08 477.299 395.447 477.602 395.913C477.909 396.379 478.064 396.907 478.068 397.498C478.064 398.116 477.895 398.667 477.562 399.152C477.233 399.633 476.795 399.945 476.25 400.089V400.157C476.67 400.233 477.049 400.413 477.386 400.697C477.723 400.977 477.992 401.328 478.193 401.748C478.394 402.165 478.496 402.619 478.5 403.112C478.496 403.741 478.325 404.301 477.988 404.794C477.655 405.282 477.191 405.667 476.596 405.947C476.005 406.223 475.322 406.362 474.545 406.362ZM474.545 405.112C475.072 405.112 475.526 405.027 475.909 404.856C476.291 404.686 476.587 404.445 476.795 404.134C477.003 403.824 477.109 403.46 477.113 403.044C477.109 402.604 476.996 402.216 476.772 401.879C476.549 401.542 476.244 401.277 475.858 401.083C475.475 400.89 475.037 400.794 474.545 400.794C474.049 400.794 473.606 400.89 473.216 401.083C472.829 401.277 472.524 401.542 472.301 401.879C472.081 402.216 471.973 402.604 471.977 403.044C471.973 403.46 472.073 403.824 472.278 404.134C472.486 404.445 472.784 404.686 473.17 404.856C473.556 405.027 474.015 405.112 474.545 405.112ZM474.545 399.589C474.962 399.589 475.331 399.506 475.653 399.339C475.979 399.172 476.234 398.939 476.42 398.64C476.606 398.341 476.7 397.991 476.704 397.589C476.7 397.195 476.608 396.852 476.426 396.561C476.244 396.265 475.992 396.038 475.67 395.879C475.348 395.716 474.973 395.634 474.545 395.634C474.109 395.634 473.729 395.716 473.403 395.879C473.077 396.038 472.825 396.265 472.647 396.561C472.469 396.852 472.382 397.195 472.386 397.589C472.382 397.991 472.471 398.341 472.653 398.64C472.839 398.939 473.094 399.172 473.42 399.339C473.746 399.506 474.121 399.589 474.545 399.589Z" fill="#495057"/>
<path d="M589.228 182.128C589.228 176.606 593.706 172.128 599.228 172.128H629.846C635.369 172.128 639.846 176.606 639.846 182.128V381.203H589.228V182.128Z" fill="#56AB91"/>
<path d="M603.333 394.566V406.203H601.923V396.044H601.855L599.014 397.93V396.498L601.923 394.566H603.333ZM616.202 399.759V401.009H611.111V399.759H616.202ZM623.402 406.203L628.607 395.907V395.816H622.607V394.566H630.061V395.884L624.879 406.203H623.402Z" fill="#495057"/>
<path d="M749.383 262.321C749.383 256.798 753.86 252.321 759.383 252.321H790C795.523 252.321 800 256.798 800 262.321V381.203H749.383V262.321Z" fill="#56AB91"/>
<path d="M757.623 406.362C756.843 406.362 756.154 406.223 755.555 405.947C754.96 405.667 754.496 405.282 754.163 404.794C753.83 404.301 753.665 403.741 753.669 403.112C753.665 402.619 753.761 402.165 753.958 401.748C754.155 401.328 754.424 400.977 754.765 400.697C755.11 400.413 755.494 400.233 755.919 400.157V400.089C755.362 399.945 754.919 399.633 754.589 399.152C754.26 398.667 754.097 398.116 754.1 397.498C754.097 396.907 754.246 396.379 754.549 395.913C754.852 395.447 755.269 395.08 755.799 394.811C756.333 394.542 756.941 394.407 757.623 394.407C758.297 394.407 758.9 394.542 759.43 394.811C759.96 395.08 760.377 395.447 760.68 395.913C760.987 396.379 761.142 396.907 761.146 397.498C761.142 398.116 760.974 398.667 760.64 399.152C760.311 399.633 759.873 399.945 759.328 400.089V400.157C759.748 400.233 760.127 400.413 760.464 400.697C760.801 400.977 761.07 401.328 761.271 401.748C761.472 402.165 761.574 402.619 761.578 403.112C761.574 403.741 761.404 404.301 761.066 404.794C760.733 405.282 760.269 405.667 759.674 405.947C759.083 406.223 758.4 406.362 757.623 406.362ZM757.623 405.112C758.15 405.112 758.604 405.027 758.987 404.856C759.369 404.686 759.665 404.445 759.873 404.134C760.082 403.824 760.188 403.46 760.191 403.044C760.188 402.604 760.074 402.216 759.85 401.879C759.627 401.542 759.322 401.277 758.936 401.083C758.553 400.89 758.116 400.794 757.623 400.794C757.127 400.794 756.684 400.89 756.294 401.083C755.907 401.277 755.602 401.542 755.379 401.879C755.159 402.216 755.051 402.604 755.055 403.044C755.051 403.46 755.152 403.824 755.356 404.134C755.564 404.445 755.862 404.686 756.248 404.856C756.635 405.027 757.093 405.112 757.623 405.112ZM757.623 399.589C758.04 399.589 758.409 399.506 758.731 399.339C759.057 399.172 759.313 398.939 759.498 398.64C759.684 398.341 759.779 397.991 759.782 397.589C759.779 397.195 759.686 396.852 759.504 396.561C759.322 396.265 759.07 396.038 758.748 395.879C758.426 395.716 758.051 395.634 757.623 395.634C757.188 395.634 756.807 395.716 756.481 395.879C756.155 396.038 755.904 396.265 755.725 396.561C755.547 396.852 755.46 397.195 755.464 397.589C755.46 397.991 755.549 398.341 755.731 398.64C755.917 398.939 756.172 399.172 756.498 399.339C756.824 399.506 757.199 399.589 757.623 399.589ZM773.278 399.759V401.009H768.187V399.759H773.278ZM784.206 394.566V406.203H782.797V396.044H782.728L779.887 397.93V396.498L782.797 394.566H784.206ZM791.189 406.362C790.522 406.362 789.922 406.229 789.387 405.964C788.853 405.699 788.425 405.335 788.103 404.873C787.781 404.411 787.605 403.884 787.575 403.294H788.939C788.992 403.82 789.23 404.256 789.654 404.6C790.082 404.941 790.594 405.112 791.189 405.112C791.666 405.112 792.09 405 792.461 404.777C792.836 404.553 793.13 404.246 793.342 403.856C793.558 403.462 793.666 403.017 793.666 402.521C793.666 402.013 793.554 401.561 793.331 401.163C793.111 400.761 792.808 400.445 792.422 400.214C792.035 399.983 791.594 399.866 791.098 399.862C790.742 399.858 790.376 399.913 790.001 400.027C789.626 400.136 789.317 400.278 789.075 400.453L787.757 400.294L788.461 394.566H794.507V395.816H789.643L789.234 399.248H789.302C789.541 399.059 789.84 398.902 790.2 398.777C790.56 398.652 790.935 398.589 791.325 398.589C792.037 398.589 792.672 398.759 793.228 399.1C793.789 399.437 794.228 399.9 794.547 400.487C794.868 401.074 795.029 401.744 795.029 402.498C795.029 403.241 794.863 403.903 794.529 404.487C794.2 405.066 793.745 405.525 793.166 405.862C792.586 406.195 791.927 406.362 791.189 406.362Z" fill="#495057"/>
<path d="M105 428.703L100 426.316V432.089L105 429.703V428.703ZM104.5 429.703H178V428.703H104.5V429.703Z" fill="#495057"/>
<path d="M193.409 423.566H195.091L199.045 433.225H199.182L203.136 423.566H204.818V435.203H203.5V426.362H203.386L199.75 435.203H198.477L194.841 426.362H194.727V435.203H193.409V423.566ZM210.03 435.407C209.477 435.407 208.975 435.303 208.524 435.095C208.073 434.883 207.715 434.578 207.45 434.18C207.185 433.778 207.053 433.294 207.053 432.725C207.053 432.225 207.151 431.82 207.348 431.509C207.545 431.195 207.808 430.949 208.138 430.771C208.467 430.593 208.831 430.46 209.229 430.373C209.63 430.282 210.034 430.21 210.439 430.157C210.969 430.089 211.399 430.038 211.729 430.004C212.062 429.966 212.304 429.903 212.456 429.816C212.611 429.729 212.689 429.578 212.689 429.362V429.316C212.689 428.756 212.536 428.32 212.229 428.009C211.926 427.699 211.465 427.544 210.848 427.544C210.208 427.544 209.706 427.684 209.342 427.964C208.979 428.244 208.723 428.544 208.575 428.862L207.303 428.407C207.53 427.877 207.833 427.464 208.212 427.169C208.594 426.869 209.011 426.661 209.462 426.544C209.916 426.422 210.363 426.362 210.803 426.362C211.083 426.362 211.405 426.396 211.768 426.464C212.136 426.528 212.49 426.663 212.831 426.867C213.176 427.072 213.462 427.381 213.689 427.794C213.916 428.206 214.03 428.759 214.03 429.453V435.203H212.689V434.021H212.621C212.53 434.21 212.378 434.413 212.166 434.629C211.954 434.845 211.672 435.028 211.32 435.18C210.967 435.331 210.537 435.407 210.03 435.407ZM210.234 434.203C210.765 434.203 211.212 434.098 211.575 433.89C211.943 433.682 212.219 433.413 212.405 433.083C212.594 432.754 212.689 432.407 212.689 432.044V430.816C212.632 430.884 212.507 430.947 212.314 431.004C212.125 431.057 211.905 431.104 211.655 431.146C211.409 431.184 211.168 431.218 210.933 431.248C210.702 431.275 210.515 431.297 210.371 431.316C210.022 431.362 209.696 431.436 209.393 431.538C209.094 431.636 208.852 431.786 208.666 431.987C208.484 432.184 208.393 432.453 208.393 432.794C208.393 433.259 208.566 433.612 208.911 433.85C209.259 434.085 209.7 434.203 210.234 434.203ZM216.477 435.203V426.475H217.773V427.794H217.864C218.023 427.362 218.311 427.011 218.727 426.742C219.144 426.473 219.614 426.339 220.136 426.339C220.235 426.339 220.358 426.341 220.506 426.345C220.653 426.348 220.765 426.354 220.841 426.362V427.725C220.795 427.714 220.691 427.697 220.528 427.674C220.369 427.648 220.201 427.634 220.023 427.634C219.598 427.634 219.22 427.723 218.886 427.902C218.557 428.076 218.295 428.318 218.102 428.629C217.913 428.936 217.818 429.286 217.818 429.68V435.203H216.477Z" fill="#495057"/>
<path d="M311.998 429.881L316.985 432.293L317.015 426.52L312.003 428.881L311.998 429.881ZM237.997 429.499L312.498 429.883L312.503 428.883L238.003 428.499L237.997 429.499Z" fill="#495057"/>
<path d="M427 428.703L422 426.316V432.089L427 429.703V428.703ZM426.5 429.703H562.041V428.703H426.5V429.703Z" fill="#495057"/>
<path d="M597.45 435.203V423.566H604.428V424.816H598.859V428.748H603.905V429.998H598.859V435.203H597.45ZM609.678 435.384C608.837 435.384 608.111 435.199 607.501 434.828C606.895 434.453 606.428 433.93 606.098 433.259C605.772 432.585 605.609 431.801 605.609 430.907C605.609 430.013 605.772 429.225 606.098 428.544C606.428 427.858 606.886 427.324 607.473 426.941C608.064 426.555 608.753 426.362 609.541 426.362C609.996 426.362 610.445 426.437 610.888 426.589C611.331 426.741 611.734 426.987 612.098 427.328C612.462 427.665 612.751 428.112 612.967 428.669C613.183 429.225 613.291 429.911 613.291 430.725V431.294H606.564V430.134H611.928C611.928 429.642 611.829 429.203 611.632 428.816C611.439 428.43 611.162 428.125 610.803 427.902C610.446 427.678 610.026 427.566 609.541 427.566C609.007 427.566 608.545 427.699 608.155 427.964C607.768 428.225 607.471 428.566 607.263 428.987C607.054 429.407 606.95 429.858 606.95 430.339V431.112C606.95 431.771 607.064 432.33 607.291 432.788C607.522 433.242 607.842 433.589 608.251 433.828C608.661 434.062 609.136 434.18 609.678 434.18C610.03 434.18 610.348 434.131 610.632 434.032C610.92 433.93 611.168 433.778 611.376 433.578C611.585 433.373 611.746 433.119 611.859 432.816L613.155 433.18C613.018 433.619 612.789 434.006 612.467 434.339C612.145 434.669 611.748 434.926 611.274 435.112C610.801 435.294 610.268 435.384 609.678 435.384ZM622.202 426.475L618.974 435.203H617.611L614.384 426.475H615.838L618.247 433.43H618.338L620.747 426.475H622.202Z" fill="#495057"/>
<path d="M795.082 429.703L800.082 432.089V426.316L795.082 428.703V429.703ZM660.041 429.703H795.582V428.703H660.041V429.703Z" fill="#495057"/>
</svg>
