<svg width="125" height="126" viewBox="0 0 125 126" fill="none" xmlns="http://www.w3.org/2000/svg">
<g filter="url(#filter0_ddd_316_658)">
<rect x="20" y="36" width="66.0075" height="50" rx="25" fill="#35AA3A"/>
<path d="M59.0066 55.0003C57.9002 55.0003 57.0064 54.1065 57.0064 53.0002C57.0064 51.8938 57.9002 51 59.0066 51H69.0073C70.1137 51 71.0075 51.8938 71.0075 53.0002V63.0009C71.0075 64.1073 70.1137 65.0011 69.0073 65.0011C67.901 65.0011 67.0072 64.1073 67.0072 63.0009V57.8318L56.4189 68.4139C55.6375 69.1952 54.3687 69.1952 53.5874 68.4139L47.0056 61.8321L38.4175 70.414C37.6361 71.1953 36.3673 71.1953 35.586 70.414C34.8047 69.6327 34.8047 68.3639 35.586 67.5825L45.5868 57.5818C46.3681 56.8005 47.6369 56.8005 48.4182 57.5818L55.0063 64.1698L64.1757 55.0003H59.0066Z" fill="white"/>
</g>
<defs>
<filter id="filter0_ddd_316_658" x="-18" y="-20" width="142.008" height="146" filterUnits="userSpaceOnUse" color-interpolation-filters="sRGB">
<feFlood flood-opacity="0" result="BackgroundImageFix"/>
<feColorMatrix in="SourceAlpha" type="matrix" values="0 0 0 0 0 0 0 0 0 0 0 0 0 0 0 0 0 0 127 0" result="hardAlpha"/>
<feOffset dy="10"/>
<feGaussianBlur stdDeviation="15"/>
<feComposite in2="hardAlpha" operator="out"/>
<feColorMatrix type="matrix" values="0 0 0 0 0.333333 0 0 0 0 0.670588 0 0 0 0 0.568627 0 0 0 0.1 0"/>
<feBlend mode="normal" in2="BackgroundImageFix" result="effect1_dropShadow_316_658"/>
<feColorMatrix in="SourceAlpha" type="matrix" values="0 0 0 0 0 0 0 0 0 0 0 0 0 0 0 0 0 0 127 0" result="hardAlpha"/>
<feOffset dy="4"/>
<feGaussianBlur stdDeviation="5"/>
<feComposite in2="hardAlpha" operator="out"/>
<feColorMatrix type="matrix" values="0 0 0 0 0.129412 0 0 0 0 0.145098 0 0 0 0 0.160784 0 0 0 0.02 0"/>
<feBlend mode="normal" in2="effect1_dropShadow_316_658" result="effect2_dropShadow_316_658"/>
<feColorMatrix in="SourceAlpha" type="matrix" values="0 0 0 0 0 0 0 0 0 0 0 0 0 0 0 0 0 0 127 0" result="hardAlpha"/>
<feOffset dy="-18"/>
<feGaussianBlur stdDeviation="19"/>
<feComposite in2="hardAlpha" operator="out"/>
<feColorMatrix type="matrix" values="0 0 0 0 0.333333 0 0 0 0 0.670588 0 0 0 0 0.568627 0 0 0 0.04 0"/>
<feBlend mode="normal" in2="effect2_dropShadow_316_658" result="effect3_dropShadow_316_658"/>
<feBlend mode="normal" in="SourceGraphic" in2="effect3_dropShadow_316_658" result="shape"/>
</filter>
</defs>
</svg>
