<svg width="97" height="105" viewBox="0 0 97 105" fill="none" xmlns="http://www.w3.org/2000/svg">
<path d="M4.29565 52.2401C4.29565 23.3871 25.0159 5.60004e-05 50.5754 5.60004e-05C76.1349 5.60004e-05 96.8555 23.3871 96.8555 52.2401C96.8555 81.0931 76.1349 104.483 50.5754 104.483C25.0159 104.483 4.29565 81.0931 4.29565 52.2401Z" fill="#56AB91"/>
<path d="M0.258301 52.24C0.258301 23.3871 20.9783 -5.03477e-06 46.5381 -5.03477e-06C72.0968 -5.03477e-06 92.8173 23.3871 92.8173 52.24C92.8173 81.093 72.0968 104.483 46.5381 104.483C20.9783 104.483 0.258301 81.093 0.258301 52.24Z" fill="#88C4B2"/>
<path d="M46.538 8.09929C24.6748 8.09929 6.88774 28.1777 6.88774 52.8591C6.88774 77.5375 24.6748 97.6159 46.538 97.6159C68.4012 97.6159 86.1881 77.5375 86.1881 52.8591C86.1881 28.1777 68.4012 8.09929 46.538 8.09929ZM46.538 100.457C35.2752 100.457 24.6864 95.5063 16.7222 86.5145C8.75816 77.5256 4.37207 65.5732 4.37207 52.8591C4.37207 40.145 8.75816 28.1926 16.7222 19.2007C24.6864 10.2119 35.2752 5.26073 46.538 5.26073C57.8011 5.26073 68.3897 10.2119 76.3537 19.2007C84.3166 28.1926 88.7027 40.145 88.7027 52.8591C88.7027 65.5732 84.3166 77.5256 76.3537 86.5145C68.3897 95.5063 57.8011 100.457 46.538 100.457Z" fill="#66B39C"/>
<path fill-rule="evenodd" clip-rule="evenodd" d="M62.0274 30.3371C59.6558 28.8278 56.3028 27.8609 51.9684 27.4364V19.1736H44.9684V27.1978C39.4728 27.2773 33.0091 27.7987 25.5774 28.7621L25.1274 34.9871L29.0274 37.1621C29.8774 37.5121 30.4024 37.9121 30.6024 38.3621C30.8024 38.7621 30.9024 39.6121 30.9024 40.9121V69.4871L25.4274 70.9871L25.8024 78.3371C31.2024 78.7371 36.6024 78.9371 42.0024 78.9371C43.0483 78.9371 44.037 78.9317 44.9684 78.921V87.1736H51.9684V78.6682C53.5521 78.5481 54.7051 78.3877 55.4274 78.1871C60.2774 77.3371 63.9524 75.5371 66.4524 72.7871C68.9524 70.0371 70.2024 66.4121 70.2024 61.9121C70.2024 56.8621 67.7024 53.2121 62.7024 50.9621C64.1524 49.5621 65.2274 48.0121 65.9274 46.3121C66.6274 44.5621 66.9774 42.5621 66.9774 40.3121C66.9774 35.7621 65.3274 32.4371 62.0274 30.3371ZM53.0274 48.5621C53.5274 47.2621 53.7774 45.0871 53.7774 42.0371C53.7774 39.9371 53.2774 38.3871 52.2774 37.3871C51.3274 36.3871 49.8524 35.8371 47.8524 35.7371C46.5524 35.7371 45.2524 35.7871 43.9524 35.8871V48.4121C44.8024 48.3621 45.9024 48.3371 47.2524 48.3371C49.3024 48.3371 51.2274 48.4121 53.0274 48.5621ZM49.8774 69.6371C52.7274 69.6371 54.7524 69.3871 55.9524 68.8871C56.4524 66.8871 56.7024 65.1121 56.7024 63.5621C56.7024 61.0621 56.0524 59.2871 54.7524 58.2371C53.4524 57.1871 51.2524 56.6621 48.1524 56.6621C47.5024 56.6621 46.6774 56.7121 45.6774 56.8121L43.9524 56.8871V69.1121C45.7024 69.4621 47.6774 69.6371 49.8774 69.6371Z" fill="white"/>
</svg>
