<svg width="200" height="50" viewBox="0 0 369 100" fill="none" xmlns="http://www.w3.org/2000/svg">
<path d="M4.43799 49.9986C4.43799 22.3836 25.8882 3.05176e-05 52.3481 3.05176e-05C78.8079 3.05176e-05 100.258 22.3836 100.258 49.9986C100.258 77.6136 78.8079 100 52.3481 100C25.8882 100 4.43799 77.6136 4.43799 49.9986Z" fill="#56AB91"/>
<path d="M0.258301 49.9985C0.258301 22.3835 21.7082 -3.05176e-05 48.1684 -3.05176e-05C74.6274 -3.05176e-05 96.0779 22.3835 96.0779 49.9985C96.0779 77.6135 74.6274 99.9999 48.1684 99.9999C21.7082 99.9999 0.258301 77.6135 0.258301 49.9985Z" fill="#88C4B2"/>
<path d="M48.1684 7.75175C25.5351 7.75175 7.12138 26.9686 7.12138 50.591C7.12138 74.2105 25.5351 93.4274 48.1684 93.4274C70.8018 93.4274 89.2152 74.2105 89.2152 50.591C89.2152 26.9686 70.8018 7.75175 48.1684 7.75175ZM48.1684 96.147C36.5089 96.147 25.5471 91.4083 17.3022 82.8023C9.05768 74.1991 4.51709 62.7596 4.51709 50.591C4.51709 38.4224 9.05768 26.9829 17.3022 18.3769C25.5471 9.77369 36.5089 5.03497 48.1684 5.03497C59.8283 5.03497 70.7898 9.77369 79.0344 18.3769C87.2779 26.9829 91.8185 38.4224 91.8185 50.591C91.8185 62.7596 87.2779 74.1991 79.0344 82.8023C70.7898 91.4083 59.8283 96.147 48.1684 96.147Z" fill="#66B39C"/>
<path fill-rule="evenodd" clip-rule="evenodd" d="M65.9 28.7872C62.8693 26.8586 58.2359 25.8156 52 25.6582V18H45V25.768C40.3994 25.9834 35.2161 26.4648 29.45 27.2122L29 33.4372L32.9 35.6122C33.75 35.9622 34.275 36.3622 34.475 36.8122C34.675 37.2122 34.775 38.0622 34.775 39.3622V67.9372L29.3 69.4372L29.675 76.7872C34.7833 77.1656 39.8917 77.365 45 77.3855V85H52V77.308C55.6518 77.1983 58.0852 76.9747 59.3 76.6372C64.15 75.7872 67.825 73.9872 70.325 71.2372C72.825 68.4872 74.075 64.8622 74.075 60.3622C74.075 55.3122 71.575 51.6622 66.575 49.4122C68.025 48.0122 69.1 46.4622 69.8 44.7622C70.5 43.0122 70.85 41.0122 70.85 38.7622C70.85 34.2122 69.2 30.8872 65.9 28.7872ZM56.9 47.0122C57.4 45.7122 57.65 43.5372 57.65 40.4872C57.65 38.3872 57.15 36.8372 56.15 35.8372C55.2 34.8372 53.725 34.2872 51.725 34.1872C50.425 34.1872 49.125 34.2372 47.825 34.3372V46.8622C48.675 46.8122 49.775 46.7872 51.125 46.7872C53.175 46.7872 55.1 46.8622 56.9 47.0122ZM53.75 68.0872C56.6 68.0872 58.625 67.8372 59.825 67.3372C60.325 65.3372 60.575 63.5622 60.575 62.0122C60.575 59.5122 59.925 57.7372 58.625 56.6872C57.325 55.6372 55.125 55.1122 52.025 55.1122C51.375 55.1122 50.55 55.1622 49.55 55.2622L47.825 55.3372V67.5622C49.575 67.9122 51.55 68.0872 53.75 68.0872Z" fill="white"/>
<path d="M125.737 76.306C120.229 76.306 114.721 76.102 109.213 75.694L108.831 68.197L114.415 66.667V37.5205C114.415 36.1945 114.313 35.3275 114.109 34.9195C113.905 34.4605 113.37 34.0525 112.503 33.6955L108.524 31.477L108.984 25.1275C117.246 24.0565 124.335 23.521 130.251 23.521C137.493 23.521 142.797 24.592 146.163 26.734C149.529 28.876 151.212 32.2675 151.212 36.9085C151.212 39.2035 150.855 41.2435 150.141 43.0285C149.427 44.7625 148.33 46.3435 146.851 47.7715C151.951 50.0665 154.501 53.7895 154.501 58.9405C154.501 63.5305 153.226 67.228 150.676 70.033C148.126 72.838 144.378 74.674 139.431 75.541C137.595 76.051 133.03 76.306 125.737 76.306ZM136.983 45.3235C137.493 43.9975 137.748 41.779 137.748 38.668C137.748 36.526 137.238 34.945 136.218 33.925C135.249 32.905 133.744 32.344 131.704 32.242C130.378 32.242 129.052 32.293 127.726 32.395V45.1705C128.593 45.1195 129.715 45.094 131.092 45.094C133.183 45.094 135.147 45.1705 136.983 45.3235ZM133.77 66.82C136.677 66.82 138.742 66.565 139.966 66.055C140.476 64.015 140.731 62.2045 140.731 60.6235C140.731 58.0735 140.068 56.263 138.742 55.192C137.416 54.121 135.172 53.5855 132.01 53.5855C131.347 53.5855 130.506 53.6365 129.486 53.7385L127.726 53.815V66.2845C129.511 66.6415 131.526 66.82 133.77 66.82ZM174.054 77.071C169.974 77.071 166.939 75.8725 164.95 73.4755C162.961 71.0275 161.967 67.3555 161.967 62.4595V48.766C161.967 47.644 161.865 46.93 161.661 46.624C161.508 46.267 161.074 45.8845 160.36 45.4765L156.918 43.6405L157.3 37.903C158.014 37.801 158.524 37.699 158.83 37.597C159.391 37.495 161.38 37.138 164.797 36.526C168.265 35.914 171.147 35.557 173.442 35.455C174.003 36.73 174.436 38.209 174.742 39.892V59.17C174.742 61.414 174.793 62.995 174.895 63.913C175.048 64.831 175.456 65.545 176.119 66.055C176.833 66.514 178.032 66.7435 179.715 66.7435C182.163 66.7435 184.534 66.31 186.829 65.443V48.766C186.829 47.644 186.753 46.93 186.6 46.624C186.447 46.267 186.039 45.8845 185.376 45.4765L182.01 43.6405L182.316 37.903C186.447 37.138 189.66 36.5515 191.955 36.1435C194.301 35.7355 196.443 35.506 198.381 35.455C198.942 36.73 199.375 38.209 199.681 39.892V64.984C199.681 65.902 199.758 66.5395 199.911 66.8965C200.064 67.2535 200.421 67.6105 200.982 67.9675L204.042 69.727L203.812 74.47C201.619 75.031 199.095 75.541 196.239 76C193.383 76.408 190.731 76.663 188.283 76.765C188.079 76.153 187.849 75.388 187.594 74.47C187.543 74.062 187.416 73.5775 187.212 73.0165H186.982C184.891 74.2405 182.673 75.235 180.327 76C178.032 76.714 175.941 77.071 174.054 77.071ZM222.263 76.9945C217.367 76.9945 213.542 75.1585 210.788 71.4865C208.034 67.8145 206.657 62.893 206.657 56.722C206.657 49.633 208.519 44.278 212.242 40.657C216.016 37.036 221.371 35.2255 228.307 35.2255C228.715 35.2255 230.041 35.2765 232.285 35.3785V30.7885C232.285 29.6665 232.208 28.927 232.055 28.57C231.902 28.213 231.469 27.8305 230.755 27.4225L227.312 25.663L227.695 19.849C232.591 18.982 236.212 18.3955 238.558 18.0895C240.904 17.7325 242.765 17.5285 244.142 17.4775C244.601 18.6505 244.933 19.9765 245.137 21.4555V64.984C245.137 65.902 245.213 66.5395 245.366 66.8965C245.57 67.2535 246.004 67.6105 246.667 67.9675L249.574 69.727L249.268 74.47C244.27 75.745 239.374 76.51 234.58 76.765C234.223 75.796 233.866 74.623 233.509 73.246C230.041 75.745 226.292 76.9945 222.263 76.9945ZM226.7 67.2025C228.383 67.2025 230.27 66.6415 232.361 65.5195V45.706C230.831 45.043 228.868 44.7115 226.471 44.7115C224.533 44.7115 222.671 44.9665 220.886 45.4765C220.478 46.4455 220.147 47.7715 219.892 49.4545C219.688 51.1375 219.586 52.999 219.586 55.039C219.586 59.221 220.147 62.3065 221.269 64.2955C222.442 66.2335 224.252 67.2025 226.7 67.2025ZM268.68 93.442C262.815 93.442 258.378 92.524 255.369 90.688C252.411 88.852 250.932 86.149 250.932 82.579C250.932 78.805 252.666 75.49 256.134 72.634C255.063 71.563 254.527 70.39 254.527 69.115C254.527 67.279 255.726 64.678 258.123 61.312C253.941 59.119 251.85 55.345 251.85 49.99C251.85 45.298 253.431 41.677 256.593 39.127C259.806 36.526 264.421 35.2255 270.439 35.2255C274.672 35.2255 278.14 35.863 280.843 37.138L290.023 34.3075H293.619V45.4H287.652C287.907 46.675 288.034 47.9245 288.034 49.1485C288.034 53.8405 286.453 57.4105 283.291 59.8585C280.129 62.3065 275.488 63.5305 269.368 63.5305C267.277 63.5305 265.39 63.3775 263.707 63.0715V64.1425C263.707 64.9585 264.039 65.545 264.702 65.902C265.416 66.208 266.92 66.514 269.215 66.82L276.1 67.8145C281.506 68.5795 285.229 69.9055 287.269 71.7925C289.36 73.6795 290.406 76.102 290.406 79.06C290.406 83.65 288.519 87.1945 284.745 89.6935C280.971 92.1925 275.616 93.442 268.68 93.442ZM270.516 56.0335C271.587 56.0335 272.811 55.8805 274.188 55.5745C274.392 54.9625 274.57 54.0445 274.723 52.8205C274.927 51.5965 275.029 50.4745 275.029 49.4545C275.029 47.1595 274.519 45.451 273.499 44.329C272.53 43.207 271 42.646 268.909 42.646C267.889 42.646 266.767 42.799 265.543 43.105C265.288 43.717 265.059 44.6095 264.855 45.7825C264.702 46.9555 264.625 48.0775 264.625 49.1485C264.625 51.4945 265.11 53.2285 266.079 54.3505C267.048 55.4725 268.527 56.0335 270.516 56.0335ZM272.199 84.7975C274.545 84.7975 276.33 84.5935 277.554 84.1855C277.86 83.5735 278.013 82.7575 278.013 81.7375C278.013 80.5135 277.579 79.57 276.712 78.907C275.845 78.295 274.29 77.836 272.046 77.53L269.598 77.1475C267.354 76.8925 265.084 76.5355 262.789 76.0765C262.483 77.4535 262.33 78.55 262.33 79.366C262.33 81.202 263.146 82.5535 264.778 83.4205C266.41 84.3385 268.884 84.7975 272.199 84.7975ZM314.523 76.918C308.556 76.918 303.941 75.1075 300.677 71.4865C297.464 67.8655 295.857 62.8675 295.857 56.4925C295.857 52.0555 296.648 48.256 298.229 45.094C299.81 41.881 302.054 39.433 304.961 37.75C307.868 36.067 311.259 35.2255 315.135 35.2255C320.898 35.2255 325.31 37.0615 328.37 40.7335C331.481 44.4055 332.96 49.633 332.807 56.416L309.551 60.7C310.265 62.842 311.259 64.423 312.534 65.443C313.86 66.412 315.594 66.8965 317.736 66.8965C319.215 66.8965 320.975 66.6925 323.015 66.2845C325.055 65.8255 327.12 65.2135 329.211 64.4485L330.971 72.022C329.084 73.45 326.636 74.623 323.627 75.541C320.618 76.459 317.583 76.918 314.523 76.918ZM320.261 49.99C320.159 48.052 319.598 46.6495 318.578 45.7825C317.609 44.8645 316.232 44.4055 314.447 44.4055C312.968 44.4055 311.565 44.6095 310.239 45.0175C309.168 47.5165 308.684 50.2195 308.786 53.1265L320.261 49.99ZM353.902 76.9945C349.414 76.9945 346.099 75.898 343.957 73.705C341.815 71.461 340.744 68.0695 340.744 63.5305V44.941H335.389V39.3565L349.159 26.8105L353.596 27.346V35.9905L366.448 35.9905V45.0175L353.596 45.0175V60.7765C353.596 63.2245 353.928 64.8565 354.591 65.6725C355.305 66.4885 356.656 66.8965 358.645 66.8965C360.328 66.8965 362.674 66.667 365.683 66.208L366.601 74.011C364.765 74.878 362.7 75.592 360.405 76.153C358.161 76.714 355.993 76.9945 353.902 76.9945Z" fill="#56AB91"/>
</svg>
