<svg width="114" height="116" viewBox="0 0 114 116" fill="none" xmlns="http://www.w3.org/2000/svg">
<rect x="7" y="16" width="100" height="100" rx="15" fill="#35AA3A"/>
<g filter="url(#filter0_ddd_1314_1757)">
<path d="M63.0027 60.0003C61.8963 60.0003 61.0025 59.1065 61.0025 58.0002C61.0025 56.8938 61.8963 56 63.0027 56H73.0034C74.1098 56 75.0036 56.8938 75.0036 58.0002V68.0009C75.0036 69.1073 74.1098 70.0011 73.0034 70.0011C71.8971 70.0011 71.0033 69.1073 71.0033 68.0009V62.8318L60.415 73.4139C59.6336 74.1952 58.3648 74.1952 57.5835 73.4139L51.0017 66.8321L42.4135 75.414C41.6322 76.1953 40.3634 76.1953 39.5821 75.414C38.8008 74.6327 38.8008 73.3639 39.5821 72.5825L49.5829 62.5818C50.3642 61.8005 51.633 61.8005 52.4143 62.5818L59.0023 69.1698L68.1718 60.0003H63.0027Z" fill="white"/>
</g>
<defs>
<filter id="filter0_ddd_1314_1757" x="-14.0039" y="-15" width="142.008" height="146" filterUnits="userSpaceOnUse" color-interpolation-filters="sRGB">
<feFlood flood-opacity="0" result="BackgroundImageFix"/>
<feColorMatrix in="SourceAlpha" type="matrix" values="0 0 0 0 0 0 0 0 0 0 0 0 0 0 0 0 0 0 127 0" result="hardAlpha"/>
<feOffset dy="10"/>
<feGaussianBlur stdDeviation="15"/>
<feComposite in2="hardAlpha" operator="out"/>
<feColorMatrix type="matrix" values="0 0 0 0 0.333333 0 0 0 0 0.670588 0 0 0 0 0.568627 0 0 0 0.1 0"/>
<feBlend mode="normal" in2="BackgroundImageFix" result="effect1_dropShadow_1314_1757"/>
<feColorMatrix in="SourceAlpha" type="matrix" values="0 0 0 0 0 0 0 0 0 0 0 0 0 0 0 0 0 0 127 0" result="hardAlpha"/>
<feOffset dy="4"/>
<feGaussianBlur stdDeviation="5"/>
<feComposite in2="hardAlpha" operator="out"/>
<feColorMatrix type="matrix" values="0 0 0 0 0.129412 0 0 0 0 0.145098 0 0 0 0 0.160784 0 0 0 0.02 0"/>
<feBlend mode="normal" in2="effect1_dropShadow_1314_1757" result="effect2_dropShadow_1314_1757"/>
<feColorMatrix in="SourceAlpha" type="matrix" values="0 0 0 0 0 0 0 0 0 0 0 0 0 0 0 0 0 0 127 0" result="hardAlpha"/>
<feOffset dy="-18"/>
<feGaussianBlur stdDeviation="19"/>
<feComposite in2="hardAlpha" operator="out"/>
<feColorMatrix type="matrix" values="0 0 0 0 0.333333 0 0 0 0 0.670588 0 0 0 0 0.568627 0 0 0 0.04 0"/>
<feBlend mode="normal" in2="effect2_dropShadow_1314_1757" result="effect3_dropShadow_1314_1757"/>
<feBlend mode="normal" in="SourceGraphic" in2="effect3_dropShadow_1314_1757" result="shape"/>
</filter>
</defs>
</svg>
